<svg width="36" height="36" viewBox="0 0 36 36" fill="none" xmlns="http://www.w3.org/2000/svg">
<path d="M23.25 18.375C23.25 18.0766 23.1315 17.7905 22.9205 17.5795C22.7095 17.3685 22.4234 17.25 22.125 17.25H14.625C14.3266 17.25 14.0405 17.3685 13.8295 17.5795C13.6185 17.7905 13.5 18.0766 13.5 18.375V19.125C13.5 20.625 15.5745 21.75 18.375 21.75C21.1755 21.75 23.25 20.625 23.25 19.125V18.375ZM21 13.1175C21 11.67 19.8255 10.5 18.375 10.5C16.9245 10.5 15.75 11.6685 15.75 13.1175C15.75 13.8137 16.0266 14.4814 16.5188 14.9737C17.0111 15.4659 17.6788 15.7425 18.375 15.7425C19.0712 15.7425 19.7389 15.4659 20.2312 14.9737C20.7234 14.4814 21 13.8137 21 13.1175ZM6 6.75C6 5.75544 6.39509 4.80161 7.09835 4.09835C7.80161 3.39509 8.75544 3 9.75 3H27C27.4925 3 27.9801 3.097 28.4351 3.28545C28.89 3.47391 29.3034 3.75013 29.6516 4.09835C29.9999 4.44657 30.2761 4.85997 30.4645 5.31494C30.653 5.76991 30.75 6.25754 30.75 6.75V28.125C30.75 28.4234 30.6315 28.7095 30.4205 28.9205C30.2095 29.1315 29.9234 29.25 29.625 29.25H8.25C8.25 29.6478 8.40804 30.0294 8.68934 30.3107C8.97064 30.592 9.35218 30.75 9.75 30.75H29.625C29.9234 30.75 30.2095 30.8685 30.4205 31.0795C30.6315 31.2905 30.75 31.5766 30.75 31.875C30.75 32.1734 30.6315 32.4595 30.4205 32.6705C30.2095 32.8815 29.9234 33 29.625 33H9.75C8.75544 33 7.80161 32.6049 7.09835 31.9016C6.39509 31.1984 6 30.2446 6 29.25V6.75ZM8.25 6.75V27H28.5V6.75C28.5 6.35218 28.342 5.97064 28.0607 5.68934C27.7794 5.40804 27.3978 5.25 27 5.25H9.75C9.35218 5.25 8.97064 5.40804 8.68934 5.68934C8.40804 5.97064 8.25 6.35218 8.25 6.75Z" fill="white"/>
</svg>
