<svg width="20" height="20" viewBox="0 0 20 20" fill="none" xmlns="http://www.w3.org/2000/svg">
<path d="M9.99984 13.3336C11.8382 13.3336 13.3332 11.8386 13.3332 10.0002V5.00025C13.3332 3.15275 11.8457 1.64941 10.0173 1.64941C9.95868 1.64977 9.90025 1.65676 9.84317 1.67025C8.98755 1.71173 8.18061 2.08054 7.58932 2.70037C6.99803 3.3202 6.66764 4.14362 6.6665 5.00025V10.0002C6.6665 11.8386 8.1615 13.3336 9.99984 13.3336Z" fill="white"/>
<path d="M9.16683 16.6092V18.3333H10.8335V16.6092C14.116 16.1967 16.6668 13.3942 16.6668 10H15.0002C15.0002 12.7575 12.7577 15 10.0002 15C7.24266 15 5.00016 12.7575 5.00016 10H3.3335C3.3335 13.3933 5.88433 16.1967 9.16683 16.6092Z" fill="white"/>
</svg>
