<svg width="36" height="36" viewBox="0 0 36 36" fill="none" xmlns="http://www.w3.org/2000/svg">
<path d="M27.9888 3.23891C28.2988 2.91118 28.6714 2.64892 29.0845 2.46763C29.4975 2.28634 29.9428 2.1897 30.3938 2.18343C30.8449 2.17716 31.2927 2.26138 31.7106 2.43111C32.1286 2.60084 32.5083 2.85264 32.8273 3.17162C33.1462 3.4906 33.398 3.8703 33.5678 4.28826C33.7375 4.70622 33.8217 5.15397 33.8154 5.60504C33.8092 6.0561 33.7125 6.50134 33.5312 6.91442C33.35 7.3275 33.0877 7.70004 32.76 8.01003L22.8712 17.8988C22.8581 17.9118 22.8477 17.9274 22.8406 17.9444C22.8336 17.9615 22.8299 17.9798 22.8299 17.9983C22.8299 18.0168 22.8336 18.0352 22.8406 18.0522C22.8477 18.0693 22.8581 18.0848 22.8712 18.0979L32.76 27.9867C33.0776 28.2991 33.3302 28.6713 33.5033 29.0818C33.6763 29.4924 33.7664 29.9331 33.7683 30.3786C33.7701 30.8242 33.6838 31.2656 33.5142 31.6776C33.3445 32.0896 33.095 32.4639 32.78 32.779C32.4651 33.094 32.0908 33.3436 31.6789 33.5133C31.2669 33.683 30.8255 33.7695 30.3799 33.7677C29.9344 33.766 29.4937 33.676 29.0831 33.5031C28.6725 33.3301 28.3002 33.0776 27.9877 32.76L18.099 22.8713C18.0859 22.8582 18.0704 22.8478 18.0533 22.8407C18.0362 22.8336 18.0179 22.83 17.9994 22.83C17.9809 22.83 17.9626 22.8336 17.9455 22.8407C17.9284 22.8478 17.9129 22.8582 17.8998 22.8713L8.0111 32.76C7.69868 33.0777 7.32646 33.3303 6.91592 33.5033C6.50538 33.6764 6.06464 33.7664 5.61912 33.7683C5.1736 33.7702 4.73212 33.6838 4.32014 33.5142C3.90817 33.3446 3.53385 33.0951 3.21878 32.7801C2.90371 32.4651 2.65412 32.0909 2.48442 31.6789C2.31471 31.267 2.22825 30.8255 2.23001 30.38C2.23177 29.9345 2.32172 29.4937 2.49468 29.0831C2.66764 28.6726 2.92017 28.3003 3.23772 27.9878L13.1265 18.099C13.1396 18.086 13.15 18.0705 13.157 18.0534C13.1641 18.0363 13.1678 18.018 13.1678 17.9995C13.1678 17.981 13.1641 17.9627 13.157 17.9456C13.15 17.9285 13.1396 17.913 13.1265 17.8999L3.23772 8.01116C2.61323 7.37655 2.26479 6.52089 2.26831 5.63056C2.27183 4.74022 2.62702 3.88734 3.25652 3.25769C3.88601 2.62805 4.73881 2.27266 5.62914 2.26893C6.51948 2.2652 7.37522 2.61343 8.00997 3.23778L17.8987 13.1265C17.9118 13.1396 17.9273 13.15 17.9444 13.1571C17.9615 13.1642 17.9798 13.1678 17.9983 13.1678C18.0168 13.1678 18.0351 13.1642 18.0522 13.1571C18.0693 13.15 18.0848 13.1396 18.0978 13.1265L27.9866 3.23778L27.9888 3.23891Z" fill="white"/>
</svg>
