<svg width="80" height="80" viewBox="0 0 80 80" fill="none" xmlns="http://www.w3.org/2000/svg">
<g clip-path="url(#clip0_56_1114)">
<path d="M40 75C30.7174 75 21.815 71.3125 15.2513 64.7487C8.68749 58.185 5 49.2826 5 40C5 30.7174 8.68749 21.815 15.2513 15.2513C21.815 8.68749 30.7174 5 40 5C49.2826 5 58.185 8.68749 64.7487 15.2513C71.3125 21.815 75 30.7174 75 40C75 49.2826 71.3125 58.185 64.7487 64.7487C58.185 71.3125 49.2826 75 40 75ZM40 80C50.6087 80 60.7828 75.7857 68.2843 68.2843C75.7857 60.7828 80 50.6087 80 40C80 29.3913 75.7857 19.2172 68.2843 11.7157C60.7828 4.21427 50.6087 0 40 0C29.3913 0 19.2172 4.21427 11.7157 11.7157C4.21427 19.2172 0 29.3913 0 40C0 50.6087 4.21427 60.7828 11.7157 68.2843C19.2172 75.7857 29.3913 80 40 80Z" fill="#F5F7F8"/>
<path d="M31.355 25.2769C31.7639 25.0663 32.223 24.9726 32.6817 25.0062C33.1405 25.0397 33.581 25.1991 33.955 25.4669L51.455 37.9669C51.7791 38.1981 52.0432 38.5035 52.2255 38.8574C52.4078 39.2114 52.5028 39.6038 52.5028 40.0019C52.5028 40.4 52.4078 40.7924 52.2255 41.1463C52.0432 41.5003 51.7791 41.8056 51.455 42.0369L33.955 54.5369C33.5812 54.8044 33.1408 54.9637 32.6823 54.9973C32.2238 55.0308 31.765 54.9372 31.3562 54.7269C30.9474 54.5166 30.6045 54.1976 30.3653 53.8051C30.126 53.4125 29.9996 52.9616 30 52.5019V27.5019C29.9995 27.0423 30.1257 26.5915 30.3648 26.1989C30.6038 25.8064 30.9464 25.4874 31.355 25.2769Z" fill="#F5F7F8"/>
</g>
<defs>
<clipPath id="clip0_56_1114">
<rect width="80" height="80" fill="white"/>
</clipPath>
</defs>
</svg>
