<svg width="413" height="482" viewBox="0 0 413 482" fill="none" xmlns="http://www.w3.org/2000/svg">
<path d="M7.696 32.236L5.14 38.5H1.18L12.232 13.012H15.472L26.416 38.5H22.384L19.792 32.236H7.696ZM13.744 17.152L8.956 29.104H18.496L13.744 17.152ZM44.1668 21.436L37.3268 38.5H33.6548L26.7068 21.436H30.4508L35.4548 34.864H35.5268L40.5668 21.436H44.1668ZM49.7794 28.456H59.9314C59.8834 27.04 59.4514 25.888 58.6354 25C57.8194 24.088 56.6554 23.632 55.1434 23.632C53.7034 23.632 52.4794 24.1 51.4714 25.036C50.4634 25.972 49.8994 27.112 49.7794 28.456ZM63.3514 29.824C63.3514 30.328 63.3394 30.712 63.3154 30.976H49.7794C49.8274 32.44 50.3914 33.676 51.4714 34.684C52.5514 35.668 53.8354 36.16 55.3234 36.16C57.4594 36.16 59.1154 35.296 60.2914 33.568L62.6674 35.476C60.8674 37.804 58.4194 38.968 55.3234 38.968C52.7074 38.968 50.5474 38.14 48.8434 36.484C47.1634 34.828 46.3234 32.668 46.3234 30.004C46.3234 27.364 47.1634 25.204 48.8434 23.524C50.5234 21.82 52.6234 20.968 55.1434 20.968C57.6634 20.968 59.6554 21.772 61.1194 23.38C62.6074 24.964 63.3514 27.112 63.3514 29.824ZM67.9322 21.436H71.1362C71.2322 22.588 71.2802 23.524 71.2802 24.244H71.3882C71.8202 23.308 72.5522 22.528 73.5842 21.904C74.6162 21.28 75.7322 20.968 76.9322 20.968C79.0202 20.968 80.6042 21.616 81.6842 22.912C82.7642 24.208 83.3042 25.876 83.3042 27.916V38.5H79.9202V29.032C79.9202 25.552 78.6242 23.812 76.0322 23.812C74.6882 23.812 73.5842 24.328 72.7202 25.36C71.8802 26.392 71.4602 27.748 71.4602 29.428V38.5H68.0762V25.108C68.0762 23.644 68.0282 22.42 67.9322 21.436ZM92.4493 21.436V38.5H89.0653V21.436H92.4493ZM93.0253 15.28C93.0253 15.88 92.7973 16.396 92.3413 16.828C91.9093 17.236 91.3813 17.44 90.7573 17.44C90.1333 17.44 89.6053 17.236 89.1733 16.828C88.7413 16.396 88.5253 15.88 88.5253 15.28C88.5253 14.68 88.7413 14.164 89.1733 13.732C89.6053 13.3 90.1333 13.084 90.7573 13.084C91.3813 13.084 91.9093 13.3 92.3413 13.732C92.7973 14.14 93.0253 14.656 93.0253 15.28ZM98.3457 25.108C98.3457 23.644 98.2977 22.42 98.2017 21.436H101.406C101.502 22.588 101.55 23.548 101.55 24.316H101.658C102.138 23.308 102.846 22.504 103.782 21.904C104.718 21.28 105.75 20.968 106.878 20.968C107.406 20.968 107.85 21.016 108.21 21.112L108.066 24.244C107.586 24.124 107.07 24.064 106.518 24.064C104.982 24.064 103.794 24.592 102.954 25.648C102.138 26.704 101.73 28 101.73 29.536V38.5H98.3457V25.108ZM125.213 13.012L138.533 33.388H138.605V13.012H142.169V38.5H137.669L124.205 17.692H124.133V38.5H120.569V13.012H125.213ZM150.537 28.456H160.689C160.641 27.04 160.209 25.888 159.393 25C158.577 24.088 157.413 23.632 155.901 23.632C154.461 23.632 153.237 24.1 152.229 25.036C151.221 25.972 150.657 27.112 150.537 28.456ZM164.109 29.824C164.109 30.328 164.097 30.712 164.073 30.976H150.537C150.585 32.44 151.149 33.676 152.229 34.684C153.309 35.668 154.593 36.16 156.081 36.16C158.217 36.16 159.873 35.296 161.049 33.568L163.425 35.476C161.625 37.804 159.177 38.968 156.081 38.968C153.465 38.968 151.305 38.14 149.601 36.484C147.921 34.828 147.081 32.668 147.081 30.004C147.081 27.364 147.921 25.204 149.601 23.524C151.281 21.82 153.381 20.968 155.901 20.968C158.421 20.968 160.413 21.772 161.877 23.38C163.365 24.964 164.109 27.112 164.109 29.824ZM165.818 38.5L172.658 29.536L166.43 21.436H170.606L174.782 27.304L178.994 21.436H182.954L176.798 29.5L183.674 38.5H179.462L174.71 31.84L169.886 38.5H165.818ZM195.221 21.436V24.208H190.685V33.1C190.685 34.132 190.877 34.876 191.261 35.332C191.645 35.764 192.257 35.98 193.097 35.98C193.841 35.98 194.501 35.836 195.077 35.548L195.185 38.32C194.321 38.632 193.361 38.788 192.305 38.788C190.697 38.788 189.461 38.344 188.597 37.456C187.757 36.544 187.337 35.212 187.337 33.46V24.208H184.061V21.436H187.337V16.54H190.685V21.436H195.221ZM226.905 32.596L229.749 34.54C227.493 37.612 224.253 39.148 220.029 39.148C216.117 39.148 212.901 37.888 210.381 35.368C207.861 32.848 206.601 29.632 206.601 25.72C206.601 21.784 207.885 18.58 210.453 16.108C213.021 13.612 216.261 12.364 220.173 12.364C221.997 12.364 223.749 12.712 225.429 13.408C227.109 14.104 228.405 15.076 229.317 16.324L226.509 18.484C225.885 17.596 224.997 16.876 223.845 16.324C222.693 15.772 221.469 15.496 220.173 15.496C217.293 15.496 214.953 16.48 213.153 18.448C211.377 20.416 210.489 22.84 210.489 25.72C210.489 28.648 211.365 31.096 213.117 33.064C214.869 35.008 217.185 35.98 220.065 35.98C223.065 35.98 225.345 34.852 226.905 32.596ZM233.76 21.436L239.052 34.828H239.124L243.84 21.436H247.44L239.16 42.532C238.56 44.092 237.816 45.244 236.928 45.988C236.064 46.756 234.84 47.14 233.256 47.14C232.464 47.14 231.72 47.056 231.024 46.888L231.348 43.9C231.924 44.092 232.488 44.188 233.04 44.188C233.856 44.188 234.492 43.96 234.948 43.504C235.404 43.072 235.824 42.352 236.208 41.344L237.288 38.5L229.98 21.436H233.76ZM250.713 25.108C250.713 23.644 250.665 22.42 250.569 21.436H253.773C253.869 22.588 253.917 23.548 253.917 24.316H254.025C254.505 23.308 255.213 22.504 256.149 21.904C257.085 21.28 258.117 20.968 259.245 20.968C259.773 20.968 260.217 21.016 260.577 21.112L260.433 24.244C259.953 24.124 259.437 24.064 258.885 24.064C257.349 24.064 256.161 24.592 255.321 25.648C254.505 26.704 254.097 28 254.097 29.536V38.5H250.713V25.108Z" fill="#1E1E1E"/>
<path d="M286.44 10.96L273.96 41.92L270.64 40.72L283.12 9.68L286.44 10.96Z" fill="#191919"/>
<path opacity="0.3" d="M316.35 21.68C318.11 21.68 319.43 22.25 320.31 23.39C321.21 24.51 321.66 25.88 321.66 27.5V36.5H318.06V28.52C318.06 25.96 317.16 24.68 315.36 24.68C314.32 24.68 313.53 25.08 312.99 25.88C312.45 26.66 312.18 27.58 312.18 28.64V36.5H308.58V27.8C308.58 26.86 308.35 26.11 307.89 25.55C307.45 24.97 306.79 24.68 305.91 24.68C304.89 24.68 304.11 25.07 303.57 25.85C303.03 26.61 302.76 27.52 302.76 28.58V36.5H299.16V22.1H302.58V24.41H302.64C302.98 23.63 303.54 22.98 304.32 22.46C305.1 21.94 306.03 21.68 307.11 21.68C309.21 21.68 310.71 22.59 311.61 24.41C312.61 22.59 314.19 21.68 316.35 21.68ZM328.609 27.86H335.989C335.989 26.86 335.699 26.03 335.119 25.37C334.539 24.71 333.699 24.38 332.599 24.38C331.539 24.38 330.629 24.71 329.869 25.37C329.109 26.03 328.689 26.86 328.609 27.86ZM339.589 29.48C339.589 29.9 339.579 30.22 339.559 30.44H328.609C328.689 31.44 329.129 32.28 329.929 32.96C330.729 33.64 331.659 33.98 332.719 33.98C334.379 33.98 335.649 33.36 336.529 32.12L338.929 34.04C337.509 35.96 335.449 36.92 332.749 36.92C330.489 36.92 328.629 36.24 327.169 34.88C325.729 33.52 325.009 31.69 325.009 29.39C325.009 27.09 325.729 25.23 327.169 23.81C328.609 22.39 330.429 21.68 332.629 21.68C334.709 21.68 336.389 22.35 337.669 23.69C338.949 25.03 339.589 26.96 339.589 29.48ZM357.716 13.82V36.5H354.296V34.34H354.236C353.756 35.16 353.066 35.8 352.166 36.26C351.266 36.7 350.306 36.92 349.286 36.92C347.146 36.92 345.426 36.18 344.126 34.7C342.846 33.22 342.206 31.4 342.206 29.24C342.206 27.08 342.856 25.28 344.156 23.84C345.476 22.4 347.156 21.68 349.196 21.68C351.216 21.68 352.826 22.43 354.026 23.93H354.116V13.82H357.716ZM346.946 26C346.226 26.92 345.866 28 345.866 29.24C345.866 30.48 346.226 31.57 346.946 32.51C347.686 33.45 348.706 33.92 350.006 33.92C351.266 33.92 352.286 33.45 353.066 32.51C353.846 31.57 354.236 30.5 354.236 29.3C354.236 28.1 353.846 27.02 353.066 26.06C352.286 25.1 351.266 24.62 350.006 24.62C348.706 24.62 347.686 25.08 346.946 26ZM362.15 36.5V22.1H365.75V36.5H362.15ZM362.3 18.74C361.86 18.3 361.64 17.79 361.64 17.21C361.64 16.63 361.86 16.13 362.3 15.71C362.74 15.27 363.28 15.05 363.92 15.05C364.58 15.05 365.13 15.26 365.57 15.68C366.03 16.08 366.26 16.59 366.26 17.21C366.26 17.83 366.03 18.35 365.57 18.77C365.13 19.17 364.58 19.37 363.92 19.37C363.28 19.37 362.74 19.16 362.3 18.74ZM383.257 22.1V36.5H379.837V34.19H379.777C379.437 34.95 378.857 35.6 378.037 36.14C377.237 36.66 376.327 36.92 375.307 36.92C373.547 36.92 372.217 36.36 371.317 35.24C370.437 34.1 369.997 32.72 369.997 31.1V22.1H373.597V30.08C373.597 32.64 374.497 33.92 376.297 33.92C377.377 33.92 378.207 33.54 378.787 32.78C379.367 32 379.657 31.08 379.657 30.02V22.1H383.257ZM404.768 21.68C406.528 21.68 407.848 22.25 408.728 23.39C409.628 24.51 410.078 25.88 410.078 27.5V36.5H406.478V28.52C406.478 25.96 405.578 24.68 403.778 24.68C402.738 24.68 401.948 25.08 401.408 25.88C400.868 26.66 400.598 27.58 400.598 28.64V36.5H396.998V27.8C396.998 26.86 396.768 26.11 396.308 25.55C395.868 24.97 395.208 24.68 394.328 24.68C393.308 24.68 392.528 25.07 391.988 25.85C391.448 26.61 391.178 27.52 391.178 28.58V36.5H387.578V22.1H390.998V24.41H391.058C391.398 23.63 391.958 22.98 392.738 22.46C393.518 21.94 394.448 21.68 395.528 21.68C397.628 21.68 399.128 22.59 400.028 24.41C401.028 22.59 402.608 21.68 404.768 21.68Z" fill="#3E3E3E"/>
<path d="M6.976 297.804L4.204 304.5H1.36L12.376 279.012H14.896L25.84 304.5H22.96L20.152 297.804H6.976ZM13.564 281.892L7.948 295.428H19.18L13.564 281.892ZM42.9881 287.652L36.1481 304.5H33.4481L26.5721 287.652H29.3081L34.7801 301.908H34.8521L40.3601 287.652H42.9881ZM48.1822 294.78H59.6662C59.5942 293.148 59.0662 291.828 58.0822 290.82C57.1222 289.788 55.7902 289.272 54.0862 289.272C52.5022 289.272 51.1462 289.824 50.0182 290.928C48.9142 292.008 48.3022 293.292 48.1822 294.78ZM62.1502 295.572C62.1502 296.052 62.1382 296.436 62.1142 296.724H48.1462C48.1942 298.428 48.8062 299.88 49.9822 301.08C51.1582 302.256 52.5982 302.844 54.3022 302.844C55.4782 302.844 56.5462 302.568 57.5062 302.016C58.4662 301.44 59.1982 300.744 59.7022 299.928L61.5382 301.368C59.6662 303.744 57.2542 304.932 54.3022 304.932C51.8062 304.932 49.7302 304.092 48.0742 302.412C46.4182 300.732 45.5902 298.62 45.5902 296.076C45.5902 293.556 46.4062 291.456 48.0382 289.776C49.6702 288.072 51.6862 287.22 54.0862 287.22C56.6302 287.22 58.6102 288.012 60.0262 289.596C61.4422 291.156 62.1502 293.148 62.1502 295.572ZM67.2718 287.652H69.6118C69.7078 288.852 69.7558 289.812 69.7558 290.532H69.8278C70.2838 289.572 71.0518 288.78 72.1318 288.156C73.2358 287.532 74.3878 287.22 75.5878 287.22C77.6758 287.22 79.2598 287.844 80.3398 289.092C81.4438 290.34 81.9958 292.032 81.9958 294.168V304.5H79.5478V295.176C79.5478 293.28 79.1998 291.828 78.5038 290.82C77.8318 289.788 76.6558 289.272 74.9758 289.272C73.5598 289.272 72.3478 289.848 71.3398 291C70.3558 292.128 69.8638 293.748 69.8638 295.86V304.5H67.4158V291.36C67.4158 289.92 67.3678 288.684 67.2718 287.652ZM90.8178 287.652V304.5H88.3698V287.652H90.8178ZM90.7818 279.948C91.1418 280.284 91.3218 280.692 91.3218 281.172C91.3218 281.652 91.1418 282.06 90.7818 282.396C90.4458 282.732 90.0498 282.9 89.5938 282.9C89.1378 282.9 88.7298 282.732 88.3698 282.396C88.0338 282.06 87.8658 281.652 87.8658 281.172C87.8658 280.692 88.0338 280.284 88.3698 279.948C88.7298 279.612 89.1378 279.444 89.5938 279.444C90.0498 279.444 90.4458 279.612 90.7818 279.948ZM97.3338 291.36C97.3338 289.92 97.2858 288.684 97.1898 287.652H99.5298C99.6258 288.852 99.6738 289.812 99.6738 290.532H99.7458C100.226 289.548 100.946 288.756 101.906 288.156C102.89 287.532 103.97 287.22 105.146 287.22C105.794 287.22 106.334 287.28 106.766 287.4L106.442 289.704C106.058 289.56 105.482 289.488 104.714 289.488C103.298 289.488 102.122 290.028 101.186 291.108C100.25 292.164 99.7818 293.748 99.7818 295.86V304.5H97.3338V291.36ZM122.69 279.012L137.522 300.72H137.594V279.012H140.186V304.5H136.946L122.114 282.576H122.042V304.5H119.45V279.012H122.69ZM148.167 294.78H159.651C159.579 293.148 159.051 291.828 158.067 290.82C157.107 289.788 155.775 289.272 154.071 289.272C152.487 289.272 151.131 289.824 150.003 290.928C148.899 292.008 148.287 293.292 148.167 294.78ZM162.135 295.572C162.135 296.052 162.123 296.436 162.099 296.724H148.131C148.179 298.428 148.791 299.88 149.967 301.08C151.143 302.256 152.583 302.844 154.287 302.844C155.463 302.844 156.531 302.568 157.491 302.016C158.451 301.44 159.183 300.744 159.687 299.928L161.523 301.368C159.651 303.744 157.239 304.932 154.287 304.932C151.791 304.932 149.715 304.092 148.059 302.412C146.403 300.732 145.575 298.62 145.575 296.076C145.575 293.556 146.391 291.456 148.023 289.776C149.655 288.072 151.671 287.22 154.071 287.22C156.615 287.22 158.595 288.012 160.011 289.596C161.427 291.156 162.135 293.148 162.135 295.572ZM164.525 304.5L171.149 295.788L164.921 287.652H168.053L172.661 294.06L177.269 287.652H180.221L174.101 295.68L180.797 304.5H177.629L172.625 297.48L167.477 304.5H164.525ZM192.223 287.652V289.704H187.471V299.532C187.471 300.708 187.687 301.524 188.119 301.98C188.551 302.412 189.175 302.628 189.991 302.628C190.687 302.628 191.395 302.448 192.115 302.088L192.223 304.212C191.335 304.548 190.375 304.716 189.343 304.716C188.191 304.716 187.183 304.38 186.319 303.708C185.455 303.036 185.023 301.872 185.023 300.216V289.704H181.531V287.652H185.023V282.9H187.471V287.652H192.223ZM224.637 299.1L226.653 300.396C225.741 301.788 224.457 302.928 222.801 303.816C221.169 304.704 219.273 305.148 217.113 305.148C213.273 305.148 210.093 303.888 207.573 301.368C205.077 298.824 203.829 295.62 203.829 291.756C203.829 287.892 205.089 284.7 207.609 282.18C210.129 279.636 213.297 278.364 217.113 278.364C218.985 278.364 220.737 278.736 222.369 279.48C224.025 280.2 225.297 281.172 226.185 282.396L224.025 283.98C223.425 283.068 222.501 282.288 221.253 281.64C220.029 280.968 218.661 280.632 217.149 280.632C213.957 280.632 211.389 281.712 209.445 283.872C207.525 286.032 206.564 288.66 206.564 291.756C206.564 294.852 207.537 297.48 209.481 299.64C211.425 301.8 213.981 302.88 217.149 302.88C220.461 302.88 222.957 301.62 224.637 299.1ZM230.402 287.652L236.126 301.872H236.198L241.418 287.652H244.082L235.694 308.856C235.142 310.272 234.458 311.34 233.642 312.06C232.85 312.78 231.77 313.14 230.402 313.14C229.658 313.14 228.926 313.068 228.206 312.924L228.458 310.692C229.034 310.884 229.634 310.98 230.258 310.98C231.05 310.98 231.686 310.728 232.166 310.224C232.67 309.744 233.114 309 233.498 307.992L234.866 304.464L227.666 287.652H230.402ZM247.908 291.36C247.908 289.92 247.86 288.684 247.764 287.652H250.104C250.2 288.852 250.248 289.812 250.248 290.532H250.32C250.8 289.548 251.52 288.756 252.48 288.156C253.464 287.532 254.544 287.22 255.72 287.22C256.368 287.22 256.908 287.28 257.34 287.4L257.016 289.704C256.632 289.56 256.056 289.488 255.288 289.488C253.872 289.488 252.696 290.028 251.76 291.108C250.824 292.164 250.356 293.748 250.356 295.86V304.5H247.908V291.36Z" fill="#1E1E1E"/>
<path d="M282.6 277.76L270.52 306.72L268.2 305.96L280.32 276.96L282.6 277.76Z" fill="#191919"/>
<path opacity="0.3" d="M295.7 291.55C295.7 290.35 295.66 289.32 295.58 288.46H297.53C297.61 289.46 297.65 290.26 297.65 290.86H297.71C298.11 290.04 298.71 289.38 299.51 288.88C300.33 288.36 301.23 288.1 302.21 288.1C302.75 288.1 303.2 288.15 303.56 288.25L303.29 290.17C302.97 290.05 302.49 289.99 301.85 289.99C300.67 289.99 299.69 290.44 298.91 291.34C298.13 292.22 297.74 293.54 297.74 295.3V302.5H295.7V291.55ZM307.123 294.4H316.693C316.633 293.04 316.193 291.94 315.373 291.1C314.573 290.24 313.463 289.81 312.043 289.81C310.723 289.81 309.593 290.27 308.653 291.19C307.733 292.09 307.223 293.16 307.123 294.4ZM318.763 295.06C318.763 295.46 318.753 295.78 318.733 296.02H307.093C307.133 297.44 307.643 298.65 308.623 299.65C309.603 300.63 310.803 301.12 312.223 301.12C313.203 301.12 314.093 300.89 314.893 300.43C315.693 299.95 316.303 299.37 316.723 298.69L318.253 299.89C316.693 301.87 314.683 302.86 312.223 302.86C310.143 302.86 308.413 302.16 307.033 300.76C305.653 299.36 304.963 297.6 304.963 295.48C304.963 293.38 305.643 291.63 307.003 290.23C308.363 288.81 310.043 288.1 312.043 288.1C314.163 288.1 315.813 288.76 316.993 290.08C318.173 291.38 318.763 293.04 318.763 295.06ZM322.431 306.88L323.901 305.32C324.481 306.06 325.261 306.67 326.241 307.15C327.221 307.65 328.231 307.9 329.271 307.9C331.171 307.9 332.561 307.39 333.441 306.37C334.321 305.35 334.761 304.02 334.761 302.38V299.74H334.701C334.181 300.58 333.421 301.25 332.421 301.75C331.441 302.25 330.431 302.5 329.391 302.5C327.231 302.5 325.481 301.83 324.141 300.49C322.801 299.15 322.131 297.44 322.131 295.36C322.131 293.32 322.801 291.6 324.141 290.2C325.501 288.8 327.251 288.1 329.391 288.1C330.451 288.1 331.461 288.35 332.421 288.85C333.401 289.33 334.161 290.01 334.701 290.89H334.761V288.46H336.801V302.38C336.801 303.24 336.681 304.06 336.441 304.84C336.221 305.62 335.851 306.39 335.331 307.15C334.811 307.93 334.021 308.55 332.961 309.01C331.921 309.47 330.661 309.7 329.181 309.7C327.901 309.7 326.661 309.45 325.461 308.95C324.281 308.45 323.271 307.76 322.431 306.88ZM325.701 291.4C324.761 292.46 324.291 293.76 324.291 295.3C324.291 296.84 324.761 298.14 325.701 299.2C326.661 300.24 327.961 300.76 329.601 300.76C331.181 300.76 332.471 300.26 333.471 299.26C334.491 298.24 335.001 296.92 335.001 295.3C335.001 293.8 334.481 292.51 333.441 291.43C332.421 290.35 331.141 289.81 329.601 289.81C327.961 289.81 326.661 290.34 325.701 291.4ZM354.256 302.5H352.306C352.226 301.5 352.186 300.7 352.186 300.1H352.126C351.746 300.9 351.096 301.56 350.176 302.08C349.276 302.6 348.326 302.86 347.326 302.86C345.586 302.86 344.256 302.34 343.336 301.3C342.436 300.26 341.986 298.85 341.986 297.07V288.46H344.026V296.23C344.026 297.81 344.306 299.03 344.866 299.89C345.446 300.73 346.436 301.15 347.836 301.15C349.016 301.15 350.016 300.68 350.836 299.74C351.676 298.78 352.096 297.42 352.096 295.66V288.46H354.136V299.41C354.136 300.61 354.176 301.64 354.256 302.5ZM361.638 279.82V302.5H359.598V279.82H361.638ZM375.946 293.89V293.44C375.946 291.02 374.696 289.81 372.196 289.81C370.516 289.81 369.126 290.36 368.026 291.46L366.886 290.11C368.226 288.77 370.066 288.1 372.406 288.1C374.006 288.1 375.316 288.54 376.336 289.42C377.356 290.3 377.866 291.56 377.866 293.2V299.35C377.866 300.61 377.946 301.66 378.106 302.5H376.276C376.136 301.7 376.066 300.94 376.066 300.22H376.006C374.786 301.98 373.086 302.86 370.906 302.86C369.646 302.86 368.516 302.51 367.516 301.81C366.536 301.09 366.046 300.02 366.046 298.6C366.046 297.9 366.166 297.29 366.406 296.77C366.646 296.23 367.006 295.79 367.486 295.45C367.966 295.11 368.486 294.84 369.046 294.64C369.606 294.42 370.296 294.26 371.116 294.16C371.936 294.04 372.696 293.97 373.396 293.95C374.116 293.91 374.966 293.89 375.946 293.89ZM375.946 295.48H375.346C374.386 295.48 373.526 295.52 372.766 295.6C372.026 295.66 371.276 295.79 370.516 295.99C369.776 296.19 369.196 296.5 368.776 296.92C368.356 297.34 368.146 297.87 368.146 298.51C368.146 299.43 368.466 300.11 369.106 300.55C369.746 300.97 370.526 301.18 371.446 301.18C372.826 301.18 373.916 300.73 374.716 299.83C375.536 298.93 375.946 297.83 375.946 296.53V295.48ZM383.122 291.55C383.122 290.35 383.082 289.32 383.002 288.46H384.952C385.032 289.46 385.072 290.26 385.072 290.86H385.132C385.532 290.04 386.132 289.38 386.932 288.88C387.752 288.36 388.652 288.1 389.632 288.1C390.172 288.1 390.622 288.15 390.982 288.25L390.712 290.17C390.392 290.05 389.912 289.99 389.272 289.99C388.092 289.99 387.112 290.44 386.332 291.34C385.552 292.22 385.162 293.54 385.162 295.3V302.5H383.122V291.55Z" fill="#3E3E3E"/>
<path d="M1.12 106L8.488 89.008H10.648L17.944 106H15.256L13.528 101.824H5.464L3.76 106H1.12ZM6.304 99.736H12.664L9.496 91.768L6.304 99.736ZM23.2945 106.288C22.8145 106.288 22.3425 106.224 21.8785 106.096C21.4145 105.968 20.9745 105.776 20.5585 105.52C20.1425 105.264 19.8065 104.904 19.5505 104.44C19.2945 103.96 19.1665 103.408 19.1665 102.784C19.1665 102.128 19.3185 101.56 19.6225 101.08C19.9425 100.584 20.3425 100.208 20.8225 99.952C21.3025 99.68 21.9105 99.472 22.6465 99.328C23.3985 99.168 24.1025 99.064 24.7585 99.016C25.4305 98.968 26.2065 98.944 27.0865 98.944V98.632C27.0865 97.816 26.8305 97.2 26.3185 96.784C25.8225 96.352 25.1425 96.136 24.2785 96.136C22.9985 96.136 21.9185 96.576 21.0385 97.456L19.8385 96.016C21.0225 94.88 22.5745 94.312 24.4945 94.312C26.0625 94.312 27.2465 94.728 28.0465 95.56C28.8465 96.376 29.2465 97.448 29.2465 98.776V103.744C29.2465 104.736 29.3025 105.488 29.4145 106H27.3745C27.2465 105.456 27.1825 104.912 27.1825 104.368H27.1105C26.2625 105.648 24.9905 106.288 23.2945 106.288ZM23.7985 104.512C24.8225 104.512 25.6225 104.208 26.1985 103.6C26.7905 102.976 27.0865 102.168 27.0865 101.176V100.576H26.5345C23.1585 100.576 21.4705 101.296 21.4705 102.736C21.4705 103.36 21.6945 103.816 22.1425 104.104C22.5905 104.376 23.1425 104.512 23.7985 104.512ZM39.1343 106V89.008H49.7423V91.048H41.5103V96.16H44.7023C46.5903 96.16 48.0943 96.576 49.2143 97.408C50.3343 98.224 50.8943 99.448 50.8943 101.08C50.8943 102.712 50.3343 103.944 49.2143 104.776C48.1103 105.592 46.6143 106 44.7263 106H39.1343ZM41.5103 103.984H44.4623C47.1503 103.984 48.4943 103.024 48.4943 101.104C48.4943 100.144 48.1423 99.416 47.4383 98.92C46.7503 98.424 45.7583 98.176 44.4623 98.176H41.5103V103.984ZM59.8178 106.312C57.7058 106.312 56.0898 105.592 54.9698 104.152C54.0898 103.016 53.6498 101.176 53.6498 98.632C53.6498 97.448 53.6818 96.44 53.7458 95.608C53.8258 94.76 53.9698 93.928 54.1778 93.112C54.3858 92.28 54.6818 91.608 55.0658 91.096C55.4498 90.568 55.9618 90.12 56.6018 89.752C57.2418 89.384 58.0178 89.144 58.9298 89.032L62.1218 88.648C62.7458 88.568 63.2178 88.448 63.5378 88.288C63.8578 88.128 64.0658 87.872 64.1618 87.52L65.7938 88C65.6018 88.784 65.2818 89.36 64.8338 89.728C64.3858 90.096 63.7218 90.344 62.8418 90.472L59.6978 90.88C58.6578 91.008 57.8498 91.248 57.2738 91.6C56.6978 91.952 56.2418 92.568 55.9058 93.448C55.5698 94.312 55.3858 95.528 55.3538 97.096H55.4258C56.3538 95.272 57.9778 94.36 60.2978 94.36C61.9138 94.36 63.2498 94.92 64.3058 96.04C65.3778 97.144 65.9138 98.568 65.9138 100.312C65.9138 102.072 65.3378 103.512 64.1858 104.632C63.0338 105.752 61.5778 106.312 59.8178 106.312ZM57.0338 103.24C57.7218 104.024 58.6418 104.416 59.7938 104.416C60.9458 104.416 61.8658 104.024 62.5538 103.24C63.2578 102.44 63.6098 101.456 63.6098 100.288C63.6098 99.12 63.2578 98.144 62.5538 97.36C61.8658 96.56 60.9378 96.16 59.7698 96.16C58.6338 96.16 57.7218 96.56 57.0338 97.36C56.3458 98.144 56.0018 99.12 56.0018 100.288C56.0018 101.456 56.3458 102.44 57.0338 103.24ZM75.1812 106V89.008H81.0372C82.5092 89.008 83.7652 89.352 84.8052 90.04C85.8452 90.728 86.3652 91.816 86.3652 93.304C86.3652 94.216 86.0932 95 85.5492 95.656C85.0212 96.312 84.3012 96.76 83.3892 97V97.048C84.5092 97.176 85.4132 97.608 86.1012 98.344C86.8052 99.08 87.1572 100.024 87.1572 101.176C87.1572 102.744 86.5572 103.944 85.3572 104.776C84.1732 105.592 82.6452 106 80.7732 106H75.1812ZM77.5572 103.984H80.5332C81.2852 103.984 81.9572 103.904 82.5492 103.744C83.1412 103.584 83.6532 103.28 84.0852 102.832C84.5332 102.368 84.7572 101.776 84.7572 101.056C84.7572 99.152 83.4212 98.2 80.7492 98.2H77.5572V103.984ZM77.5572 96.184H80.6532C81.6292 96.184 82.4292 95.968 83.0532 95.536C83.6772 95.088 83.9892 94.424 83.9892 93.544C83.9892 91.848 82.7492 91 80.2692 91H77.5572V96.184ZM90.4596 106V94.624H96.0516C96.4356 94.624 96.7956 94.656 97.1316 94.72C97.4836 94.768 97.8276 94.864 98.1636 95.008C98.5156 95.136 98.8116 95.312 99.0516 95.536C99.3076 95.744 99.5076 96.024 99.6516 96.376C99.8116 96.728 99.8916 97.128 99.8916 97.576C99.8916 98.168 99.7076 98.688 99.3396 99.136C98.9876 99.568 98.5156 99.848 97.9236 99.976V100.024C98.6596 100.12 99.2596 100.416 99.7236 100.912C100.188 101.392 100.42 102.024 100.42 102.808C100.42 103.8 100.028 104.584 99.2436 105.16C98.4756 105.72 97.4436 106 96.1476 106H90.4596ZM92.7156 104.2H95.7876C97.3396 104.2 98.1156 103.672 98.1156 102.616C98.1156 101.544 97.3796 101.008 95.9076 101.008H92.7156V104.2ZM92.7156 99.304H95.8596C96.3716 99.304 96.8036 99.184 97.1556 98.944C97.5076 98.704 97.6836 98.336 97.6836 97.84C97.6836 96.864 96.9956 96.376 95.6196 96.376H92.7156V99.304ZM109.681 106V89.008H119.593V91.096H112.057V106H109.681ZM121.725 106V94.624H129.477V96.472H123.981V106H121.725ZM136.313 110.032V103.888H137.705C139.561 101.888 140.489 98.424 140.489 93.496V89.008H151.649V103.888H153.569V110.032H151.409V106H138.473V110.032H136.313ZM140.513 103.888H149.273V91.096H142.793V93.664C142.793 98.352 142.033 101.76 140.513 103.888ZM154.713 109.48V104.128H155.961C157.097 102.672 157.665 100.496 157.665 97.6V94.624H166.425V104.128H168.177V109.48H166.209V106H156.681V109.48H154.713ZM158.409 104.128H164.193V96.472H159.825V98.2C159.825 100.488 159.353 102.464 158.409 104.128ZM176.923 106V89.008H187.819V91.096H179.299V96.184H187.315V98.224H179.299V103.888H188.179V106H176.923ZM196.473 106.312C194.729 106.312 193.289 105.76 192.153 104.656C191.033 103.552 190.473 102.112 190.473 100.336C190.473 98.576 191.033 97.136 192.153 96.016C193.273 94.88 194.673 94.312 196.353 94.312C198.033 94.312 199.361 94.848 200.337 95.92C201.329 96.976 201.825 98.408 201.825 100.216C201.825 100.552 201.817 100.808 201.801 100.984H192.777C192.809 101.96 193.185 102.784 193.905 103.456C194.625 104.112 195.481 104.44 196.473 104.44C197.897 104.44 199.001 103.864 199.785 102.712L201.369 103.984C200.169 105.536 198.537 106.312 196.473 106.312ZM192.777 99.304H199.545C199.513 98.36 199.225 97.592 198.681 97C198.137 96.392 197.361 96.088 196.353 96.088C195.393 96.088 194.577 96.4 193.905 97.024C193.233 97.648 192.857 98.408 192.777 99.304ZM211.095 106V89.008H221.991V91.096H213.471V96.184H221.487V98.224H213.471V103.888H222.351V106H211.095ZM212.823 85.72C212.823 85.32 212.967 84.976 213.255 84.688C213.543 84.4 213.895 84.256 214.311 84.256C214.727 84.256 215.079 84.4 215.367 84.688C215.655 84.96 215.799 85.304 215.799 85.72C215.799 86.12 215.655 86.464 215.367 86.752C215.079 87.024 214.727 87.16 214.311 87.16C213.895 87.16 213.543 87.016 213.255 86.728C212.967 86.44 212.823 86.104 212.823 85.72ZM217.479 85.72C217.479 85.32 217.623 84.976 217.911 84.688C218.199 84.4 218.551 84.256 218.967 84.256C219.383 84.256 219.735 84.4 220.023 84.688C220.311 84.96 220.455 85.304 220.455 85.72C220.455 86.12 220.311 86.464 220.023 86.752C219.735 87.024 219.383 87.16 218.967 87.16C218.551 87.16 218.199 87.016 217.911 86.728C217.623 86.44 217.479 86.104 217.479 85.72ZM226.805 90.52C226.805 90.12 226.949 89.776 227.237 89.488C227.525 89.2 227.877 89.056 228.293 89.056C228.709 89.056 229.061 89.2 229.349 89.488C229.637 89.76 229.781 90.104 229.781 90.52C229.781 90.92 229.637 91.264 229.349 91.552C229.061 91.824 228.709 91.96 228.293 91.96C227.877 91.96 227.525 91.816 227.237 91.528C226.949 91.24 226.805 90.904 226.805 90.52ZM231.461 90.52C231.461 90.12 231.605 89.776 231.893 89.488C232.181 89.2 232.533 89.056 232.949 89.056C233.365 89.056 233.717 89.2 234.005 89.488C234.293 89.76 234.437 90.104 234.437 90.52C234.437 90.92 234.293 91.264 234.005 91.552C233.717 91.824 233.365 91.96 232.949 91.96C232.533 91.96 232.181 91.816 231.893 91.528C231.605 91.24 231.461 90.904 231.461 90.52ZM230.645 106.312C228.901 106.312 227.461 105.76 226.325 104.656C225.205 103.552 224.645 102.112 224.645 100.336C224.645 98.576 225.205 97.136 226.325 96.016C227.445 94.88 228.845 94.312 230.525 94.312C232.205 94.312 233.533 94.848 234.509 95.92C235.501 96.976 235.997 98.408 235.997 100.216C235.997 100.552 235.989 100.808 235.973 100.984H226.949C226.981 101.96 227.357 102.784 228.077 103.456C228.797 104.112 229.653 104.44 230.645 104.44C232.069 104.44 233.173 103.864 233.957 102.712L235.541 103.984C234.341 105.536 232.709 106.312 230.645 106.312ZM226.949 99.304H233.717C233.685 98.36 233.397 97.592 232.853 97C232.309 96.392 231.533 96.088 230.525 96.088C229.565 96.088 228.749 96.4 228.077 97.024C227.405 97.648 227.029 98.408 226.949 99.304ZM243.155 106L251.339 96.736L243.587 89.008H246.755L253.955 96.496H253.979V89.008H256.355V96.496H256.379L263.555 89.008H266.747L258.995 96.736L267.179 106H263.915L256.379 97.264H256.355V106H253.979V97.264H253.955L246.419 106H243.155ZM267.181 106L272.605 100.048L267.661 94.624H270.613L275.101 99.904H275.173V94.624H277.429V99.904H277.501L281.989 94.624H284.941L279.973 100.048L285.421 106H282.445L277.501 100.384H277.429V106H275.173V100.384H275.101L270.157 106H267.181ZM298.157 106.432C295.597 106.432 293.621 105.6 292.229 103.936L293.981 102.376C294.941 103.736 296.309 104.416 298.085 104.416C299.189 104.416 300.101 104.128 300.821 103.552C301.541 102.96 301.901 102.168 301.901 101.176C301.901 99.192 300.453 98.2 297.557 98.2H296.453V96.184H297.581C300.141 96.184 301.421 95.216 301.421 93.28C301.421 92.48 301.125 91.832 300.533 91.336C299.941 90.824 299.149 90.568 298.157 90.568C296.557 90.568 295.333 91.12 294.485 92.224L292.877 90.76C294.045 89.304 295.797 88.576 298.133 88.576C299.845 88.576 301.205 88.984 302.213 89.8C303.221 90.6 303.725 91.72 303.725 93.16C303.725 94.136 303.445 94.968 302.885 95.656C302.325 96.344 301.605 96.808 300.725 97.048V97.096C301.781 97.32 302.645 97.8 303.317 98.536C304.005 99.272 304.349 100.184 304.349 101.272C304.349 102.856 303.741 104.112 302.525 105.04C301.325 105.968 299.869 106.432 298.157 106.432ZM311.065 106.336C308.905 106.336 307.265 105.624 306.145 104.2L307.681 102.88C307.985 103.344 308.433 103.736 309.025 104.056C309.633 104.376 310.273 104.536 310.945 104.536C312.625 104.536 313.465 103.944 313.465 102.76C313.465 101.576 312.465 100.984 310.465 100.984H309.625V99.304H310.441C312.233 99.304 313.129 98.728 313.129 97.576C313.129 96.584 312.369 96.088 310.849 96.088C310.305 96.088 309.777 96.224 309.265 96.496C308.753 96.752 308.345 97.096 308.041 97.528L306.601 96.304C307.017 95.68 307.617 95.192 308.401 94.84C309.201 94.488 310.081 94.312 311.041 94.312C312.337 94.312 313.385 94.592 314.185 95.152C315.001 95.696 315.409 96.448 315.409 97.408C315.409 98.048 315.185 98.608 314.737 99.088C314.305 99.568 313.753 99.88 313.081 100.024V100.072C313.881 100.216 314.521 100.536 315.001 101.032C315.497 101.512 315.745 102.12 315.745 102.856C315.745 103.944 315.305 104.8 314.425 105.424C313.545 106.032 312.425 106.336 311.065 106.336ZM325.002 106V89.008H327.378V102.472H327.426L335.994 89.008H338.61V106H336.234V92.536H336.186L327.618 106H325.002ZM342.624 106V94.624H344.88V102.832H344.904L350.736 94.624H353.208V106H350.952V97.768H350.904L345.096 106H342.624ZM3.064 137V120.008H5.44V133.472H5.488L14.056 120.008H16.672V137H14.296V123.536H14.248L5.68 137H3.064ZM12.328 117.68C11.656 118.24 10.816 118.52 9.808 118.52C8.8 118.52 7.96 118.24 7.288 117.68C6.616 117.104 6.224 116.32 6.112 115.328L7.48 115.064C7.576 115.64 7.832 116.096 8.248 116.432C8.68 116.768 9.2 116.936 9.808 116.936C10.416 116.936 10.928 116.768 11.344 116.432C11.776 116.096 12.04 115.64 12.136 115.064L13.504 115.328C13.392 116.32 13 117.104 12.328 117.68ZM28.3422 122.48C27.7182 123.04 26.8942 123.32 25.8702 123.32C24.8462 123.32 24.0142 123.032 23.3742 122.456C22.7502 121.88 22.3742 121.096 22.2462 120.104L23.5662 119.912C23.6622 120.488 23.9182 120.936 24.3342 121.256C24.7502 121.576 25.2622 121.736 25.8702 121.736C26.4782 121.736 26.9902 121.576 27.4062 121.256C27.8222 120.936 28.0782 120.488 28.1742 119.912L29.4942 120.176C29.3662 121.152 28.9822 121.92 28.3422 122.48ZM20.6862 137V125.624H22.9422V133.832H22.9662L28.7982 125.624H31.2702V137H29.0142V128.768H28.9662L23.1582 137H20.6862ZM41.2671 137V120.008H43.6431V127.496H43.6911L51.2751 120.008H54.5631L46.3071 127.784L55.0671 137H51.6591L43.6911 128.216H43.6431V137H41.2671ZM56.9914 137V125.624H59.2474V130.832H59.3194L64.1194 125.624H67.1194L61.8394 131.024L67.5994 137H64.5514L59.3194 131.432H59.2474V137H56.9914ZM75.6963 137.168C74.9603 137.168 74.3523 137.096 73.8723 136.952L74.1843 134.84C74.5203 134.952 74.8643 135.008 75.2163 135.008C76.0963 135.008 76.8003 134.68 77.3283 134.024C77.8563 133.352 78.2483 132.232 78.5043 130.664C78.7603 129.096 78.8883 126.968 78.8883 124.28V120.008H89.8323V137H87.4563V122.096H81.1923V124.904C81.1923 129.16 80.7763 132.272 79.9443 134.24C79.1123 136.192 77.6963 137.168 75.6963 137.168ZM93.6426 137.144C93.0826 137.144 92.5946 137.088 92.1786 136.976L92.3706 135.08C92.6106 135.16 92.8666 135.2 93.1386 135.2C93.9546 135.2 94.5626 134.784 94.9626 133.952C95.3626 133.104 95.5626 131.648 95.5626 129.584V125.624H104.299V137H102.043V127.472H97.7466V130.184C97.7466 132.488 97.4186 134.224 96.7626 135.392C96.1226 136.56 95.0826 137.144 93.6426 137.144ZM114.298 137V120.008H117.994L123.082 133.064H123.13L128.146 120.008H131.842V137H129.466V122.792H129.418L123.778 137H122.266L116.65 122.792H116.602V137H114.298ZM135.858 137V125.624H139.05L142.794 133.928H142.818L146.514 125.624H149.73V137H147.498V128.288H147.45L143.442 137H142.074L138.114 128.264H138.09V137H135.858ZM159.744 137V120.008H162.12V127.112H170.736V120.008H173.112V137H170.736V129.224H162.12V137H159.744ZM177.108 137V125.624H179.364V130.136H185.004V125.624H187.26V137H185.004V131.984H179.364V137H177.108ZM205.379 137.432C202.787 137.432 200.643 136.592 198.947 134.912C197.251 133.232 196.403 131.088 196.403 128.48C196.403 125.856 197.243 123.72 198.923 122.072C200.619 120.408 202.771 119.576 205.379 119.576C207.987 119.576 210.139 120.408 211.835 122.072C213.547 123.72 214.403 125.856 214.403 128.48C214.403 131.088 213.547 133.232 211.835 134.912C210.139 136.592 207.987 137.432 205.379 137.432ZM205.379 135.296C207.315 135.296 208.875 134.648 210.059 133.352C211.243 132.04 211.835 130.416 211.835 128.48C211.835 126.56 211.243 124.944 210.059 123.632C208.875 122.32 207.315 121.664 205.379 121.664C203.475 121.664 201.931 122.32 200.747 123.632C199.563 124.944 198.971 126.56 198.971 128.48C198.971 130.416 199.563 132.04 200.747 133.352C201.931 134.648 203.475 135.296 205.379 135.296ZM227.258 135.608C226.09 136.744 224.634 137.312 222.89 137.312C221.146 137.312 219.69 136.744 218.522 135.608C217.354 134.472 216.77 133.032 216.77 131.288C216.77 129.544 217.346 128.112 218.498 126.992C219.666 125.872 221.13 125.312 222.89 125.312C224.65 125.312 226.114 125.872 227.282 126.992C228.45 128.112 229.034 129.544 229.034 131.288C229.034 133.032 228.442 134.472 227.258 135.608ZM220.106 134.216C220.794 135.016 221.722 135.416 222.89 135.416C224.058 135.416 224.978 135.016 225.65 134.216C226.338 133.4 226.682 132.424 226.682 131.288C226.682 130.152 226.338 129.184 225.65 128.384C224.978 127.584 224.058 127.184 222.89 127.184C221.722 127.184 220.794 127.584 220.106 128.384C219.434 129.184 219.098 130.152 219.098 131.288C219.098 132.424 219.434 133.4 220.106 134.216ZM238.283 137V120.008H251.555V137H249.179V122.096H240.659V137H238.283ZM255.553 137V125.624H265.633V137H263.377V127.472H257.809V137H255.553ZM275.642 137V120.008H280.826C282.73 120.008 284.218 120.4 285.29 121.184C286.362 121.952 286.898 123.136 286.898 124.736C286.898 126.368 286.33 127.576 285.194 128.36C284.074 129.144 282.578 129.536 280.706 129.536H278.018V137H275.642ZM278.018 127.52H280.538C283.178 127.52 284.498 126.592 284.498 124.736C284.498 122.928 283.194 122.024 280.586 122.024H278.018V127.52ZM289.796 142.76V125.624H292.004V127.4H292.076C292.46 126.776 293.012 126.272 293.732 125.888C294.452 125.504 295.268 125.312 296.18 125.312C297.844 125.312 299.204 125.888 300.26 127.04C301.332 128.176 301.868 129.592 301.868 131.288C301.868 133 301.34 134.432 300.284 135.584C299.228 136.736 297.844 137.312 296.132 137.312C295.316 137.312 294.548 137.136 293.828 136.784C293.108 136.416 292.54 135.92 292.124 135.296H292.052V142.76H289.796ZM295.748 135.416C296.932 135.416 297.86 135.016 298.532 134.216C299.204 133.4 299.54 132.424 299.54 131.288C299.54 130.152 299.204 129.184 298.532 128.384C297.86 127.584 296.932 127.184 295.748 127.184C294.628 127.184 293.708 127.592 292.988 128.408C292.268 129.224 291.908 130.192 291.908 131.312C291.908 132.432 292.268 133.4 292.988 134.216C293.708 135.016 294.628 135.416 295.748 135.416ZM319.215 137.432C316.607 137.432 314.463 136.592 312.783 134.912C311.103 133.232 310.263 131.088 310.263 128.48C310.263 125.856 311.119 123.72 312.831 122.072C314.543 120.408 316.703 119.576 319.311 119.576C320.527 119.576 321.695 119.808 322.815 120.272C323.935 120.736 324.799 121.384 325.407 122.216L323.535 123.656C323.119 123.064 322.527 122.584 321.759 122.216C320.991 121.848 320.175 121.664 319.311 121.664C317.391 121.664 315.831 122.32 314.631 123.632C313.447 124.944 312.855 126.56 312.855 128.48C312.855 130.432 313.439 132.064 314.607 133.376C315.775 134.672 317.319 135.32 319.239 135.32C321.239 135.32 322.759 134.568 323.799 133.064L325.695 134.36C324.191 136.408 322.031 137.432 319.215 137.432ZM333.375 137.312C331.599 137.312 330.135 136.76 328.983 135.656C327.831 134.552 327.255 133.104 327.255 131.312C327.255 129.536 327.823 128.096 328.959 126.992C330.111 125.872 331.567 125.312 333.327 125.312C334.159 125.312 334.967 125.48 335.751 125.816C336.535 126.136 337.151 126.592 337.599 127.184L335.967 128.504C335.727 128.12 335.359 127.808 334.863 127.568C334.383 127.328 333.879 127.208 333.351 127.208C332.215 127.208 331.311 127.608 330.639 128.408C329.967 129.208 329.631 130.176 329.631 131.312C329.631 132.448 329.967 133.416 330.639 134.216C331.327 135.016 332.239 135.416 333.375 135.416C334.543 135.416 335.455 135 336.111 134.168L337.623 135.536C336.599 136.72 335.183 137.312 333.375 137.312ZM349.554 137V122.096H344.106V120.008H357.378V122.096H351.93V137H349.554ZM361.922 137V127.472H358.058V125.624H368.042V127.472H364.178V137H361.922ZM4.288 168.216C3.616 168.216 3 168.16 2.44 168.048L2.776 165.888C3.16 166.016 3.6 166.08 4.096 166.08C4.688 166.08 5.168 165.928 5.536 165.624C5.904 165.32 6.272 164.824 6.64 164.136L7.48 162.6L0.904 151.008H3.664L8.8 160.32L13.744 151.008H16.384L8.896 164.688C8.24 165.888 7.584 166.776 6.928 167.352C6.272 167.928 5.392 168.216 4.288 168.216ZM18.6813 173.76C18.1533 173.76 17.6573 173.704 17.1933 173.592L17.4093 171.6C17.7933 171.728 18.1693 171.792 18.5373 171.792C19.0813 171.792 19.5053 171.64 19.8092 171.336C20.1133 171.048 20.3933 170.568 20.6493 169.896L21.3693 168L16.4973 156.624H19.0173L22.5453 165.552H22.5933L25.7373 156.624H28.1373L22.6172 170.688C22.2173 171.728 21.7213 172.496 21.1293 172.992C20.5533 173.504 19.7373 173.76 18.6813 173.76ZM43.399 168.432V166.392C41.047 166.36 39.135 165.688 37.663 164.376C36.191 163.048 35.455 161.336 35.455 159.24C35.455 157.048 36.175 155.328 37.615 154.08C39.071 152.832 40.999 152.176 43.399 152.112V150.576H45.823V152.112C48.239 152.176 50.167 152.832 51.607 154.08C53.063 155.328 53.791 157.048 53.791 159.24C53.791 161.336 53.055 163.048 51.583 164.376C50.111 165.688 48.191 166.36 45.823 166.392V168.432H43.399ZM43.399 164.304V154.176C41.655 154.272 40.319 154.784 39.391 155.712C38.463 156.624 37.999 157.808 37.999 159.264C37.999 160.752 38.455 161.936 39.367 162.816C40.279 163.68 41.623 164.176 43.399 164.304ZM45.823 164.304C47.615 164.176 48.967 163.68 49.879 162.816C50.791 161.936 51.247 160.752 51.247 159.264C51.247 157.808 50.783 156.624 49.855 155.712C48.927 154.784 47.583 154.272 45.823 154.176V164.304ZM62.6354 173.76V168.36C60.5714 168.344 58.9474 167.8 57.7634 166.728C56.5954 165.64 56.0114 164.184 56.0114 162.36C56.0114 160.52 56.5954 159.072 57.7634 158.016C58.9474 156.944 60.5714 156.4 62.6354 156.384V149.856H64.8914V156.384C66.9554 156.4 68.5794 156.944 69.7634 158.016C70.9474 159.072 71.5394 160.52 71.5394 162.36C71.5394 164.184 70.9474 165.64 69.7634 166.728C68.5794 167.8 66.9554 168.344 64.8914 168.36V173.76H62.6354ZM62.6354 166.488V158.256C61.2594 158.272 60.2034 158.64 59.4674 159.36C58.7314 160.08 58.3634 161.072 58.3634 162.336C58.3634 163.632 58.7314 164.648 59.4674 165.384C60.2034 166.104 61.2594 166.472 62.6354 166.488ZM64.8914 166.488C66.2834 166.472 67.3474 166.104 68.0834 165.384C68.8194 164.648 69.1874 163.632 69.1874 162.336C69.1874 161.072 68.8114 160.08 68.0594 159.36C67.3234 158.64 66.2674 158.272 64.8914 158.256V166.488ZM79.1273 168L85.1993 159L79.7273 151.008H82.6313L86.7113 157.344L90.7433 151.008H93.5273L88.1033 159.048L94.2713 168H91.2713L86.6153 160.848L82.0553 168H79.1273ZM94.8946 168L99.4546 162.024L95.3026 156.624H98.0866L100.871 160.536L103.679 156.624H106.319L102.215 162L106.799 168H103.991L100.823 163.56L97.6066 168H94.8946ZM128.056 172.032V168H115.048V151.008H117.424V165.888H125.944V151.008H128.32V165.888H130.216V172.032H128.056ZM142.746 171.48V168H132.882V156.624H135.138V166.104H140.706V156.624H142.962V166.104H144.69V171.48H142.746ZM12.16 199V192.136C10.928 192.488 9.632 192.664 8.272 192.664C6.384 192.664 4.984 192.288 4.072 191.536C3.176 190.768 2.728 189.584 2.728 187.984V182.008H5.104V187.552C5.104 189.584 6.248 190.6 8.536 190.6C10.136 190.6 11.344 190.432 12.16 190.096V182.008H14.536V199H12.16ZM25.2014 199V194.56C24.2734 194.816 23.2174 194.944 22.0334 194.944C19.4414 194.944 18.1454 193.744 18.1454 191.344V187.624H20.3534V190.84C20.3534 191.72 20.5454 192.32 20.9294 192.64C21.3134 192.96 21.9054 193.12 22.7054 193.12C23.5054 193.12 24.3374 193 25.2014 192.76V187.624H27.4574V199H25.2014ZM37.4703 199V182.008H39.8463V196.888H46.9503V182.008H49.3263V196.888H56.4303V182.008H58.8063V199H37.4703ZM62.8034 199V187.624H65.0594V197.104H69.9314V187.624H72.1874V197.104H77.0354V187.624H79.2914V199H62.8034ZM110.433 203.032V199H89.3609V182.008H91.7369V196.888H98.8409V182.008H101.217V196.888H108.321V182.008H110.697V196.888H112.593V203.032H110.433ZM131.529 202.456V199H115.257V187.624H117.513V197.104H122.385V187.624H124.641V197.104H129.489V187.624H131.745V197.104H133.497V202.456H131.529ZM144.516 199V184.096H140.388V182.008H146.892V189.064H149.652C151.556 189.064 153.076 189.48 154.212 190.312C155.348 191.144 155.916 192.384 155.916 194.032C155.916 195.664 155.348 196.904 154.212 197.752C153.092 198.584 151.588 199 149.7 199H144.516ZM146.892 196.984H149.46C152.164 196.984 153.516 196.008 153.516 194.056C153.516 193.096 153.164 192.36 152.46 191.848C151.756 191.336 150.756 191.08 149.46 191.08H146.892V196.984ZM160.579 199V189.472H157.363V187.624H162.835V191.752H165.451C166.859 191.752 167.963 192.064 168.763 192.688C169.579 193.296 169.987 194.192 169.987 195.376C169.987 196.544 169.579 197.44 168.763 198.064C167.963 198.688 166.859 199 165.451 199H160.579ZM162.835 197.2H165.163C166.859 197.2 167.707 196.6 167.707 195.4C167.707 194.152 166.859 193.528 165.163 193.528H162.835V197.2ZM179.009 199V182.008H181.385V189.064H184.121C186.025 189.064 187.545 189.48 188.681 190.312C189.817 191.144 190.385 192.384 190.385 194.032C190.385 195.664 189.817 196.904 188.681 197.752C187.561 198.584 186.057 199 184.169 199H179.009ZM181.385 196.984H183.929C186.633 196.984 187.985 196.008 187.985 194.056C187.985 193.096 187.633 192.36 186.929 191.848C186.225 191.336 185.225 191.08 183.929 191.08H181.385V196.984ZM192.857 199V182.008H195.233V199H192.857ZM199.233 199V187.624H201.489V191.752H204.081C205.489 191.752 206.593 192.064 207.393 192.688C208.209 193.296 208.617 194.192 208.617 195.376C208.617 196.544 208.217 197.44 207.417 198.064C206.617 198.688 205.513 199 204.105 199H199.233ZM201.489 197.2H203.817C205.497 197.2 206.337 196.6 206.337 195.4C206.337 194.152 205.497 193.528 203.817 193.528H201.489V197.2ZM210.753 199V187.624H213.009V199H210.753ZM223.025 199V182.008H225.401V189.064H228.137C230.041 189.064 231.561 189.48 232.697 190.312C233.833 191.144 234.401 192.384 234.401 194.032C234.401 195.664 233.833 196.904 232.697 197.752C231.577 198.584 230.073 199 228.185 199H223.025ZM225.401 196.984H227.945C230.649 196.984 232.001 196.008 232.001 194.056C232.001 193.096 231.649 192.36 230.945 191.848C230.241 191.336 229.241 191.08 227.945 191.08H225.401V196.984ZM237.296 199V187.624H239.552V191.752H242.144C243.552 191.752 244.656 192.064 245.456 192.688C246.272 193.296 246.68 194.192 246.68 195.376C246.68 196.544 246.28 197.44 245.48 198.064C244.68 198.688 243.576 199 242.168 199H237.296ZM239.552 197.2H241.88C243.56 197.2 244.4 196.6 244.4 195.4C244.4 194.152 243.56 193.528 241.88 193.528H239.552V197.2ZM260.38 199.432C258.924 199.432 257.628 199.152 256.492 198.592C255.372 198.032 254.5 197.288 253.876 196.36L255.676 195.064C256.748 196.568 258.316 197.32 260.38 197.32C262.188 197.32 263.668 196.736 264.82 195.568C265.988 194.4 266.612 192.952 266.692 191.224H258.748V189.184H266.644C266.42 187.6 265.74 186.288 264.604 185.248C263.468 184.192 262.06 183.664 260.38 183.664C259.388 183.664 258.492 183.856 257.692 184.24C256.908 184.624 256.324 185.096 255.94 185.656L254.188 184.168C254.796 183.368 255.66 182.736 256.78 182.272C257.9 181.808 259.1 181.576 260.38 181.576C262.924 181.576 265.044 182.416 266.74 184.096C268.452 185.776 269.308 187.912 269.308 190.504C269.308 193.096 268.46 195.232 266.764 196.912C265.084 198.592 262.956 199.432 260.38 199.432ZM275.188 199.312C273.3 199.312 271.836 198.712 270.796 197.512L272.212 196.144C272.964 197.008 273.94 197.44 275.14 197.44C276.212 197.44 277.084 197.128 277.756 196.504C278.444 195.88 278.844 195.048 278.956 194.008H273.988V192.16H278.884C278.756 191.312 278.348 190.6 277.66 190.024C276.988 189.448 276.204 189.16 275.308 189.16C274.044 189.16 273.044 189.592 272.308 190.456C272.132 190.28 271.876 190.032 271.54 189.712C271.204 189.392 270.98 189.176 270.868 189.064C271.332 188.52 271.956 188.096 272.74 187.792C273.524 187.472 274.348 187.312 275.212 187.312C277.036 187.312 278.508 187.872 279.628 188.992C280.748 190.096 281.308 191.544 281.308 193.336C281.308 195.128 280.748 196.576 279.628 197.68C278.508 198.768 277.028 199.312 275.188 199.312ZM304.66 199.456C302.292 199.456 300.34 198.688 298.804 197.152C297.284 195.616 296.452 193.64 296.308 191.224H292.948V199H290.572V182.008H292.948V189.112H296.356C296.612 186.904 297.5 185.096 299.02 183.688C300.54 182.28 302.42 181.576 304.66 181.576C307.124 181.576 309.132 182.424 310.684 184.12C312.252 185.816 313.036 187.944 313.036 190.504C313.036 193.048 312.252 195.176 310.684 196.888C309.132 198.6 307.124 199.456 304.66 199.456ZM304.66 197.296C306.436 197.296 307.844 196.632 308.884 195.304C309.94 193.976 310.468 192.376 310.468 190.504C310.468 188.616 309.94 187.008 308.884 185.68C307.844 184.352 306.436 183.688 304.66 183.688C302.868 183.688 301.444 184.352 300.388 185.68C299.348 187.008 298.828 188.616 298.828 190.504C298.828 192.392 299.348 194 300.388 195.328C301.444 196.64 302.868 197.296 304.66 197.296ZM326.626 199.336C325.042 199.336 323.706 198.84 322.618 197.848C321.53 196.856 320.906 195.568 320.746 193.984H318.442V199H316.186V187.624H318.442V192.136H320.794C321.034 190.696 321.69 189.536 322.762 188.656C323.834 187.76 325.122 187.312 326.626 187.312C328.338 187.312 329.754 187.88 330.874 189.016C332.01 190.136 332.578 191.568 332.578 193.312C332.578 195.072 332.01 196.52 330.874 197.656C329.754 198.776 328.338 199.336 326.626 199.336ZM326.626 197.416C327.73 197.416 328.61 197.032 329.266 196.264C329.922 195.48 330.25 194.496 330.25 193.312C330.25 192.128 329.922 191.152 329.266 190.384C328.61 189.6 327.73 189.208 326.626 189.208C325.522 189.208 324.642 189.6 323.986 190.384C323.33 191.152 323.002 192.128 323.002 193.312C323.002 194.496 323.33 195.48 323.986 196.264C324.658 197.032 325.538 197.416 326.626 197.416ZM340.485 199L345.069 191.656C343.805 191.368 342.821 190.824 342.117 190.024C341.429 189.224 341.085 188.192 341.085 186.928C341.085 185.28 341.637 184.048 342.741 183.232C343.845 182.416 345.373 182.008 347.325 182.008H352.485V199H350.109V191.92H347.541L343.365 199H340.485ZM347.565 189.952H350.109V184.024H347.517C344.813 184.024 343.461 185 343.461 186.952C343.461 187.928 343.821 188.672 344.541 189.184C345.261 189.696 346.269 189.952 347.565 189.952ZM355.707 199L358.659 194.536C356.883 194.088 355.995 192.976 355.995 191.2C355.995 190.032 356.395 189.144 357.195 188.536C358.011 187.928 359.091 187.624 360.435 187.624H365.739V199H363.483V194.752H361.059L358.467 199H355.707ZM360.819 193H363.483V189.4H360.819C359.075 189.4 358.203 190 358.203 191.2C358.203 192.4 359.075 193 360.819 193Z" fill="#191919"/>
<path d="M1.24 384L8.584 367.008H10.264L17.56 384H15.64L13.768 379.536H4.984L3.136 384H1.24ZM5.632 377.952H13.12L9.376 368.928L5.632 377.952ZM23.0127 384.288C22.0047 384.288 21.1007 384.008 20.3007 383.448C19.5167 382.872 19.1247 382.016 19.1247 380.88C19.1247 380.32 19.2207 379.832 19.4127 379.416C19.6047 378.984 19.8927 378.632 20.2767 378.36C20.6607 378.088 21.0767 377.872 21.5247 377.712C21.9727 377.536 22.5247 377.408 23.1807 377.328C23.8367 377.232 24.4447 377.176 25.0047 377.16C25.5807 377.128 26.2607 377.112 27.0447 377.112V376.752C27.0447 374.816 26.0447 373.848 24.0447 373.848C22.7007 373.848 21.5887 374.288 20.7087 375.168L19.7967 374.088C20.8687 373.016 22.3407 372.48 24.2127 372.48C25.4927 372.48 26.5407 372.832 27.3567 373.536C28.1727 374.24 28.5807 375.248 28.5807 376.56V381.48C28.5807 382.488 28.6447 383.328 28.7727 384H27.3087C27.1967 383.36 27.1407 382.752 27.1407 382.176H27.0927C26.1167 383.584 24.7567 384.288 23.0127 384.288ZM23.4447 382.944C24.5487 382.944 25.4207 382.584 26.0607 381.864C26.7167 381.144 27.0447 380.264 27.0447 379.224V378.384H26.5647C25.7967 378.384 25.1087 378.416 24.5007 378.48C23.9087 378.528 23.3087 378.632 22.7007 378.792C22.1087 378.952 21.6447 379.2 21.3087 379.536C20.9727 379.872 20.8047 380.296 20.8047 380.808C20.8047 381.544 21.0607 382.088 21.5727 382.44C22.0847 382.776 22.7087 382.944 23.4447 382.944ZM38.881 384V367.008H48.985V368.544H40.609V374.376H43.993C45.865 374.376 47.353 374.792 48.457 375.624C49.561 376.44 50.113 377.632 50.113 379.2C50.113 380.768 49.569 381.96 48.481 382.776C47.409 383.592 45.929 384 44.041 384H38.881ZM40.609 382.512H43.849C46.857 382.512 48.361 381.416 48.361 379.224C48.361 378.136 47.969 377.304 47.185 376.728C46.417 376.152 45.305 375.864 43.849 375.864H40.609V382.512ZM59.2542 384.288C57.0142 384.288 55.3822 383.504 54.3582 381.936C53.6542 380.864 53.3022 379.096 53.3022 376.632C53.3022 375.128 53.3582 373.888 53.4702 372.912C53.5982 371.92 53.8302 370.976 54.1662 370.08C54.5182 369.184 55.0462 368.496 55.7502 368.016C56.4542 367.52 57.3502 367.208 58.4382 367.08L61.8462 366.672C62.4222 366.608 62.8702 366.496 63.1902 366.336C63.5262 366.176 63.7502 365.92 63.8622 365.568L65.0382 365.928C64.8622 366.568 64.5662 367.048 64.1502 367.368C63.7502 367.672 63.1502 367.88 62.3502 367.992L59.1582 368.4C57.4942 368.608 56.3342 369.184 55.6782 370.128C55.0222 371.056 54.6782 372.792 54.6462 375.336H54.7182C55.6622 373.432 57.3102 372.48 59.6622 372.48C61.3102 372.48 62.6542 373.04 63.6942 374.16C64.7342 375.264 65.2542 376.672 65.2542 378.384C65.2542 380.08 64.6862 381.488 63.5502 382.608C62.4302 383.728 60.9982 384.288 59.2542 384.288ZM59.2542 382.896C60.5342 382.896 61.5662 382.472 62.3502 381.624C63.1342 380.76 63.5262 379.68 63.5262 378.384C63.5262 377.088 63.1342 376.008 62.3502 375.144C61.5662 374.28 60.5342 373.848 59.2542 373.848C57.9902 373.848 56.9662 374.28 56.1822 375.144C55.3982 376.008 55.0062 377.088 55.0062 378.384C55.0062 379.664 55.3982 380.736 56.1822 381.6C56.9662 382.464 57.9902 382.896 59.2542 382.896ZM74.8576 384V367.008H79.9216C80.6256 367.008 81.2816 367.08 81.8896 367.224C82.4976 367.352 83.0736 367.576 83.6176 367.896C84.1616 368.2 84.5936 368.648 84.9136 369.24C85.2336 369.832 85.3936 370.536 85.3936 371.352C85.3936 372.248 85.1136 373.032 84.5536 373.704C84.0096 374.36 83.2896 374.792 82.3936 375V375.048C83.5296 375.176 84.4496 375.616 85.1536 376.368C85.8736 377.12 86.2336 378.096 86.2336 379.296C86.2336 380.72 85.6656 381.864 84.5296 382.728C83.3936 383.576 81.8496 384 79.8976 384H74.8576ZM76.5856 382.512H79.8016C81.1616 382.512 82.2816 382.24 83.1616 381.696C84.0416 381.152 84.4816 380.32 84.4816 379.2C84.4816 378.096 84.1056 377.264 83.3536 376.704C82.6016 376.144 81.5216 375.864 80.1136 375.864H76.5856V382.512ZM76.5856 374.448H80.0656C81.0416 374.448 81.8816 374.208 82.5856 373.728C83.3056 373.248 83.6656 372.496 83.6656 371.472C83.6656 370.448 83.2896 369.696 82.5376 369.216C81.7856 368.736 80.8016 368.496 79.5856 368.496H76.5856V374.448ZM90.0194 384V372.768H95.2754C96.2994 372.768 97.1554 372.992 97.8434 373.44C98.5474 373.888 98.8994 374.624 98.8994 375.648C98.8994 376.24 98.7154 376.76 98.3474 377.208C97.9954 377.64 97.5234 377.92 96.9314 378.048V378.072C97.6834 378.152 98.2914 378.44 98.7554 378.936C99.2194 379.432 99.4514 380.08 99.4514 380.88C99.4514 381.824 99.0754 382.584 98.3234 383.16C97.5714 383.72 96.5554 384 95.2754 384H90.0194ZM91.6514 382.608H95.0834C95.8674 382.608 96.5074 382.456 97.0034 382.152C97.5154 381.848 97.7714 381.376 97.7714 380.736C97.7714 379.472 96.9394 378.84 95.2754 378.84H91.6514V382.608ZM91.6514 377.496H95.2274C95.7874 377.496 96.2674 377.36 96.6674 377.088C97.0834 376.816 97.2914 376.392 97.2914 375.816C97.2914 374.68 96.5074 374.112 94.9394 374.112H91.6514V377.496ZM109.053 384V367.008H118.701V368.544H110.781V384H109.053ZM121.144 384V372.768H128.584V374.136H122.776V384H121.144ZM135.447 388.176V382.464H136.815C138.799 380.4 139.791 376.784 139.791 371.616V367.008H150.231V382.464H152.151V388.176H150.519V384H137.079V388.176H135.447ZM138.999 382.464H148.503V368.544H141.471V371.616C141.471 376.624 140.647 380.24 138.999 382.464ZM153.639 387.648V382.584H154.935C156.135 381.048 156.735 378.768 156.735 375.744V372.768H164.895V382.584H166.695V387.648H165.182V384H155.151V387.648H153.639ZM156.783 382.584H163.287V374.136H158.319V376.2C158.319 378.616 157.807 380.744 156.783 382.584ZM175.779 384V367.008H186.315V368.544H177.507V374.4H185.739V375.912H177.507V382.464H186.603V384H175.779ZM194.879 384.288C193.215 384.288 191.831 383.728 190.727 382.608C189.623 381.488 189.071 380.08 189.071 378.384C189.071 376.704 189.615 375.304 190.703 374.184C191.791 373.048 193.135 372.48 194.735 372.48C196.431 372.48 197.751 373.008 198.695 374.064C199.639 375.104 200.111 376.432 200.111 378.048C200.111 378.368 200.103 378.624 200.087 378.816H190.775C190.807 379.952 191.215 380.92 191.999 381.72C192.783 382.504 193.743 382.896 194.879 382.896C195.663 382.896 196.375 382.712 197.015 382.344C197.655 381.96 198.143 381.496 198.479 380.952L199.703 381.912C198.455 383.496 196.847 384.288 194.879 384.288ZM190.799 377.52H198.455C198.407 376.432 198.055 375.552 197.399 374.88C196.759 374.192 195.871 373.848 194.735 373.848C193.679 373.848 192.775 374.216 192.023 374.952C191.287 375.672 190.879 376.528 190.799 377.52ZM209.717 384V367.008H220.253V368.544H211.445V374.4H219.677V375.912H211.445V382.464H220.541V384H209.717ZM211.853 364.536C211.629 364.28 211.517 363.992 211.517 363.672C211.517 363.352 211.629 363.072 211.853 362.832C212.093 362.576 212.389 362.448 212.741 362.448C213.093 362.448 213.381 362.576 213.605 362.832C213.845 363.072 213.965 363.352 213.965 363.672C213.965 363.992 213.845 364.28 213.605 364.536C213.381 364.776 213.093 364.896 212.741 364.896C212.389 364.896 212.093 364.776 211.853 364.536ZM216.461 364.536C216.237 364.28 216.125 363.992 216.125 363.672C216.125 363.352 216.237 363.072 216.461 362.832C216.701 362.576 216.997 362.448 217.349 362.448C217.701 362.448 217.989 362.576 218.213 362.832C218.453 363.072 218.573 363.352 218.573 363.672C218.573 363.992 218.453 364.28 218.213 364.536C217.989 364.776 217.701 364.896 217.349 364.896C216.997 364.896 216.701 364.776 216.461 364.536ZM228.816 384.288C227.152 384.288 225.768 383.728 224.664 382.608C223.56 381.488 223.008 380.08 223.008 378.384C223.008 376.704 223.552 375.304 224.64 374.184C225.728 373.048 227.072 372.48 228.672 372.48C230.368 372.48 231.688 373.008 232.632 374.064C233.576 375.104 234.048 376.432 234.048 378.048C234.048 378.368 234.04 378.624 234.024 378.816H224.712C224.744 379.952 225.152 380.92 225.936 381.72C226.72 382.504 227.68 382.896 228.816 382.896C229.6 382.896 230.312 382.712 230.952 382.344C231.592 381.96 232.08 381.496 232.416 380.952L233.64 381.912C232.392 383.496 230.784 384.288 228.816 384.288ZM224.736 377.52H232.392C232.344 376.432 231.992 375.552 231.336 374.88C230.696 374.192 229.808 373.848 228.672 373.848C227.616 373.848 226.712 374.216 225.96 374.952C225.224 375.672 224.816 376.528 224.736 377.52ZM225.648 369.336C225.424 369.08 225.312 368.792 225.312 368.472C225.312 368.152 225.424 367.872 225.648 367.632C225.888 367.376 226.184 367.248 226.536 367.248C226.888 367.248 227.176 367.376 227.4 367.632C227.64 367.872 227.76 368.152 227.76 368.472C227.76 368.792 227.64 369.08 227.4 369.336C227.176 369.576 226.888 369.696 226.536 369.696C226.184 369.696 225.888 369.576 225.648 369.336ZM230.256 369.336C230.032 369.08 229.92 368.792 229.92 368.472C229.92 368.152 230.032 367.872 230.256 367.632C230.496 367.376 230.792 367.248 231.144 367.248C231.496 367.248 231.784 367.376 232.008 367.632C232.248 367.872 232.368 368.152 232.368 368.472C232.368 368.792 232.248 369.08 232.008 369.336C231.784 369.576 231.496 369.696 231.144 369.696C230.792 369.696 230.496 369.576 230.256 369.336ZM241.422 384L250.158 374.712L241.902 367.008H244.374L252.15 374.64H252.174V367.008H253.902V374.64H253.926L261.702 367.008H264.174L255.918 374.712L264.654 384H262.11L253.926 374.952H253.902V384H252.174V374.952H252.15L243.966 384H241.422ZM264.888 384L270.768 378.144L265.464 372.768H267.816L272.712 378.072H272.784V372.768H274.416V378.072H274.488L279.384 372.768H281.736L276.432 378.144L282.312 384H279.912L274.488 378.336H274.416V384H272.784V378.336H272.712L267.288 384H264.888ZM294.915 384.432C293.795 384.432 292.731 384.216 291.723 383.784C290.715 383.352 289.891 382.728 289.251 381.912L290.739 380.808C291.139 381.432 291.707 381.944 292.443 382.344C293.195 382.744 294.027 382.944 294.939 382.944C296.043 382.944 297.011 382.608 297.843 381.936C298.691 381.264 299.115 380.384 299.115 379.296C299.115 378.112 298.659 377.248 297.747 376.704C296.835 376.144 295.715 375.864 294.387 375.864H293.403V374.376H294.387C295.651 374.376 296.667 374.112 297.435 373.584C298.203 373.056 298.587 372.224 298.587 371.088C298.587 370.24 298.219 369.52 297.483 368.928C296.747 368.336 295.891 368.04 294.915 368.04C293.283 368.04 292.059 368.608 291.243 369.744L289.923 368.664C290.371 368.056 291.019 367.56 291.867 367.176C292.715 366.776 293.707 366.576 294.843 366.576C296.475 366.576 297.779 366.976 298.755 367.776C299.731 368.576 300.219 369.704 300.219 371.16C300.219 372.136 299.931 372.968 299.355 373.656C298.795 374.344 298.059 374.808 297.147 375.048V375.096C298.219 375.304 299.107 375.784 299.811 376.536C300.515 377.288 300.867 378.208 300.867 379.296C300.867 380.864 300.291 382.112 299.139 383.04C297.987 383.968 296.579 384.432 294.915 384.432ZM308.02 384.288C305.828 384.288 304.228 383.552 303.22 382.08L304.564 381.12C304.852 381.632 305.316 382.056 305.956 382.392C306.596 382.728 307.276 382.896 307.996 382.896C308.764 382.896 309.412 382.736 309.94 382.416C310.484 382.08 310.756 381.544 310.756 380.808C310.756 380.136 310.428 379.64 309.772 379.32C309.132 378.984 308.348 378.816 307.42 378.816H306.652V377.52H307.372C308.268 377.52 308.988 377.36 309.532 377.04C310.092 376.72 310.372 376.216 310.372 375.528C310.372 374.408 309.5 373.848 307.756 373.848C307.18 373.848 306.628 373.992 306.1 374.28C305.572 374.568 305.164 374.944 304.876 375.408L303.604 374.496C303.972 373.872 304.532 373.384 305.284 373.032C306.036 372.664 306.876 372.48 307.804 372.48C309.036 372.48 310.044 372.752 310.828 373.296C311.612 373.824 312.004 374.56 312.004 375.504C312.004 376.128 311.78 376.68 311.332 377.16C310.9 377.624 310.34 377.928 309.652 378.072V378.12C310.468 378.248 311.124 378.56 311.62 379.056C312.132 379.552 312.388 380.16 312.388 380.88C312.388 381.936 311.98 382.768 311.164 383.376C310.364 383.984 309.316 384.288 308.02 384.288ZM321.983 384V367.008H323.711V381.312H323.759L333.119 367.008H335.063V384H333.335V369.552H333.287L323.927 384H321.983ZM339.488 384V372.768H341.12V381.744H341.144L347.792 372.768H349.568V384H347.96V374.928H347.912L341.264 384H339.488ZM3.256 415V398.008H4.984V412.312H5.032L14.392 398.008H16.336V415H14.608V400.552H14.56L5.2 415H3.256ZM12.184 395.56C11.56 396.104 10.76 396.376 9.784 396.376C8.808 396.376 8 396.104 7.36 395.56C6.736 395 6.376 394.248 6.28 393.304L7.384 393.088C7.496 393.696 7.768 394.184 8.2 394.552C8.648 394.904 9.176 395.08 9.784 395.08C10.392 395.08 10.912 394.904 11.344 394.552C11.792 394.184 12.072 393.696 12.184 393.088L13.288 393.304C13.192 394.248 12.824 395 12.184 395.56ZM20.7616 415V403.768H22.3936V412.744H22.4176L29.0656 403.768H30.8416V415H29.2336V405.928H29.1856L22.5376 415H20.7616ZM28.1056 400.36C27.4816 400.904 26.6816 401.176 25.7056 401.176C24.7296 401.176 23.9216 400.904 23.2816 400.36C22.6576 399.8 22.2976 399.048 22.2016 398.104L23.3056 397.888C23.4176 398.496 23.6896 398.984 24.1216 399.352C24.5696 399.704 25.0976 399.88 25.7056 399.88C26.3136 399.88 26.8336 399.704 27.2656 399.352C27.7136 398.984 27.9936 398.496 28.1056 397.888L29.2096 398.104C29.1136 399.048 28.7456 399.8 28.1056 400.36ZM41.2482 415V398.008H42.9762V405.64H43.0002L51.0882 398.008H53.5602L44.9922 405.712L54.0402 415H51.4962L43.0002 405.952H42.9762V415H41.2482ZM56.2705 415V403.768H57.9025V409.072H57.9745L63.1585 403.768H65.5105L59.8465 409.144L66.0865 415H63.6865L57.9745 409.336H57.9025V415H56.2705ZM73.9529 415.168C73.3769 415.168 72.8329 415.096 72.3209 414.952L72.6329 413.392C73.0489 413.52 73.3929 413.584 73.6649 413.584C74.6409 413.584 75.4089 413.2 75.9689 412.432C76.5449 411.664 76.9609 410.424 77.2169 408.712C77.4889 406.984 77.6249 404.64 77.6249 401.68V398.008H87.8009V415H86.0729V399.52H79.3049V402.544C79.3049 406.88 78.9049 410.072 78.1049 412.12C77.3049 414.152 75.9209 415.168 73.9529 415.168ZM91.5025 415.12C91.0385 415.12 90.6305 415.072 90.2785 414.976L90.4705 413.56C90.7105 413.64 90.9665 413.68 91.2385 413.68C92.1185 413.68 92.7665 413.216 93.1825 412.288C93.6145 411.344 93.8305 409.768 93.8305 407.56V403.768H101.871V415H100.239V405.136H95.4145V408.136C95.4145 410.392 95.1105 412.12 94.5025 413.32C93.9105 414.52 92.9105 415.12 91.5025 415.12ZM112.287 415V398.008H114.927L120.687 412.072H120.711L126.399 398.008H129.039V415H127.311V400.24H127.263L121.119 415H120.207L114.063 400.24H114.015V415H112.287ZM133.449 415V403.768H135.801L139.953 412.576H139.977L144.105 403.768H146.457V415H144.825V405.712H144.777L140.361 415H139.521L135.105 405.712H135.081V415H133.449ZM156.865 415V398.008H158.593V405.376H167.857V398.008H169.585V415H167.857V406.96H158.593V415H156.865ZM173.996 415V403.768H175.628V408.472H182.084V403.768H183.716V415H182.084V409.84H175.628V415H173.996ZM208.411 412.912C206.731 414.592 204.619 415.432 202.075 415.432C199.531 415.432 197.419 414.592 195.739 412.912C194.059 411.216 193.219 409.08 193.219 406.504C193.219 403.928 194.059 401.8 195.739 400.12C197.419 398.424 199.531 397.576 202.075 397.576C204.619 397.576 206.731 398.424 208.411 400.12C210.091 401.8 210.931 403.928 210.931 406.504C210.931 409.08 210.091 411.216 208.411 412.912ZM196.963 411.76C198.259 413.184 199.963 413.896 202.075 413.896C204.187 413.896 205.883 413.184 207.163 411.76C208.459 410.32 209.107 408.568 209.107 406.504C209.107 404.44 208.459 402.688 207.163 401.248C205.883 399.808 204.187 399.088 202.075 399.088C199.963 399.088 198.259 399.808 196.963 401.248C195.683 402.688 195.043 404.44 195.043 406.504C195.043 408.568 195.683 410.32 196.963 411.76ZM219.586 415.288C217.858 415.288 216.426 414.728 215.29 413.608C214.17 412.488 213.61 411.08 213.61 409.384C213.61 407.688 214.17 406.28 215.29 405.16C216.426 404.04 217.858 403.48 219.586 403.48C221.33 403.48 222.762 404.04 223.882 405.16C225.018 406.28 225.586 407.688 225.586 409.384C225.586 411.08 225.018 412.488 223.882 413.608C222.762 414.728 221.33 415.288 219.586 415.288ZM219.586 413.896C220.866 413.896 221.898 413.472 222.682 412.624C223.466 411.76 223.858 410.68 223.858 409.384C223.858 408.088 223.466 407.008 222.682 406.144C221.898 405.28 220.866 404.848 219.586 404.848C218.322 404.848 217.298 405.28 216.514 406.144C215.73 407.008 215.338 408.088 215.338 409.384C215.338 410.664 215.73 411.736 216.514 412.6C217.298 413.464 218.322 413.896 219.586 413.896ZM235.194 415V398.008H247.914V415H246.186V399.544H236.922V415H235.194ZM252.324 415V403.768H261.876V415H260.244V405.136H253.956V415H252.324ZM272.295 415V398.008H277.095C278.871 398.008 280.271 398.392 281.295 399.16C282.319 399.928 282.831 401.056 282.831 402.544C282.831 404.032 282.311 405.168 281.271 405.952C280.231 406.72 278.823 407.104 277.047 407.104H274.023V415H272.295ZM274.023 405.64H276.951C278.295 405.64 279.319 405.376 280.023 404.848C280.743 404.32 281.103 403.552 281.103 402.544C281.103 400.512 279.719 399.496 276.951 399.496H274.023V405.64ZM286.121 420.76V403.768H287.753V405.712H287.825C288.273 405.008 288.881 404.464 289.649 404.08C290.417 403.68 291.217 403.48 292.049 403.48C293.777 403.48 295.177 404.048 296.249 405.184C297.321 406.304 297.857 407.704 297.857 409.384C297.857 411.064 297.321 412.472 296.249 413.608C295.177 414.728 293.777 415.288 292.049 415.288C291.233 415.288 290.441 415.096 289.673 414.712C288.905 414.328 288.289 413.792 287.825 413.104H287.753V420.76H286.121ZM291.881 413.896C293.193 413.896 294.225 413.472 294.977 412.624C295.745 411.76 296.129 410.68 296.129 409.384C296.129 408.088 295.745 407.008 294.977 406.144C294.225 405.28 293.193 404.848 291.881 404.848C290.633 404.848 289.601 405.28 288.785 406.144C287.969 407.008 287.561 408.088 287.561 409.384C287.561 410.68 287.969 411.76 288.785 412.624C289.601 413.472 290.633 413.896 291.881 413.896ZM315.395 415.432C312.835 415.432 310.715 414.592 309.035 412.912C307.371 411.216 306.539 409.08 306.539 406.504C306.539 403.928 307.379 401.8 309.059 400.12C310.739 398.424 312.851 397.576 315.395 397.576C316.643 397.576 317.811 397.824 318.899 398.32C320.003 398.8 320.851 399.448 321.443 400.264L320.003 401.32C319.603 400.712 318.987 400.192 318.155 399.76C317.339 399.312 316.427 399.088 315.419 399.088C313.291 399.088 311.579 399.808 310.283 401.248C309.003 402.688 308.363 404.44 308.363 406.504C308.363 408.568 309.011 410.32 310.307 411.76C311.603 413.2 313.307 413.92 315.419 413.92C317.627 413.92 319.291 413.08 320.411 411.4L321.755 412.264C321.147 413.192 320.291 413.952 319.187 414.544C318.099 415.136 316.835 415.432 315.395 415.432ZM334.085 413.344C333.029 414.64 331.605 415.288 329.813 415.288C328.021 415.288 326.573 414.736 325.469 413.632C324.365 412.512 323.813 411.096 323.813 409.384C323.813 407.672 324.365 406.264 325.469 405.16C326.573 404.04 328.021 403.48 329.813 403.48C330.613 403.48 331.389 403.648 332.141 403.984C332.909 404.32 333.525 404.8 333.989 405.424L332.717 406.336C332.445 405.904 332.045 405.552 331.517 405.28C331.005 404.992 330.445 404.848 329.837 404.848C328.557 404.848 327.517 405.28 326.717 406.144C325.933 406.992 325.541 408.072 325.541 409.384C325.541 410.68 325.933 411.76 326.717 412.624C327.501 413.472 328.533 413.896 329.813 413.896C331.109 413.896 332.125 413.408 332.861 412.432L334.085 413.344ZM346.445 415V399.544H340.757V398.008H353.861V399.544H348.173V415H346.445ZM358.692 415V405.136H354.636V403.768H364.38V405.136H360.324V415H358.692ZM4.072 446.192C3.528 446.192 3.024 446.144 2.56 446.048L2.824 444.416C3.176 444.544 3.584 444.608 4.048 444.608C4.592 444.608 5.048 444.456 5.416 444.152C5.8 443.848 6.176 443.368 6.544 442.712L7.672 440.624L1.072 429.008H3.088L8.632 438.872L14.032 429.008H15.928L8.032 443.288C7.488 444.248 6.92 444.976 6.328 445.472C5.736 445.952 4.984 446.192 4.072 446.192ZM18.208 451.76C17.712 451.76 17.224 451.712 16.744 451.616L16.912 450.128C17.296 450.256 17.696 450.32 18.112 450.32C18.64 450.32 19.064 450.152 19.384 449.816C19.72 449.496 20.016 449 20.272 448.328L21.184 445.976L16.384 434.768H18.208L22.024 444.248H22.072L25.552 434.768H27.328L21.736 448.904C21.368 449.848 20.912 450.56 20.368 451.04C19.84 451.52 19.12 451.76 18.208 451.76ZM42.9348 446.456V444.416C40.5028 444.384 38.5588 443.704 37.1028 442.376C35.6468 441.048 34.9188 439.336 34.9188 437.24C34.9188 435.096 35.6548 433.384 37.1268 432.104C38.6148 430.824 40.5508 430.152 42.9348 430.088V428.576H44.6628V430.088C47.0468 430.152 48.9748 430.824 50.4468 432.104C51.9348 433.384 52.6788 435.096 52.6788 437.24C52.6788 439.336 51.9508 441.048 50.4948 442.376C49.0388 443.704 47.0948 444.384 44.6628 444.416V446.456H42.9348ZM42.9348 442.904V431.6C40.9828 431.664 39.4628 432.224 38.3748 433.28C37.2868 434.32 36.7428 435.648 36.7428 437.264C36.7428 438.928 37.2708 440.256 38.3268 441.248C39.3988 442.24 40.9348 442.792 42.9348 442.904ZM44.6628 442.904C46.6628 442.792 48.1908 442.24 49.2468 441.248C50.3188 440.256 50.8548 438.928 50.8548 437.264C50.8548 435.648 50.3108 434.32 49.2228 433.28C48.1348 432.224 46.6148 431.664 44.6628 431.6V442.904ZM61.603 451.76V446.336C59.587 446.336 57.995 445.808 56.827 444.752C55.659 443.696 55.075 442.256 55.075 440.432C55.075 438.624 55.659 437.192 56.827 436.136C57.995 435.064 59.587 434.528 61.603 434.528V427.856H63.235V434.528C65.251 434.528 66.843 435.064 68.011 436.136C69.179 437.192 69.763 438.624 69.763 440.432C69.763 442.256 69.179 443.696 68.011 444.752C66.843 445.808 65.251 446.336 63.235 446.336V451.76H61.603ZM61.603 444.944V435.896C60.067 435.912 58.883 436.32 58.051 437.12C57.219 437.904 56.803 439 56.803 440.408C56.803 441.864 57.211 442.984 58.027 443.768C58.859 444.552 60.051 444.944 61.603 444.944ZM63.235 444.944C64.787 444.944 65.971 444.552 66.787 443.768C67.619 442.984 68.035 441.864 68.035 440.408C68.035 439 67.619 437.904 66.787 437.12C65.955 436.32 64.771 435.912 63.235 435.896V444.944ZM77.4169 446L83.6569 437.072L77.9689 429.008H80.1289L84.7849 435.872L89.4169 429.008H91.4809L85.8409 437.096L92.0809 446H89.9209L84.7369 438.344L79.5769 446H77.4169ZM92.9309 446L97.3469 440.192L93.1949 434.768H95.2829L98.3549 439.04L101.427 434.768H103.395L99.3149 440.12L103.779 446H101.667L98.3309 441.32L94.8989 446H92.9309ZM125.436 450.176V446H112.428V429.008H114.156V444.464H123.42V429.008H125.148V444.464H127.068V450.176H125.436ZM139.984 449.648V446H130.144V434.768H131.776V444.584H138.064V434.768H139.696V444.584H141.496V449.648H139.984ZM12.376 477V469.92C11.144 470.272 9.832 470.448 8.44 470.448C6.568 470.448 5.184 470.072 4.288 469.32C3.392 468.568 2.944 467.416 2.944 465.864V460.008H4.672V465.696C4.672 467.84 5.904 468.912 8.368 468.912C10.176 468.912 11.512 468.736 12.376 468.384V460.008H14.104V477H12.376ZM25.2076 477V472.392C24.2156 472.68 23.1196 472.824 21.9196 472.824C19.3916 472.824 18.1276 471.624 18.1276 469.224V465.768H19.7596V469.032C19.7596 469.976 19.9676 470.616 20.3836 470.952C20.7996 471.288 21.4396 471.456 22.3036 471.456C23.1996 471.456 24.1676 471.32 25.2076 471.048V465.768H26.8396V477H25.2076ZM37.2638 477V460.008H38.9918V475.464H46.7438V460.008H48.4718V475.464H56.2238V460.008H57.9518V477H37.2638ZM62.3631 477V465.768H63.9951V475.584H69.4431V465.768H71.0751V475.584H76.5231V465.768H78.1551V477H62.3631ZM109.545 481.176V477H88.5685V460.008H90.2965V475.464H98.0485V460.008H99.7765V475.464H107.529V460.008H109.257V475.464H111.177V481.176H109.545ZM130.334 480.648V477H114.254V465.768H115.886V475.584H121.334V465.768H122.966V475.584H128.414V465.768H130.046V475.584H131.846V480.648H130.334ZM143.351 477V461.544H138.983V460.008H145.079V467.376H148.055C149.927 467.376 151.415 467.792 152.519 468.624C153.623 469.44 154.175 470.632 154.175 472.2C154.175 473.768 153.631 474.96 152.543 475.776C151.471 476.592 149.991 477 148.103 477H143.351ZM145.079 475.512H147.911C150.919 475.512 152.423 474.416 152.423 472.224C152.423 471.136 152.031 470.304 151.247 469.728C150.479 469.152 149.367 468.864 147.911 468.864H145.079V475.512ZM159.106 477V467.136H155.746V465.768H160.738V469.992H163.45C164.842 469.992 165.922 470.296 166.69 470.904C167.474 471.512 167.866 472.384 167.866 473.52C167.866 474.64 167.482 475.504 166.714 476.112C165.962 476.704 164.882 477 163.474 477H159.106ZM160.738 475.584H163.642C165.338 475.584 166.186 474.896 166.186 473.52C166.186 472.08 165.338 471.36 163.642 471.36H160.738V475.584ZM177.209 477V460.008H178.937V467.376H181.913C183.785 467.376 185.273 467.792 186.377 468.624C187.481 469.44 188.033 470.632 188.033 472.2C188.033 473.768 187.489 474.96 186.401 475.776C185.329 476.592 183.849 477 181.961 477H177.209ZM178.937 475.512H181.769C184.777 475.512 186.281 474.416 186.281 472.224C186.281 471.136 185.889 470.304 185.105 469.728C184.337 469.152 183.225 468.864 181.769 468.864H178.937V475.512ZM190.601 477V460.008H192.329V477H190.601ZM196.754 477V465.768H198.386V469.992H201.098C202.49 469.992 203.57 470.296 204.338 470.904C205.122 471.512 205.514 472.384 205.514 473.52C205.514 474.64 205.13 475.504 204.362 476.112C203.61 476.704 202.53 477 201.122 477H196.754ZM198.386 475.584H201.29C202.986 475.584 203.834 474.896 203.834 473.52C203.834 472.08 202.986 471.36 201.29 471.36H198.386V475.584ZM207.722 477V465.768H209.354V477H207.722ZM219.772 477V460.008H221.5V467.376H224.476C226.348 467.376 227.836 467.792 228.94 468.624C230.044 469.44 230.596 470.632 230.596 472.2C230.596 473.768 230.052 474.96 228.964 475.776C227.892 476.592 226.412 477 224.524 477H219.772ZM221.5 475.512H224.332C227.34 475.512 228.844 474.416 228.844 472.224C228.844 471.136 228.452 470.304 227.668 469.728C226.9 469.152 225.788 468.864 224.332 468.864H221.5V475.512ZM233.832 477V465.768H235.464V469.992H238.176C239.568 469.992 240.648 470.296 241.416 470.904C242.2 471.512 242.592 472.384 242.592 473.52C242.592 474.64 242.208 475.504 241.44 476.112C240.688 476.704 239.608 477 238.2 477H233.832ZM235.464 475.584H238.368C240.064 475.584 240.912 474.896 240.912 473.52C240.912 472.08 240.064 471.36 238.368 471.36H235.464V475.584ZM256.752 477.432C255.312 477.432 254.04 477.136 252.936 476.544C251.848 475.952 251 475.192 250.392 474.264L251.736 473.4C252.856 475.08 254.52 475.92 256.728 475.92C258.76 475.92 260.416 475.248 261.696 473.904C262.992 472.544 263.68 470.88 263.76 468.912H255.192V467.4H263.712C263.472 465.592 262.728 464.088 261.48 462.888C260.232 461.688 258.648 461.088 256.728 461.088C255.72 461.088 254.8 461.312 253.968 461.76C253.152 462.192 252.544 462.712 252.144 463.32L250.704 462.264C251.296 461.448 252.136 460.8 253.224 460.32C254.328 459.824 255.504 459.576 256.752 459.576C259.296 459.576 261.408 460.424 263.088 462.12C264.768 463.8 265.608 465.928 265.608 468.504C265.608 471.08 264.768 473.216 263.088 474.912C261.424 476.592 259.312 477.432 256.752 477.432ZM271.673 477.288C269.801 477.288 268.353 476.656 267.329 475.392L268.505 474.432C269.305 475.44 270.361 475.944 271.673 475.944C272.905 475.944 273.905 475.56 274.673 474.792C275.457 474.024 275.889 473.04 275.969 471.84H270.569V470.472H275.921C275.745 469.368 275.281 468.48 274.529 467.808C273.777 467.136 272.833 466.8 271.697 466.8C270.449 466.8 269.393 467.304 268.529 468.312L267.425 467.304C268.385 466.088 269.817 465.48 271.721 465.48C273.529 465.48 274.969 466.024 276.041 467.112C277.129 468.2 277.673 469.624 277.673 471.384C277.673 473.144 277.121 474.568 276.017 475.656C274.929 476.744 273.481 477.288 271.673 477.288ZM300.904 477.432C298.552 477.432 296.616 476.624 295.096 475.008C293.592 473.392 292.792 471.36 292.696 468.912H289V477H287.272V460.008H289V467.4H292.744C292.984 465.128 293.848 463.256 295.336 461.784C296.824 460.312 298.68 459.576 300.904 459.576C303.32 459.576 305.288 460.432 306.808 462.144C308.344 463.84 309.112 465.96 309.112 468.504C309.112 471.048 308.344 473.176 306.808 474.888C305.288 476.584 303.32 477.432 300.904 477.432ZM300.904 475.896C302.856 475.896 304.408 475.176 305.56 473.736C306.712 472.28 307.288 470.536 307.288 468.504C307.288 466.472 306.712 464.728 305.56 463.272C304.408 461.816 302.856 461.088 300.904 461.088C298.936 461.088 297.376 461.816 296.224 463.272C295.088 464.728 294.52 466.472 294.52 468.504C294.52 470.536 295.088 472.28 296.224 473.736C297.376 475.176 298.936 475.896 300.904 475.896ZM322.541 477.288C320.941 477.288 319.605 476.784 318.533 475.776C317.477 474.752 316.893 473.44 316.781 471.84H314.237V477H312.605V465.768H314.237V470.472H316.829C317.037 469 317.661 467.8 318.701 466.872C319.757 465.944 321.037 465.48 322.541 465.48C324.221 465.48 325.597 466.04 326.669 467.16C327.757 468.28 328.301 469.688 328.301 471.384C328.301 473.08 327.757 474.488 326.669 475.608C325.597 476.728 324.221 477.288 322.541 477.288ZM319.613 474.624C320.349 475.472 321.325 475.896 322.541 475.896C323.757 475.896 324.733 475.472 325.469 474.624C326.205 473.76 326.573 472.68 326.573 471.384C326.573 470.088 326.205 469.008 325.469 468.144C324.733 467.28 323.757 466.848 322.541 466.848C321.325 466.848 320.349 467.28 319.613 468.144C318.877 469.008 318.509 470.088 318.509 471.384C318.509 472.68 318.877 473.76 319.613 474.624ZM336.577 477L341.185 469.488C339.857 469.248 338.817 468.736 338.065 467.952C337.329 467.152 336.961 466.104 336.961 464.808C336.961 463.24 337.497 462.048 338.569 461.232C339.657 460.416 341.145 460.008 343.033 460.008H347.785V477H346.057V469.632H343.057L338.689 477H336.577ZM343.225 468.144H346.057V461.496H343.225C340.217 461.496 338.713 462.592 338.713 464.784C338.713 465.872 339.097 466.704 339.865 467.28C340.649 467.856 341.769 468.144 343.225 468.144ZM351.471 477L354.471 472.44C353.607 472.248 352.927 471.88 352.431 471.336C351.951 470.776 351.711 470.056 351.711 469.176C351.711 468.088 352.095 467.248 352.863 466.656C353.631 466.064 354.671 465.768 355.983 465.768H360.807V477H359.175V472.584H356.223L353.463 477H351.471ZM356.079 471.192H359.175V467.136H356.079C354.271 467.136 353.367 467.816 353.367 469.176C353.367 470.52 354.271 471.192 356.079 471.192Z" fill="#191919"/>
</svg>
