<svg width="413" height="472" viewBox="0 0 413 472" fill="none" xmlns="http://www.w3.org/2000/svg">
<path d="M7.696 32.236L5.14 38.5H1.18L12.232 13.012H15.472L26.416 38.5H22.384L19.792 32.236H7.696ZM13.744 17.152L8.956 29.104H18.496L13.744 17.152ZM44.1668 21.436L37.3268 38.5H33.6548L26.7068 21.436H30.4508L35.4548 34.864H35.5268L40.5668 21.436H44.1668ZM49.7794 28.456H59.9314C59.8834 27.04 59.4514 25.888 58.6354 25C57.8194 24.088 56.6554 23.632 55.1434 23.632C53.7034 23.632 52.4794 24.1 51.4714 25.036C50.4634 25.972 49.8994 27.112 49.7794 28.456ZM63.3514 29.824C63.3514 30.328 63.3394 30.712 63.3154 30.976H49.7794C49.8274 32.44 50.3914 33.676 51.4714 34.684C52.5514 35.668 53.8354 36.16 55.3234 36.16C57.4594 36.16 59.1154 35.296 60.2914 33.568L62.6674 35.476C60.8674 37.804 58.4194 38.968 55.3234 38.968C52.7074 38.968 50.5474 38.14 48.8434 36.484C47.1634 34.828 46.3234 32.668 46.3234 30.004C46.3234 27.364 47.1634 25.204 48.8434 23.524C50.5234 21.82 52.6234 20.968 55.1434 20.968C57.6634 20.968 59.6554 21.772 61.1194 23.38C62.6074 24.964 63.3514 27.112 63.3514 29.824ZM67.9322 21.436H71.1362C71.2322 22.588 71.2802 23.524 71.2802 24.244H71.3882C71.8202 23.308 72.5522 22.528 73.5842 21.904C74.6162 21.28 75.7322 20.968 76.9322 20.968C79.0202 20.968 80.6042 21.616 81.6842 22.912C82.7642 24.208 83.3042 25.876 83.3042 27.916V38.5H79.9202V29.032C79.9202 25.552 78.6242 23.812 76.0322 23.812C74.6882 23.812 73.5842 24.328 72.7202 25.36C71.8802 26.392 71.4602 27.748 71.4602 29.428V38.5H68.0762V25.108C68.0762 23.644 68.0282 22.42 67.9322 21.436ZM92.4493 21.436V38.5H89.0653V21.436H92.4493ZM93.0253 15.28C93.0253 15.88 92.7973 16.396 92.3413 16.828C91.9093 17.236 91.3813 17.44 90.7573 17.44C90.1333 17.44 89.6053 17.236 89.1733 16.828C88.7413 16.396 88.5253 15.88 88.5253 15.28C88.5253 14.68 88.7413 14.164 89.1733 13.732C89.6053 13.3 90.1333 13.084 90.7573 13.084C91.3813 13.084 91.9093 13.3 92.3413 13.732C92.7973 14.14 93.0253 14.656 93.0253 15.28ZM98.3457 25.108C98.3457 23.644 98.2977 22.42 98.2017 21.436H101.406C101.502 22.588 101.55 23.548 101.55 24.316H101.658C102.138 23.308 102.846 22.504 103.782 21.904C104.718 21.28 105.75 20.968 106.878 20.968C107.406 20.968 107.85 21.016 108.21 21.112L108.066 24.244C107.586 24.124 107.07 24.064 106.518 24.064C104.982 24.064 103.794 24.592 102.954 25.648C102.138 26.704 101.73 28 101.73 29.536V38.5H98.3457V25.108ZM125.213 13.012L138.533 33.388H138.605V13.012H142.169V38.5H137.669L124.205 17.692H124.133V38.5H120.569V13.012H125.213ZM150.537 28.456H160.689C160.641 27.04 160.209 25.888 159.393 25C158.577 24.088 157.413 23.632 155.901 23.632C154.461 23.632 153.237 24.1 152.229 25.036C151.221 25.972 150.657 27.112 150.537 28.456ZM164.109 29.824C164.109 30.328 164.097 30.712 164.073 30.976H150.537C150.585 32.44 151.149 33.676 152.229 34.684C153.309 35.668 154.593 36.16 156.081 36.16C158.217 36.16 159.873 35.296 161.049 33.568L163.425 35.476C161.625 37.804 159.177 38.968 156.081 38.968C153.465 38.968 151.305 38.14 149.601 36.484C147.921 34.828 147.081 32.668 147.081 30.004C147.081 27.364 147.921 25.204 149.601 23.524C151.281 21.82 153.381 20.968 155.901 20.968C158.421 20.968 160.413 21.772 161.877 23.38C163.365 24.964 164.109 27.112 164.109 29.824ZM165.818 38.5L172.658 29.536L166.43 21.436H170.606L174.782 27.304L178.994 21.436H182.954L176.798 29.5L183.674 38.5H179.462L174.71 31.84L169.886 38.5H165.818ZM195.221 21.436V24.208H190.685V33.1C190.685 34.132 190.877 34.876 191.261 35.332C191.645 35.764 192.257 35.98 193.097 35.98C193.841 35.98 194.501 35.836 195.077 35.548L195.185 38.32C194.321 38.632 193.361 38.788 192.305 38.788C190.697 38.788 189.461 38.344 188.597 37.456C187.757 36.544 187.337 35.212 187.337 33.46V24.208H184.061V21.436H187.337V16.54H190.685V21.436H195.221ZM226.905 32.596L229.749 34.54C227.493 37.612 224.253 39.148 220.029 39.148C216.117 39.148 212.901 37.888 210.381 35.368C207.861 32.848 206.601 29.632 206.601 25.72C206.601 21.784 207.885 18.58 210.453 16.108C213.021 13.612 216.261 12.364 220.173 12.364C221.997 12.364 223.749 12.712 225.429 13.408C227.109 14.104 228.405 15.076 229.317 16.324L226.509 18.484C225.885 17.596 224.997 16.876 223.845 16.324C222.693 15.772 221.469 15.496 220.173 15.496C217.293 15.496 214.953 16.48 213.153 18.448C211.377 20.416 210.489 22.84 210.489 25.72C210.489 28.648 211.365 31.096 213.117 33.064C214.869 35.008 217.185 35.98 220.065 35.98C223.065 35.98 225.345 34.852 226.905 32.596ZM233.76 21.436L239.052 34.828H239.124L243.84 21.436H247.44L239.16 42.532C238.56 44.092 237.816 45.244 236.928 45.988C236.064 46.756 234.84 47.14 233.256 47.14C232.464 47.14 231.72 47.056 231.024 46.888L231.348 43.9C231.924 44.092 232.488 44.188 233.04 44.188C233.856 44.188 234.492 43.96 234.948 43.504C235.404 43.072 235.824 42.352 236.208 41.344L237.288 38.5L229.98 21.436H233.76ZM250.713 25.108C250.713 23.644 250.665 22.42 250.569 21.436H253.773C253.869 22.588 253.917 23.548 253.917 24.316H254.025C254.505 23.308 255.213 22.504 256.149 21.904C257.085 21.28 258.117 20.968 259.245 20.968C259.773 20.968 260.217 21.016 260.577 21.112L260.433 24.244C259.953 24.124 259.437 24.064 258.885 24.064C257.349 24.064 256.161 24.592 255.321 25.648C254.505 26.704 254.097 28 254.097 29.536V38.5H250.713V25.108Z" fill="white"/>
<path d="M286.44 10.96L273.96 41.92L270.64 40.72L283.12 9.68L286.44 10.96Z" fill="white"/>
<path opacity="0.3" d="M316.35 21.68C318.11 21.68 319.43 22.25 320.31 23.39C321.21 24.51 321.66 25.88 321.66 27.5V36.5H318.06V28.52C318.06 25.96 317.16 24.68 315.36 24.68C314.32 24.68 313.53 25.08 312.99 25.88C312.45 26.66 312.18 27.58 312.18 28.64V36.5H308.58V27.8C308.58 26.86 308.35 26.11 307.89 25.55C307.45 24.97 306.79 24.68 305.91 24.68C304.89 24.68 304.11 25.07 303.57 25.85C303.03 26.61 302.76 27.52 302.76 28.58V36.5H299.16V22.1H302.58V24.41H302.64C302.98 23.63 303.54 22.98 304.32 22.46C305.1 21.94 306.03 21.68 307.11 21.68C309.21 21.68 310.71 22.59 311.61 24.41C312.61 22.59 314.19 21.68 316.35 21.68ZM328.609 27.86H335.989C335.989 26.86 335.699 26.03 335.119 25.37C334.539 24.71 333.699 24.38 332.599 24.38C331.539 24.38 330.629 24.71 329.869 25.37C329.109 26.03 328.689 26.86 328.609 27.86ZM339.589 29.48C339.589 29.9 339.579 30.22 339.559 30.44H328.609C328.689 31.44 329.129 32.28 329.929 32.96C330.729 33.64 331.659 33.98 332.719 33.98C334.379 33.98 335.649 33.36 336.529 32.12L338.929 34.04C337.509 35.96 335.449 36.92 332.749 36.92C330.489 36.92 328.629 36.24 327.169 34.88C325.729 33.52 325.009 31.69 325.009 29.39C325.009 27.09 325.729 25.23 327.169 23.81C328.609 22.39 330.429 21.68 332.629 21.68C334.709 21.68 336.389 22.35 337.669 23.69C338.949 25.03 339.589 26.96 339.589 29.48ZM357.716 13.82V36.5H354.296V34.34H354.236C353.756 35.16 353.066 35.8 352.166 36.26C351.266 36.7 350.306 36.92 349.286 36.92C347.146 36.92 345.426 36.18 344.126 34.7C342.846 33.22 342.206 31.4 342.206 29.24C342.206 27.08 342.856 25.28 344.156 23.84C345.476 22.4 347.156 21.68 349.196 21.68C351.216 21.68 352.826 22.43 354.026 23.93H354.116V13.82H357.716ZM346.946 26C346.226 26.92 345.866 28 345.866 29.24C345.866 30.48 346.226 31.57 346.946 32.51C347.686 33.45 348.706 33.92 350.006 33.92C351.266 33.92 352.286 33.45 353.066 32.51C353.846 31.57 354.236 30.5 354.236 29.3C354.236 28.1 353.846 27.02 353.066 26.06C352.286 25.1 351.266 24.62 350.006 24.62C348.706 24.62 347.686 25.08 346.946 26ZM362.15 36.5V22.1H365.75V36.5H362.15ZM362.3 18.74C361.86 18.3 361.64 17.79 361.64 17.21C361.64 16.63 361.86 16.13 362.3 15.71C362.74 15.27 363.28 15.05 363.92 15.05C364.58 15.05 365.13 15.26 365.57 15.68C366.03 16.08 366.26 16.59 366.26 17.21C366.26 17.83 366.03 18.35 365.57 18.77C365.13 19.17 364.58 19.37 363.92 19.37C363.28 19.37 362.74 19.16 362.3 18.74ZM383.257 22.1V36.5H379.837V34.19H379.777C379.437 34.95 378.857 35.6 378.037 36.14C377.237 36.66 376.327 36.92 375.307 36.92C373.547 36.92 372.217 36.36 371.317 35.24C370.437 34.1 369.997 32.72 369.997 31.1V22.1H373.597V30.08C373.597 32.64 374.497 33.92 376.297 33.92C377.377 33.92 378.207 33.54 378.787 32.78C379.367 32 379.657 31.08 379.657 30.02V22.1H383.257ZM404.768 21.68C406.528 21.68 407.848 22.25 408.728 23.39C409.628 24.51 410.078 25.88 410.078 27.5V36.5H406.478V28.52C406.478 25.96 405.578 24.68 403.778 24.68C402.738 24.68 401.948 25.08 401.408 25.88C400.868 26.66 400.598 27.58 400.598 28.64V36.5H396.998V27.8C396.998 26.86 396.768 26.11 396.308 25.55C395.868 24.97 395.208 24.68 394.328 24.68C393.308 24.68 392.528 25.07 391.988 25.85C391.448 26.61 391.178 27.52 391.178 28.58V36.5H387.578V22.1H390.998V24.41H391.058C391.398 23.63 391.958 22.98 392.738 22.46C393.518 21.94 394.448 21.68 395.528 21.68C397.628 21.68 399.128 22.59 400.028 24.41C401.028 22.59 402.608 21.68 404.768 21.68Z" fill="#BEBEBE"/>
<path d="M6.976 297.804L4.204 304.5H1.36L12.376 279.012H14.896L25.84 304.5H22.96L20.152 297.804H6.976ZM13.564 281.892L7.948 295.428H19.18L13.564 281.892ZM42.9881 287.652L36.1481 304.5H33.4481L26.5721 287.652H29.3081L34.7801 301.908H34.8521L40.3601 287.652H42.9881ZM48.1822 294.78H59.6662C59.5942 293.148 59.0662 291.828 58.0822 290.82C57.1222 289.788 55.7902 289.272 54.0862 289.272C52.5022 289.272 51.1462 289.824 50.0182 290.928C48.9142 292.008 48.3022 293.292 48.1822 294.78ZM62.1502 295.572C62.1502 296.052 62.1382 296.436 62.1142 296.724H48.1462C48.1942 298.428 48.8062 299.88 49.9822 301.08C51.1582 302.256 52.5982 302.844 54.3022 302.844C55.4782 302.844 56.5462 302.568 57.5062 302.016C58.4662 301.44 59.1982 300.744 59.7022 299.928L61.5382 301.368C59.6662 303.744 57.2542 304.932 54.3022 304.932C51.8062 304.932 49.7302 304.092 48.0742 302.412C46.4182 300.732 45.5902 298.62 45.5902 296.076C45.5902 293.556 46.4062 291.456 48.0382 289.776C49.6702 288.072 51.6862 287.22 54.0862 287.22C56.6302 287.22 58.6102 288.012 60.0262 289.596C61.4422 291.156 62.1502 293.148 62.1502 295.572ZM67.2718 287.652H69.6118C69.7078 288.852 69.7558 289.812 69.7558 290.532H69.8278C70.2838 289.572 71.0518 288.78 72.1318 288.156C73.2358 287.532 74.3878 287.22 75.5878 287.22C77.6758 287.22 79.2598 287.844 80.3398 289.092C81.4438 290.34 81.9958 292.032 81.9958 294.168V304.5H79.5478V295.176C79.5478 293.28 79.1998 291.828 78.5038 290.82C77.8318 289.788 76.6558 289.272 74.9758 289.272C73.5598 289.272 72.3478 289.848 71.3398 291C70.3558 292.128 69.8638 293.748 69.8638 295.86V304.5H67.4158V291.36C67.4158 289.92 67.3678 288.684 67.2718 287.652ZM90.8178 287.652V304.5H88.3698V287.652H90.8178ZM90.7818 279.948C91.1418 280.284 91.3218 280.692 91.3218 281.172C91.3218 281.652 91.1418 282.06 90.7818 282.396C90.4458 282.732 90.0498 282.9 89.5938 282.9C89.1378 282.9 88.7298 282.732 88.3698 282.396C88.0338 282.06 87.8658 281.652 87.8658 281.172C87.8658 280.692 88.0338 280.284 88.3698 279.948C88.7298 279.612 89.1378 279.444 89.5938 279.444C90.0498 279.444 90.4458 279.612 90.7818 279.948ZM97.3338 291.36C97.3338 289.92 97.2858 288.684 97.1898 287.652H99.5298C99.6258 288.852 99.6738 289.812 99.6738 290.532H99.7458C100.226 289.548 100.946 288.756 101.906 288.156C102.89 287.532 103.97 287.22 105.146 287.22C105.794 287.22 106.334 287.28 106.766 287.4L106.442 289.704C106.058 289.56 105.482 289.488 104.714 289.488C103.298 289.488 102.122 290.028 101.186 291.108C100.25 292.164 99.7818 293.748 99.7818 295.86V304.5H97.3338V291.36ZM122.69 279.012L137.522 300.72H137.594V279.012H140.186V304.5H136.946L122.114 282.576H122.042V304.5H119.45V279.012H122.69ZM148.167 294.78H159.651C159.579 293.148 159.051 291.828 158.067 290.82C157.107 289.788 155.775 289.272 154.071 289.272C152.487 289.272 151.131 289.824 150.003 290.928C148.899 292.008 148.287 293.292 148.167 294.78ZM162.135 295.572C162.135 296.052 162.123 296.436 162.099 296.724H148.131C148.179 298.428 148.791 299.88 149.967 301.08C151.143 302.256 152.583 302.844 154.287 302.844C155.463 302.844 156.531 302.568 157.491 302.016C158.451 301.44 159.183 300.744 159.687 299.928L161.523 301.368C159.651 303.744 157.239 304.932 154.287 304.932C151.791 304.932 149.715 304.092 148.059 302.412C146.403 300.732 145.575 298.62 145.575 296.076C145.575 293.556 146.391 291.456 148.023 289.776C149.655 288.072 151.671 287.22 154.071 287.22C156.615 287.22 158.595 288.012 160.011 289.596C161.427 291.156 162.135 293.148 162.135 295.572ZM164.525 304.5L171.149 295.788L164.921 287.652H168.053L172.661 294.06L177.269 287.652H180.221L174.101 295.68L180.797 304.5H177.629L172.625 297.48L167.477 304.5H164.525ZM192.223 287.652V289.704H187.471V299.532C187.471 300.708 187.687 301.524 188.119 301.98C188.551 302.412 189.175 302.628 189.991 302.628C190.687 302.628 191.395 302.448 192.115 302.088L192.223 304.212C191.335 304.548 190.375 304.716 189.343 304.716C188.191 304.716 187.183 304.38 186.319 303.708C185.455 303.036 185.023 301.872 185.023 300.216V289.704H181.531V287.652H185.023V282.9H187.471V287.652H192.223ZM224.637 299.1L226.653 300.396C225.741 301.788 224.457 302.928 222.801 303.816C221.169 304.704 219.273 305.148 217.113 305.148C213.273 305.148 210.093 303.888 207.573 301.368C205.077 298.824 203.829 295.62 203.829 291.756C203.829 287.892 205.089 284.7 207.609 282.18C210.129 279.636 213.297 278.364 217.113 278.364C218.985 278.364 220.737 278.736 222.369 279.48C224.025 280.2 225.297 281.172 226.185 282.396L224.025 283.98C223.425 283.068 222.501 282.288 221.253 281.64C220.029 280.968 218.661 280.632 217.149 280.632C213.957 280.632 211.389 281.712 209.445 283.872C207.525 286.032 206.564 288.66 206.564 291.756C206.564 294.852 207.537 297.48 209.481 299.64C211.425 301.8 213.981 302.88 217.149 302.88C220.461 302.88 222.957 301.62 224.637 299.1ZM230.402 287.652L236.126 301.872H236.198L241.418 287.652H244.082L235.694 308.856C235.142 310.272 234.458 311.34 233.642 312.06C232.85 312.78 231.77 313.14 230.402 313.14C229.658 313.14 228.926 313.068 228.206 312.924L228.458 310.692C229.034 310.884 229.634 310.98 230.258 310.98C231.05 310.98 231.686 310.728 232.166 310.224C232.67 309.744 233.114 309 233.498 307.992L234.866 304.464L227.666 287.652H230.402ZM247.908 291.36C247.908 289.92 247.86 288.684 247.764 287.652H250.104C250.2 288.852 250.248 289.812 250.248 290.532H250.32C250.8 289.548 251.52 288.756 252.48 288.156C253.464 287.532 254.544 287.22 255.72 287.22C256.368 287.22 256.908 287.28 257.34 287.4L257.016 289.704C256.632 289.56 256.056 289.488 255.288 289.488C253.872 289.488 252.696 290.028 251.76 291.108C250.824 292.164 250.356 293.748 250.356 295.86V304.5H247.908V291.36Z" fill="white"/>
<path d="M282.6 277.76L270.52 306.72L268.2 305.96L280.32 276.96L282.6 277.76Z" fill="white"/>
<path opacity="0.3" d="M295.7 291.55C295.7 290.35 295.66 289.32 295.58 288.46H297.53C297.61 289.46 297.65 290.26 297.65 290.86H297.71C298.11 290.04 298.71 289.38 299.51 288.88C300.33 288.36 301.23 288.1 302.21 288.1C302.75 288.1 303.2 288.15 303.56 288.25L303.29 290.17C302.97 290.05 302.49 289.99 301.85 289.99C300.67 289.99 299.69 290.44 298.91 291.34C298.13 292.22 297.74 293.54 297.74 295.3V302.5H295.7V291.55ZM307.123 294.4H316.693C316.633 293.04 316.193 291.94 315.373 291.1C314.573 290.24 313.463 289.81 312.043 289.81C310.723 289.81 309.593 290.27 308.653 291.19C307.733 292.09 307.223 293.16 307.123 294.4ZM318.763 295.06C318.763 295.46 318.753 295.78 318.733 296.02H307.093C307.133 297.44 307.643 298.65 308.623 299.65C309.603 300.63 310.803 301.12 312.223 301.12C313.203 301.12 314.093 300.89 314.893 300.43C315.693 299.95 316.303 299.37 316.723 298.69L318.253 299.89C316.693 301.87 314.683 302.86 312.223 302.86C310.143 302.86 308.413 302.16 307.033 300.76C305.653 299.36 304.963 297.6 304.963 295.48C304.963 293.38 305.643 291.63 307.003 290.23C308.363 288.81 310.043 288.1 312.043 288.1C314.163 288.1 315.813 288.76 316.993 290.08C318.173 291.38 318.763 293.04 318.763 295.06ZM322.431 306.88L323.901 305.32C324.481 306.06 325.261 306.67 326.241 307.15C327.221 307.65 328.231 307.9 329.271 307.9C331.171 307.9 332.561 307.39 333.441 306.37C334.321 305.35 334.761 304.02 334.761 302.38V299.74H334.701C334.181 300.58 333.421 301.25 332.421 301.75C331.441 302.25 330.431 302.5 329.391 302.5C327.231 302.5 325.481 301.83 324.141 300.49C322.801 299.15 322.131 297.44 322.131 295.36C322.131 293.32 322.801 291.6 324.141 290.2C325.501 288.8 327.251 288.1 329.391 288.1C330.451 288.1 331.461 288.35 332.421 288.85C333.401 289.33 334.161 290.01 334.701 290.89H334.761V288.46H336.801V302.38C336.801 303.24 336.681 304.06 336.441 304.84C336.221 305.62 335.851 306.39 335.331 307.15C334.811 307.93 334.021 308.55 332.961 309.01C331.921 309.47 330.661 309.7 329.181 309.7C327.901 309.7 326.661 309.45 325.461 308.95C324.281 308.45 323.271 307.76 322.431 306.88ZM325.701 291.4C324.761 292.46 324.291 293.76 324.291 295.3C324.291 296.84 324.761 298.14 325.701 299.2C326.661 300.24 327.961 300.76 329.601 300.76C331.181 300.76 332.471 300.26 333.471 299.26C334.491 298.24 335.001 296.92 335.001 295.3C335.001 293.8 334.481 292.51 333.441 291.43C332.421 290.35 331.141 289.81 329.601 289.81C327.961 289.81 326.661 290.34 325.701 291.4ZM354.256 302.5H352.306C352.226 301.5 352.186 300.7 352.186 300.1H352.126C351.746 300.9 351.096 301.56 350.176 302.08C349.276 302.6 348.326 302.86 347.326 302.86C345.586 302.86 344.256 302.34 343.336 301.3C342.436 300.26 341.986 298.85 341.986 297.07V288.46H344.026V296.23C344.026 297.81 344.306 299.03 344.866 299.89C345.446 300.73 346.436 301.15 347.836 301.15C349.016 301.15 350.016 300.68 350.836 299.74C351.676 298.78 352.096 297.42 352.096 295.66V288.46H354.136V299.41C354.136 300.61 354.176 301.64 354.256 302.5ZM361.638 279.82V302.5H359.598V279.82H361.638ZM375.946 293.89V293.44C375.946 291.02 374.696 289.81 372.196 289.81C370.516 289.81 369.126 290.36 368.026 291.46L366.886 290.11C368.226 288.77 370.066 288.1 372.406 288.1C374.006 288.1 375.316 288.54 376.336 289.42C377.356 290.3 377.866 291.56 377.866 293.2V299.35C377.866 300.61 377.946 301.66 378.106 302.5H376.276C376.136 301.7 376.066 300.94 376.066 300.22H376.006C374.786 301.98 373.086 302.86 370.906 302.86C369.646 302.86 368.516 302.51 367.516 301.81C366.536 301.09 366.046 300.02 366.046 298.6C366.046 297.9 366.166 297.29 366.406 296.77C366.646 296.23 367.006 295.79 367.486 295.45C367.966 295.11 368.486 294.84 369.046 294.64C369.606 294.42 370.296 294.26 371.116 294.16C371.936 294.04 372.696 293.97 373.396 293.95C374.116 293.91 374.966 293.89 375.946 293.89ZM375.946 295.48H375.346C374.386 295.48 373.526 295.52 372.766 295.6C372.026 295.66 371.276 295.79 370.516 295.99C369.776 296.19 369.196 296.5 368.776 296.92C368.356 297.34 368.146 297.87 368.146 298.51C368.146 299.43 368.466 300.11 369.106 300.55C369.746 300.97 370.526 301.18 371.446 301.18C372.826 301.18 373.916 300.73 374.716 299.83C375.536 298.93 375.946 297.83 375.946 296.53V295.48ZM383.122 291.55C383.122 290.35 383.082 289.32 383.002 288.46H384.952C385.032 289.46 385.072 290.26 385.072 290.86H385.132C385.532 290.04 386.132 289.38 386.932 288.88C387.752 288.36 388.652 288.1 389.632 288.1C390.172 288.1 390.622 288.15 390.982 288.25L390.712 290.17C390.392 290.05 389.912 289.99 389.272 289.99C388.092 289.99 387.112 290.44 386.332 291.34C385.552 292.22 385.162 293.54 385.162 295.3V302.5H383.122V291.55Z" fill="#BEBEBE"/>
<path d="M1.12 106L8.488 89.008H10.648L17.944 106H15.256L13.528 101.824H5.464L3.76 106H1.12ZM6.304 99.736H12.664L9.496 91.768L6.304 99.736ZM23.2945 106.288C22.8145 106.288 22.3425 106.224 21.8785 106.096C21.4145 105.968 20.9745 105.776 20.5585 105.52C20.1425 105.264 19.8065 104.904 19.5505 104.44C19.2945 103.96 19.1665 103.408 19.1665 102.784C19.1665 102.128 19.3185 101.56 19.6225 101.08C19.9425 100.584 20.3425 100.208 20.8225 99.952C21.3025 99.68 21.9105 99.472 22.6465 99.328C23.3985 99.168 24.1025 99.064 24.7585 99.016C25.4305 98.968 26.2065 98.944 27.0865 98.944V98.632C27.0865 97.816 26.8305 97.2 26.3185 96.784C25.8225 96.352 25.1425 96.136 24.2785 96.136C22.9985 96.136 21.9185 96.576 21.0385 97.456L19.8385 96.016C21.0225 94.88 22.5745 94.312 24.4945 94.312C26.0625 94.312 27.2465 94.728 28.0465 95.56C28.8465 96.376 29.2465 97.448 29.2465 98.776V103.744C29.2465 104.736 29.3025 105.488 29.4145 106H27.3745C27.2465 105.456 27.1825 104.912 27.1825 104.368H27.1105C26.2625 105.648 24.9905 106.288 23.2945 106.288ZM23.7985 104.512C24.8225 104.512 25.6225 104.208 26.1985 103.6C26.7905 102.976 27.0865 102.168 27.0865 101.176V100.576H26.5345C23.1585 100.576 21.4705 101.296 21.4705 102.736C21.4705 103.36 21.6945 103.816 22.1425 104.104C22.5905 104.376 23.1425 104.512 23.7985 104.512ZM39.1343 106V89.008H49.7423V91.048H41.5103V96.16H44.7023C46.5903 96.16 48.0943 96.576 49.2143 97.408C50.3343 98.224 50.8943 99.448 50.8943 101.08C50.8943 102.712 50.3343 103.944 49.2143 104.776C48.1103 105.592 46.6143 106 44.7263 106H39.1343ZM41.5103 103.984H44.4623C47.1503 103.984 48.4943 103.024 48.4943 101.104C48.4943 100.144 48.1423 99.416 47.4383 98.92C46.7503 98.424 45.7583 98.176 44.4623 98.176H41.5103V103.984ZM59.8178 106.312C57.7058 106.312 56.0898 105.592 54.9698 104.152C54.0898 103.016 53.6498 101.176 53.6498 98.632C53.6498 97.448 53.6818 96.44 53.7458 95.608C53.8258 94.76 53.9698 93.928 54.1778 93.112C54.3858 92.28 54.6818 91.608 55.0658 91.096C55.4498 90.568 55.9618 90.12 56.6018 89.752C57.2418 89.384 58.0178 89.144 58.9298 89.032L62.1218 88.648C62.7458 88.568 63.2178 88.448 63.5378 88.288C63.8578 88.128 64.0658 87.872 64.1618 87.52L65.7938 88C65.6018 88.784 65.2818 89.36 64.8338 89.728C64.3858 90.096 63.7218 90.344 62.8418 90.472L59.6978 90.88C58.6578 91.008 57.8498 91.248 57.2738 91.6C56.6978 91.952 56.2418 92.568 55.9058 93.448C55.5698 94.312 55.3858 95.528 55.3538 97.096H55.4258C56.3538 95.272 57.9778 94.36 60.2978 94.36C61.9138 94.36 63.2498 94.92 64.3058 96.04C65.3778 97.144 65.9138 98.568 65.9138 100.312C65.9138 102.072 65.3378 103.512 64.1858 104.632C63.0338 105.752 61.5778 106.312 59.8178 106.312ZM57.0338 103.24C57.7218 104.024 58.6418 104.416 59.7938 104.416C60.9458 104.416 61.8658 104.024 62.5538 103.24C63.2578 102.44 63.6098 101.456 63.6098 100.288C63.6098 99.12 63.2578 98.144 62.5538 97.36C61.8658 96.56 60.9378 96.16 59.7698 96.16C58.6338 96.16 57.7218 96.56 57.0338 97.36C56.3458 98.144 56.0018 99.12 56.0018 100.288C56.0018 101.456 56.3458 102.44 57.0338 103.24ZM75.1812 106V89.008H81.0372C82.5092 89.008 83.7652 89.352 84.8052 90.04C85.8452 90.728 86.3652 91.816 86.3652 93.304C86.3652 94.216 86.0932 95 85.5492 95.656C85.0212 96.312 84.3012 96.76 83.3892 97V97.048C84.5092 97.176 85.4132 97.608 86.1012 98.344C86.8052 99.08 87.1572 100.024 87.1572 101.176C87.1572 102.744 86.5572 103.944 85.3572 104.776C84.1732 105.592 82.6452 106 80.7732 106H75.1812ZM77.5572 103.984H80.5332C81.2852 103.984 81.9572 103.904 82.5492 103.744C83.1412 103.584 83.6532 103.28 84.0852 102.832C84.5332 102.368 84.7572 101.776 84.7572 101.056C84.7572 99.152 83.4212 98.2 80.7492 98.2H77.5572V103.984ZM77.5572 96.184H80.6532C81.6292 96.184 82.4292 95.968 83.0532 95.536C83.6772 95.088 83.9892 94.424 83.9892 93.544C83.9892 91.848 82.7492 91 80.2692 91H77.5572V96.184ZM90.4596 106V94.624H96.0516C96.4356 94.624 96.7956 94.656 97.1316 94.72C97.4836 94.768 97.8276 94.864 98.1636 95.008C98.5156 95.136 98.8116 95.312 99.0516 95.536C99.3076 95.744 99.5076 96.024 99.6516 96.376C99.8116 96.728 99.8916 97.128 99.8916 97.576C99.8916 98.168 99.7076 98.688 99.3396 99.136C98.9876 99.568 98.5156 99.848 97.9236 99.976V100.024C98.6596 100.12 99.2596 100.416 99.7236 100.912C100.188 101.392 100.42 102.024 100.42 102.808C100.42 103.8 100.028 104.584 99.2436 105.16C98.4756 105.72 97.4436 106 96.1476 106H90.4596ZM92.7156 104.2H95.7876C97.3396 104.2 98.1156 103.672 98.1156 102.616C98.1156 101.544 97.3796 101.008 95.9076 101.008H92.7156V104.2ZM92.7156 99.304H95.8596C96.3716 99.304 96.8036 99.184 97.1556 98.944C97.5076 98.704 97.6836 98.336 97.6836 97.84C97.6836 96.864 96.9956 96.376 95.6196 96.376H92.7156V99.304ZM109.681 106V89.008H119.593V91.096H112.057V106H109.681ZM121.725 106V94.624H129.477V96.472H123.981V106H121.725ZM136.313 110.032V103.888H137.705C139.561 101.888 140.489 98.424 140.489 93.496V89.008H151.649V103.888H153.569V110.032H151.409V106H138.473V110.032H136.313ZM140.513 103.888H149.273V91.096H142.793V93.664C142.793 98.352 142.033 101.76 140.513 103.888ZM154.713 109.48V104.128H155.961C157.097 102.672 157.665 100.496 157.665 97.6V94.624H166.425V104.128H168.177V109.48H166.209V106H156.681V109.48H154.713ZM158.409 104.128H164.193V96.472H159.825V98.2C159.825 100.488 159.353 102.464 158.409 104.128ZM176.923 106V89.008H187.819V91.096H179.299V96.184H187.315V98.224H179.299V103.888H188.179V106H176.923ZM196.473 106.312C194.729 106.312 193.289 105.76 192.153 104.656C191.033 103.552 190.473 102.112 190.473 100.336C190.473 98.576 191.033 97.136 192.153 96.016C193.273 94.88 194.673 94.312 196.353 94.312C198.033 94.312 199.361 94.848 200.337 95.92C201.329 96.976 201.825 98.408 201.825 100.216C201.825 100.552 201.817 100.808 201.801 100.984H192.777C192.809 101.96 193.185 102.784 193.905 103.456C194.625 104.112 195.481 104.44 196.473 104.44C197.897 104.44 199.001 103.864 199.785 102.712L201.369 103.984C200.169 105.536 198.537 106.312 196.473 106.312ZM192.777 99.304H199.545C199.513 98.36 199.225 97.592 198.681 97C198.137 96.392 197.361 96.088 196.353 96.088C195.393 96.088 194.577 96.4 193.905 97.024C193.233 97.648 192.857 98.408 192.777 99.304ZM211.095 106V89.008H221.991V91.096H213.471V96.184H221.487V98.224H213.471V103.888H222.351V106H211.095ZM212.823 85.72C212.823 85.32 212.967 84.976 213.255 84.688C213.543 84.4 213.895 84.256 214.311 84.256C214.727 84.256 215.079 84.4 215.367 84.688C215.655 84.96 215.799 85.304 215.799 85.72C215.799 86.12 215.655 86.464 215.367 86.752C215.079 87.024 214.727 87.16 214.311 87.16C213.895 87.16 213.543 87.016 213.255 86.728C212.967 86.44 212.823 86.104 212.823 85.72ZM217.479 85.72C217.479 85.32 217.623 84.976 217.911 84.688C218.199 84.4 218.551 84.256 218.967 84.256C219.383 84.256 219.735 84.4 220.023 84.688C220.311 84.96 220.455 85.304 220.455 85.72C220.455 86.12 220.311 86.464 220.023 86.752C219.735 87.024 219.383 87.16 218.967 87.16C218.551 87.16 218.199 87.016 217.911 86.728C217.623 86.44 217.479 86.104 217.479 85.72ZM226.805 90.52C226.805 90.12 226.949 89.776 227.237 89.488C227.525 89.2 227.877 89.056 228.293 89.056C228.709 89.056 229.061 89.2 229.349 89.488C229.637 89.76 229.781 90.104 229.781 90.52C229.781 90.92 229.637 91.264 229.349 91.552C229.061 91.824 228.709 91.96 228.293 91.96C227.877 91.96 227.525 91.816 227.237 91.528C226.949 91.24 226.805 90.904 226.805 90.52ZM231.461 90.52C231.461 90.12 231.605 89.776 231.893 89.488C232.181 89.2 232.533 89.056 232.949 89.056C233.365 89.056 233.717 89.2 234.005 89.488C234.293 89.76 234.437 90.104 234.437 90.52C234.437 90.92 234.293 91.264 234.005 91.552C233.717 91.824 233.365 91.96 232.949 91.96C232.533 91.96 232.181 91.816 231.893 91.528C231.605 91.24 231.461 90.904 231.461 90.52ZM230.645 106.312C228.901 106.312 227.461 105.76 226.325 104.656C225.205 103.552 224.645 102.112 224.645 100.336C224.645 98.576 225.205 97.136 226.325 96.016C227.445 94.88 228.845 94.312 230.525 94.312C232.205 94.312 233.533 94.848 234.509 95.92C235.501 96.976 235.997 98.408 235.997 100.216C235.997 100.552 235.989 100.808 235.973 100.984H226.949C226.981 101.96 227.357 102.784 228.077 103.456C228.797 104.112 229.653 104.44 230.645 104.44C232.069 104.44 233.173 103.864 233.957 102.712L235.541 103.984C234.341 105.536 232.709 106.312 230.645 106.312ZM226.949 99.304H233.717C233.685 98.36 233.397 97.592 232.853 97C232.309 96.392 231.533 96.088 230.525 96.088C229.565 96.088 228.749 96.4 228.077 97.024C227.405 97.648 227.029 98.408 226.949 99.304ZM243.155 106L251.339 96.736L243.587 89.008H246.755L253.955 96.496H253.979V89.008H256.355V96.496H256.379L263.555 89.008H266.747L258.995 96.736L267.179 106H263.915L256.379 97.264H256.355V106H253.979V97.264H253.955L246.419 106H243.155ZM267.181 106L272.605 100.048L267.661 94.624H270.613L275.101 99.904H275.173V94.624H277.429V99.904H277.501L281.989 94.624H284.941L279.973 100.048L285.421 106H282.445L277.501 100.384H277.429V106H275.173V100.384H275.101L270.157 106H267.181ZM298.157 106.432C295.597 106.432 293.621 105.6 292.229 103.936L293.981 102.376C294.941 103.736 296.309 104.416 298.085 104.416C299.189 104.416 300.101 104.128 300.821 103.552C301.541 102.96 301.901 102.168 301.901 101.176C301.901 99.192 300.453 98.2 297.557 98.2H296.453V96.184H297.581C300.141 96.184 301.421 95.216 301.421 93.28C301.421 92.48 301.125 91.832 300.533 91.336C299.941 90.824 299.149 90.568 298.157 90.568C296.557 90.568 295.333 91.12 294.485 92.224L292.877 90.76C294.045 89.304 295.797 88.576 298.133 88.576C299.845 88.576 301.205 88.984 302.213 89.8C303.221 90.6 303.725 91.72 303.725 93.16C303.725 94.136 303.445 94.968 302.885 95.656C302.325 96.344 301.605 96.808 300.725 97.048V97.096C301.781 97.32 302.645 97.8 303.317 98.536C304.005 99.272 304.349 100.184 304.349 101.272C304.349 102.856 303.741 104.112 302.525 105.04C301.325 105.968 299.869 106.432 298.157 106.432ZM311.065 106.336C308.905 106.336 307.265 105.624 306.145 104.2L307.681 102.88C307.985 103.344 308.433 103.736 309.025 104.056C309.633 104.376 310.273 104.536 310.945 104.536C312.625 104.536 313.465 103.944 313.465 102.76C313.465 101.576 312.465 100.984 310.465 100.984H309.625V99.304H310.441C312.233 99.304 313.129 98.728 313.129 97.576C313.129 96.584 312.369 96.088 310.849 96.088C310.305 96.088 309.777 96.224 309.265 96.496C308.753 96.752 308.345 97.096 308.041 97.528L306.601 96.304C307.017 95.68 307.617 95.192 308.401 94.84C309.201 94.488 310.081 94.312 311.041 94.312C312.337 94.312 313.385 94.592 314.185 95.152C315.001 95.696 315.409 96.448 315.409 97.408C315.409 98.048 315.185 98.608 314.737 99.088C314.305 99.568 313.753 99.88 313.081 100.024V100.072C313.881 100.216 314.521 100.536 315.001 101.032C315.497 101.512 315.745 102.12 315.745 102.856C315.745 103.944 315.305 104.8 314.425 105.424C313.545 106.032 312.425 106.336 311.065 106.336ZM325.002 106V89.008H327.378V102.472H327.426L335.994 89.008H338.61V106H336.234V92.536H336.186L327.618 106H325.002ZM342.624 106V94.624H344.88V102.832H344.904L350.736 94.624H353.208V106H350.952V97.768H350.904L345.096 106H342.624ZM3.064 137V120.008H5.44V133.472H5.488L14.056 120.008H16.672V137H14.296V123.536H14.248L5.68 137H3.064ZM12.328 117.68C11.656 118.24 10.816 118.52 9.808 118.52C8.8 118.52 7.96 118.24 7.288 117.68C6.616 117.104 6.224 116.32 6.112 115.328L7.48 115.064C7.576 115.64 7.832 116.096 8.248 116.432C8.68 116.768 9.2 116.936 9.808 116.936C10.416 116.936 10.928 116.768 11.344 116.432C11.776 116.096 12.04 115.64 12.136 115.064L13.504 115.328C13.392 116.32 13 117.104 12.328 117.68ZM28.3422 122.48C27.7182 123.04 26.8942 123.32 25.8702 123.32C24.8462 123.32 24.0142 123.032 23.3742 122.456C22.7502 121.88 22.3742 121.096 22.2462 120.104L23.5662 119.912C23.6622 120.488 23.9182 120.936 24.3342 121.256C24.7502 121.576 25.2622 121.736 25.8702 121.736C26.4782 121.736 26.9902 121.576 27.4062 121.256C27.8222 120.936 28.0782 120.488 28.1742 119.912L29.4942 120.176C29.3662 121.152 28.9822 121.92 28.3422 122.48ZM20.6862 137V125.624H22.9422V133.832H22.9662L28.7982 125.624H31.2702V137H29.0142V128.768H28.9662L23.1582 137H20.6862ZM41.2671 137V120.008H43.6431V127.496H43.6911L51.2751 120.008H54.5631L46.3071 127.784L55.0671 137H51.6591L43.6911 128.216H43.6431V137H41.2671ZM56.9914 137V125.624H59.2474V130.832H59.3194L64.1194 125.624H67.1194L61.8394 131.024L67.5994 137H64.5514L59.3194 131.432H59.2474V137H56.9914ZM75.6963 137.168C74.9603 137.168 74.3523 137.096 73.8723 136.952L74.1843 134.84C74.5203 134.952 74.8643 135.008 75.2163 135.008C76.0963 135.008 76.8003 134.68 77.3283 134.024C77.8563 133.352 78.2483 132.232 78.5043 130.664C78.7603 129.096 78.8883 126.968 78.8883 124.28V120.008H89.8323V137H87.4563V122.096H81.1923V124.904C81.1923 129.16 80.7763 132.272 79.9443 134.24C79.1123 136.192 77.6963 137.168 75.6963 137.168ZM93.6426 137.144C93.0826 137.144 92.5946 137.088 92.1786 136.976L92.3706 135.08C92.6106 135.16 92.8666 135.2 93.1386 135.2C93.9546 135.2 94.5626 134.784 94.9626 133.952C95.3626 133.104 95.5626 131.648 95.5626 129.584V125.624H104.299V137H102.043V127.472H97.7466V130.184C97.7466 132.488 97.4186 134.224 96.7626 135.392C96.1226 136.56 95.0826 137.144 93.6426 137.144ZM114.298 137V120.008H117.994L123.082 133.064H123.13L128.146 120.008H131.842V137H129.466V122.792H129.418L123.778 137H122.266L116.65 122.792H116.602V137H114.298ZM135.858 137V125.624H139.05L142.794 133.928H142.818L146.514 125.624H149.73V137H147.498V128.288H147.45L143.442 137H142.074L138.114 128.264H138.09V137H135.858ZM159.744 137V120.008H162.12V127.112H170.736V120.008H173.112V137H170.736V129.224H162.12V137H159.744ZM177.108 137V125.624H179.364V130.136H185.004V125.624H187.26V137H185.004V131.984H179.364V137H177.108ZM205.379 137.432C202.787 137.432 200.643 136.592 198.947 134.912C197.251 133.232 196.403 131.088 196.403 128.48C196.403 125.856 197.243 123.72 198.923 122.072C200.619 120.408 202.771 119.576 205.379 119.576C207.987 119.576 210.139 120.408 211.835 122.072C213.547 123.72 214.403 125.856 214.403 128.48C214.403 131.088 213.547 133.232 211.835 134.912C210.139 136.592 207.987 137.432 205.379 137.432ZM205.379 135.296C207.315 135.296 208.875 134.648 210.059 133.352C211.243 132.04 211.835 130.416 211.835 128.48C211.835 126.56 211.243 124.944 210.059 123.632C208.875 122.32 207.315 121.664 205.379 121.664C203.475 121.664 201.931 122.32 200.747 123.632C199.563 124.944 198.971 126.56 198.971 128.48C198.971 130.416 199.563 132.04 200.747 133.352C201.931 134.648 203.475 135.296 205.379 135.296ZM227.258 135.608C226.09 136.744 224.634 137.312 222.89 137.312C221.146 137.312 219.69 136.744 218.522 135.608C217.354 134.472 216.77 133.032 216.77 131.288C216.77 129.544 217.346 128.112 218.498 126.992C219.666 125.872 221.13 125.312 222.89 125.312C224.65 125.312 226.114 125.872 227.282 126.992C228.45 128.112 229.034 129.544 229.034 131.288C229.034 133.032 228.442 134.472 227.258 135.608ZM220.106 134.216C220.794 135.016 221.722 135.416 222.89 135.416C224.058 135.416 224.978 135.016 225.65 134.216C226.338 133.4 226.682 132.424 226.682 131.288C226.682 130.152 226.338 129.184 225.65 128.384C224.978 127.584 224.058 127.184 222.89 127.184C221.722 127.184 220.794 127.584 220.106 128.384C219.434 129.184 219.098 130.152 219.098 131.288C219.098 132.424 219.434 133.4 220.106 134.216ZM238.283 137V120.008H251.555V137H249.179V122.096H240.659V137H238.283ZM255.553 137V125.624H265.633V137H263.377V127.472H257.809V137H255.553ZM275.642 137V120.008H280.826C282.73 120.008 284.218 120.4 285.29 121.184C286.362 121.952 286.898 123.136 286.898 124.736C286.898 126.368 286.33 127.576 285.194 128.36C284.074 129.144 282.578 129.536 280.706 129.536H278.018V137H275.642ZM278.018 127.52H280.538C283.178 127.52 284.498 126.592 284.498 124.736C284.498 122.928 283.194 122.024 280.586 122.024H278.018V127.52ZM289.796 142.76V125.624H292.004V127.4H292.076C292.46 126.776 293.012 126.272 293.732 125.888C294.452 125.504 295.268 125.312 296.18 125.312C297.844 125.312 299.204 125.888 300.26 127.04C301.332 128.176 301.868 129.592 301.868 131.288C301.868 133 301.34 134.432 300.284 135.584C299.228 136.736 297.844 137.312 296.132 137.312C295.316 137.312 294.548 137.136 293.828 136.784C293.108 136.416 292.54 135.92 292.124 135.296H292.052V142.76H289.796ZM295.748 135.416C296.932 135.416 297.86 135.016 298.532 134.216C299.204 133.4 299.54 132.424 299.54 131.288C299.54 130.152 299.204 129.184 298.532 128.384C297.86 127.584 296.932 127.184 295.748 127.184C294.628 127.184 293.708 127.592 292.988 128.408C292.268 129.224 291.908 130.192 291.908 131.312C291.908 132.432 292.268 133.4 292.988 134.216C293.708 135.016 294.628 135.416 295.748 135.416ZM319.215 137.432C316.607 137.432 314.463 136.592 312.783 134.912C311.103 133.232 310.263 131.088 310.263 128.48C310.263 125.856 311.119 123.72 312.831 122.072C314.543 120.408 316.703 119.576 319.311 119.576C320.527 119.576 321.695 119.808 322.815 120.272C323.935 120.736 324.799 121.384 325.407 122.216L323.535 123.656C323.119 123.064 322.527 122.584 321.759 122.216C320.991 121.848 320.175 121.664 319.311 121.664C317.391 121.664 315.831 122.32 314.631 123.632C313.447 124.944 312.855 126.56 312.855 128.48C312.855 130.432 313.439 132.064 314.607 133.376C315.775 134.672 317.319 135.32 319.239 135.32C321.239 135.32 322.759 134.568 323.799 133.064L325.695 134.36C324.191 136.408 322.031 137.432 319.215 137.432ZM333.375 137.312C331.599 137.312 330.135 136.76 328.983 135.656C327.831 134.552 327.255 133.104 327.255 131.312C327.255 129.536 327.823 128.096 328.959 126.992C330.111 125.872 331.567 125.312 333.327 125.312C334.159 125.312 334.967 125.48 335.751 125.816C336.535 126.136 337.151 126.592 337.599 127.184L335.967 128.504C335.727 128.12 335.359 127.808 334.863 127.568C334.383 127.328 333.879 127.208 333.351 127.208C332.215 127.208 331.311 127.608 330.639 128.408C329.967 129.208 329.631 130.176 329.631 131.312C329.631 132.448 329.967 133.416 330.639 134.216C331.327 135.016 332.239 135.416 333.375 135.416C334.543 135.416 335.455 135 336.111 134.168L337.623 135.536C336.599 136.72 335.183 137.312 333.375 137.312ZM349.554 137V122.096H344.106V120.008H357.378V122.096H351.93V137H349.554ZM361.922 137V127.472H358.058V125.624H368.042V127.472H364.178V137H361.922ZM4.288 168.216C3.616 168.216 3 168.16 2.44 168.048L2.776 165.888C3.16 166.016 3.6 166.08 4.096 166.08C4.688 166.08 5.168 165.928 5.536 165.624C5.904 165.32 6.272 164.824 6.64 164.136L7.48 162.6L0.904 151.008H3.664L8.8 160.32L13.744 151.008H16.384L8.896 164.688C8.24 165.888 7.584 166.776 6.928 167.352C6.272 167.928 5.392 168.216 4.288 168.216ZM18.6813 173.76C18.1533 173.76 17.6573 173.704 17.1933 173.592L17.4093 171.6C17.7933 171.728 18.1693 171.792 18.5373 171.792C19.0813 171.792 19.5053 171.64 19.8092 171.336C20.1133 171.048 20.3933 170.568 20.6493 169.896L21.3693 168L16.4973 156.624H19.0173L22.5453 165.552H22.5933L25.7373 156.624H28.1373L22.6172 170.688C22.2173 171.728 21.7213 172.496 21.1293 172.992C20.5533 173.504 19.7373 173.76 18.6813 173.76ZM43.399 168.432V166.392C41.047 166.36 39.135 165.688 37.663 164.376C36.191 163.048 35.455 161.336 35.455 159.24C35.455 157.048 36.175 155.328 37.615 154.08C39.071 152.832 40.999 152.176 43.399 152.112V150.576H45.823V152.112C48.239 152.176 50.167 152.832 51.607 154.08C53.063 155.328 53.791 157.048 53.791 159.24C53.791 161.336 53.055 163.048 51.583 164.376C50.111 165.688 48.191 166.36 45.823 166.392V168.432H43.399ZM43.399 164.304V154.176C41.655 154.272 40.319 154.784 39.391 155.712C38.463 156.624 37.999 157.808 37.999 159.264C37.999 160.752 38.455 161.936 39.367 162.816C40.279 163.68 41.623 164.176 43.399 164.304ZM45.823 164.304C47.615 164.176 48.967 163.68 49.879 162.816C50.791 161.936 51.247 160.752 51.247 159.264C51.247 157.808 50.783 156.624 49.855 155.712C48.927 154.784 47.583 154.272 45.823 154.176V164.304ZM62.6354 173.76V168.36C60.5714 168.344 58.9474 167.8 57.7634 166.728C56.5954 165.64 56.0114 164.184 56.0114 162.36C56.0114 160.52 56.5954 159.072 57.7634 158.016C58.9474 156.944 60.5714 156.4 62.6354 156.384V149.856H64.8914V156.384C66.9554 156.4 68.5794 156.944 69.7634 158.016C70.9474 159.072 71.5394 160.52 71.5394 162.36C71.5394 164.184 70.9474 165.64 69.7634 166.728C68.5794 167.8 66.9554 168.344 64.8914 168.36V173.76H62.6354ZM62.6354 166.488V158.256C61.2594 158.272 60.2034 158.64 59.4674 159.36C58.7314 160.08 58.3634 161.072 58.3634 162.336C58.3634 163.632 58.7314 164.648 59.4674 165.384C60.2034 166.104 61.2594 166.472 62.6354 166.488ZM64.8914 166.488C66.2834 166.472 67.3474 166.104 68.0834 165.384C68.8194 164.648 69.1874 163.632 69.1874 162.336C69.1874 161.072 68.8114 160.08 68.0594 159.36C67.3234 158.64 66.2674 158.272 64.8914 158.256V166.488ZM79.1273 168L85.1993 159L79.7273 151.008H82.6313L86.7113 157.344L90.7433 151.008H93.5273L88.1033 159.048L94.2713 168H91.2713L86.6153 160.848L82.0553 168H79.1273ZM94.8946 168L99.4546 162.024L95.3026 156.624H98.0866L100.871 160.536L103.679 156.624H106.319L102.215 162L106.799 168H103.991L100.823 163.56L97.6066 168H94.8946ZM128.056 172.032V168H115.048V151.008H117.424V165.888H125.944V151.008H128.32V165.888H130.216V172.032H128.056ZM142.746 171.48V168H132.882V156.624H135.138V166.104H140.706V156.624H142.962V166.104H144.69V171.48H142.746ZM12.16 199V192.136C10.928 192.488 9.632 192.664 8.272 192.664C6.384 192.664 4.984 192.288 4.072 191.536C3.176 190.768 2.728 189.584 2.728 187.984V182.008H5.104V187.552C5.104 189.584 6.248 190.6 8.536 190.6C10.136 190.6 11.344 190.432 12.16 190.096V182.008H14.536V199H12.16ZM25.2014 199V194.56C24.2734 194.816 23.2174 194.944 22.0334 194.944C19.4414 194.944 18.1454 193.744 18.1454 191.344V187.624H20.3534V190.84C20.3534 191.72 20.5454 192.32 20.9294 192.64C21.3134 192.96 21.9054 193.12 22.7054 193.12C23.5054 193.12 24.3374 193 25.2014 192.76V187.624H27.4574V199H25.2014ZM37.4703 199V182.008H39.8463V196.888H46.9503V182.008H49.3263V196.888H56.4303V182.008H58.8063V199H37.4703ZM62.8034 199V187.624H65.0594V197.104H69.9314V187.624H72.1874V197.104H77.0354V187.624H79.2914V199H62.8034ZM110.433 203.032V199H89.3609V182.008H91.7369V196.888H98.8409V182.008H101.217V196.888H108.321V182.008H110.697V196.888H112.593V203.032H110.433ZM131.529 202.456V199H115.257V187.624H117.513V197.104H122.385V187.624H124.641V197.104H129.489V187.624H131.745V197.104H133.497V202.456H131.529ZM144.516 199V184.096H140.388V182.008H146.892V189.064H149.652C151.556 189.064 153.076 189.48 154.212 190.312C155.348 191.144 155.916 192.384 155.916 194.032C155.916 195.664 155.348 196.904 154.212 197.752C153.092 198.584 151.588 199 149.7 199H144.516ZM146.892 196.984H149.46C152.164 196.984 153.516 196.008 153.516 194.056C153.516 193.096 153.164 192.36 152.46 191.848C151.756 191.336 150.756 191.08 149.46 191.08H146.892V196.984ZM160.579 199V189.472H157.363V187.624H162.835V191.752H165.451C166.859 191.752 167.963 192.064 168.763 192.688C169.579 193.296 169.987 194.192 169.987 195.376C169.987 196.544 169.579 197.44 168.763 198.064C167.963 198.688 166.859 199 165.451 199H160.579ZM162.835 197.2H165.163C166.859 197.2 167.707 196.6 167.707 195.4C167.707 194.152 166.859 193.528 165.163 193.528H162.835V197.2ZM179.009 199V182.008H181.385V189.064H184.121C186.025 189.064 187.545 189.48 188.681 190.312C189.817 191.144 190.385 192.384 190.385 194.032C190.385 195.664 189.817 196.904 188.681 197.752C187.561 198.584 186.057 199 184.169 199H179.009ZM181.385 196.984H183.929C186.633 196.984 187.985 196.008 187.985 194.056C187.985 193.096 187.633 192.36 186.929 191.848C186.225 191.336 185.225 191.08 183.929 191.08H181.385V196.984ZM192.857 199V182.008H195.233V199H192.857ZM199.233 199V187.624H201.489V191.752H204.081C205.489 191.752 206.593 192.064 207.393 192.688C208.209 193.296 208.617 194.192 208.617 195.376C208.617 196.544 208.217 197.44 207.417 198.064C206.617 198.688 205.513 199 204.105 199H199.233ZM201.489 197.2H203.817C205.497 197.2 206.337 196.6 206.337 195.4C206.337 194.152 205.497 193.528 203.817 193.528H201.489V197.2ZM210.753 199V187.624H213.009V199H210.753ZM223.025 199V182.008H225.401V189.064H228.137C230.041 189.064 231.561 189.48 232.697 190.312C233.833 191.144 234.401 192.384 234.401 194.032C234.401 195.664 233.833 196.904 232.697 197.752C231.577 198.584 230.073 199 228.185 199H223.025ZM225.401 196.984H227.945C230.649 196.984 232.001 196.008 232.001 194.056C232.001 193.096 231.649 192.36 230.945 191.848C230.241 191.336 229.241 191.08 227.945 191.08H225.401V196.984ZM237.296 199V187.624H239.552V191.752H242.144C243.552 191.752 244.656 192.064 245.456 192.688C246.272 193.296 246.68 194.192 246.68 195.376C246.68 196.544 246.28 197.44 245.48 198.064C244.68 198.688 243.576 199 242.168 199H237.296ZM239.552 197.2H241.88C243.56 197.2 244.4 196.6 244.4 195.4C244.4 194.152 243.56 193.528 241.88 193.528H239.552V197.2ZM260.38 199.432C258.924 199.432 257.628 199.152 256.492 198.592C255.372 198.032 254.5 197.288 253.876 196.36L255.676 195.064C256.748 196.568 258.316 197.32 260.38 197.32C262.188 197.32 263.668 196.736 264.82 195.568C265.988 194.4 266.612 192.952 266.692 191.224H258.748V189.184H266.644C266.42 187.6 265.74 186.288 264.604 185.248C263.468 184.192 262.06 183.664 260.38 183.664C259.388 183.664 258.492 183.856 257.692 184.24C256.908 184.624 256.324 185.096 255.94 185.656L254.188 184.168C254.796 183.368 255.66 182.736 256.78 182.272C257.9 181.808 259.1 181.576 260.38 181.576C262.924 181.576 265.044 182.416 266.74 184.096C268.452 185.776 269.308 187.912 269.308 190.504C269.308 193.096 268.46 195.232 266.764 196.912C265.084 198.592 262.956 199.432 260.38 199.432ZM275.188 199.312C273.3 199.312 271.836 198.712 270.796 197.512L272.212 196.144C272.964 197.008 273.94 197.44 275.14 197.44C276.212 197.44 277.084 197.128 277.756 196.504C278.444 195.88 278.844 195.048 278.956 194.008H273.988V192.16H278.884C278.756 191.312 278.348 190.6 277.66 190.024C276.988 189.448 276.204 189.16 275.308 189.16C274.044 189.16 273.044 189.592 272.308 190.456C272.132 190.28 271.876 190.032 271.54 189.712C271.204 189.392 270.98 189.176 270.868 189.064C271.332 188.52 271.956 188.096 272.74 187.792C273.524 187.472 274.348 187.312 275.212 187.312C277.036 187.312 278.508 187.872 279.628 188.992C280.748 190.096 281.308 191.544 281.308 193.336C281.308 195.128 280.748 196.576 279.628 197.68C278.508 198.768 277.028 199.312 275.188 199.312ZM304.66 199.456C302.292 199.456 300.34 198.688 298.804 197.152C297.284 195.616 296.452 193.64 296.308 191.224H292.948V199H290.572V182.008H292.948V189.112H296.356C296.612 186.904 297.5 185.096 299.02 183.688C300.54 182.28 302.42 181.576 304.66 181.576C307.124 181.576 309.132 182.424 310.684 184.12C312.252 185.816 313.036 187.944 313.036 190.504C313.036 193.048 312.252 195.176 310.684 196.888C309.132 198.6 307.124 199.456 304.66 199.456ZM304.66 197.296C306.436 197.296 307.844 196.632 308.884 195.304C309.94 193.976 310.468 192.376 310.468 190.504C310.468 188.616 309.94 187.008 308.884 185.68C307.844 184.352 306.436 183.688 304.66 183.688C302.868 183.688 301.444 184.352 300.388 185.68C299.348 187.008 298.828 188.616 298.828 190.504C298.828 192.392 299.348 194 300.388 195.328C301.444 196.64 302.868 197.296 304.66 197.296ZM326.626 199.336C325.042 199.336 323.706 198.84 322.618 197.848C321.53 196.856 320.906 195.568 320.746 193.984H318.442V199H316.186V187.624H318.442V192.136H320.794C321.034 190.696 321.69 189.536 322.762 188.656C323.834 187.76 325.122 187.312 326.626 187.312C328.338 187.312 329.754 187.88 330.874 189.016C332.01 190.136 332.578 191.568 332.578 193.312C332.578 195.072 332.01 196.52 330.874 197.656C329.754 198.776 328.338 199.336 326.626 199.336ZM326.626 197.416C327.73 197.416 328.61 197.032 329.266 196.264C329.922 195.48 330.25 194.496 330.25 193.312C330.25 192.128 329.922 191.152 329.266 190.384C328.61 189.6 327.73 189.208 326.626 189.208C325.522 189.208 324.642 189.6 323.986 190.384C323.33 191.152 323.002 192.128 323.002 193.312C323.002 194.496 323.33 195.48 323.986 196.264C324.658 197.032 325.538 197.416 326.626 197.416ZM340.485 199L345.069 191.656C343.805 191.368 342.821 190.824 342.117 190.024C341.429 189.224 341.085 188.192 341.085 186.928C341.085 185.28 341.637 184.048 342.741 183.232C343.845 182.416 345.373 182.008 347.325 182.008H352.485V199H350.109V191.92H347.541L343.365 199H340.485ZM347.565 189.952H350.109V184.024H347.517C344.813 184.024 343.461 185 343.461 186.952C343.461 187.928 343.821 188.672 344.541 189.184C345.261 189.696 346.269 189.952 347.565 189.952ZM355.707 199L358.659 194.536C356.883 194.088 355.995 192.976 355.995 191.2C355.995 190.032 356.395 189.144 357.195 188.536C358.011 187.928 359.091 187.624 360.435 187.624H365.739V199H363.483V194.752H361.059L358.467 199H355.707ZM360.819 193H363.483V189.4H360.819C359.075 189.4 358.203 190 358.203 191.2C358.203 192.4 359.075 193 360.819 193Z" fill="white"/>
<path d="M1.24 372L8.584 355.008H10.264L17.56 372H15.64L13.768 367.536H4.984L3.136 372H1.24ZM5.632 365.952H13.12L9.376 356.928L5.632 365.952ZM23.0127 372.288C22.0047 372.288 21.1007 372.008 20.3007 371.448C19.5167 370.872 19.1247 370.016 19.1247 368.88C19.1247 368.32 19.2207 367.832 19.4127 367.416C19.6047 366.984 19.8927 366.632 20.2767 366.36C20.6607 366.088 21.0767 365.872 21.5247 365.712C21.9727 365.536 22.5247 365.408 23.1807 365.328C23.8367 365.232 24.4447 365.176 25.0047 365.16C25.5807 365.128 26.2607 365.112 27.0447 365.112V364.752C27.0447 362.816 26.0447 361.848 24.0447 361.848C22.7007 361.848 21.5887 362.288 20.7087 363.168L19.7967 362.088C20.8687 361.016 22.3407 360.48 24.2127 360.48C25.4927 360.48 26.5407 360.832 27.3567 361.536C28.1727 362.24 28.5807 363.248 28.5807 364.56V369.48C28.5807 370.488 28.6447 371.328 28.7727 372H27.3087C27.1967 371.36 27.1407 370.752 27.1407 370.176H27.0927C26.1167 371.584 24.7567 372.288 23.0127 372.288ZM23.4447 370.944C24.5487 370.944 25.4207 370.584 26.0607 369.864C26.7167 369.144 27.0447 368.264 27.0447 367.224V366.384H26.5647C25.7967 366.384 25.1087 366.416 24.5007 366.48C23.9087 366.528 23.3087 366.632 22.7007 366.792C22.1087 366.952 21.6447 367.2 21.3087 367.536C20.9727 367.872 20.8047 368.296 20.8047 368.808C20.8047 369.544 21.0607 370.088 21.5727 370.44C22.0847 370.776 22.7087 370.944 23.4447 370.944ZM38.881 372V355.008H48.985V356.544H40.609V362.376H43.993C45.865 362.376 47.353 362.792 48.457 363.624C49.561 364.44 50.113 365.632 50.113 367.2C50.113 368.768 49.569 369.96 48.481 370.776C47.409 371.592 45.929 372 44.041 372H38.881ZM40.609 370.512H43.849C46.857 370.512 48.361 369.416 48.361 367.224C48.361 366.136 47.969 365.304 47.185 364.728C46.417 364.152 45.305 363.864 43.849 363.864H40.609V370.512ZM59.2542 372.288C57.0142 372.288 55.3822 371.504 54.3582 369.936C53.6542 368.864 53.3022 367.096 53.3022 364.632C53.3022 363.128 53.3582 361.888 53.4702 360.912C53.5982 359.92 53.8302 358.976 54.1662 358.08C54.5182 357.184 55.0462 356.496 55.7502 356.016C56.4542 355.52 57.3502 355.208 58.4382 355.08L61.8462 354.672C62.4222 354.608 62.8702 354.496 63.1902 354.336C63.5262 354.176 63.7502 353.92 63.8622 353.568L65.0382 353.928C64.8622 354.568 64.5662 355.048 64.1502 355.368C63.7502 355.672 63.1502 355.88 62.3502 355.992L59.1582 356.4C57.4942 356.608 56.3342 357.184 55.6782 358.128C55.0222 359.056 54.6782 360.792 54.6462 363.336H54.7182C55.6622 361.432 57.3102 360.48 59.6622 360.48C61.3102 360.48 62.6542 361.04 63.6942 362.16C64.7342 363.264 65.2542 364.672 65.2542 366.384C65.2542 368.08 64.6862 369.488 63.5502 370.608C62.4302 371.728 60.9982 372.288 59.2542 372.288ZM59.2542 370.896C60.5342 370.896 61.5662 370.472 62.3502 369.624C63.1342 368.76 63.5262 367.68 63.5262 366.384C63.5262 365.088 63.1342 364.008 62.3502 363.144C61.5662 362.28 60.5342 361.848 59.2542 361.848C57.9902 361.848 56.9662 362.28 56.1822 363.144C55.3982 364.008 55.0062 365.088 55.0062 366.384C55.0062 367.664 55.3982 368.736 56.1822 369.6C56.9662 370.464 57.9902 370.896 59.2542 370.896ZM74.8576 372V355.008H79.9216C80.6256 355.008 81.2816 355.08 81.8896 355.224C82.4976 355.352 83.0736 355.576 83.6176 355.896C84.1616 356.2 84.5936 356.648 84.9136 357.24C85.2336 357.832 85.3936 358.536 85.3936 359.352C85.3936 360.248 85.1136 361.032 84.5536 361.704C84.0096 362.36 83.2896 362.792 82.3936 363V363.048C83.5296 363.176 84.4496 363.616 85.1536 364.368C85.8736 365.12 86.2336 366.096 86.2336 367.296C86.2336 368.72 85.6656 369.864 84.5296 370.728C83.3936 371.576 81.8496 372 79.8976 372H74.8576ZM76.5856 370.512H79.8016C81.1616 370.512 82.2816 370.24 83.1616 369.696C84.0416 369.152 84.4816 368.32 84.4816 367.2C84.4816 366.096 84.1056 365.264 83.3536 364.704C82.6016 364.144 81.5216 363.864 80.1136 363.864H76.5856V370.512ZM76.5856 362.448H80.0656C81.0416 362.448 81.8816 362.208 82.5856 361.728C83.3056 361.248 83.6656 360.496 83.6656 359.472C83.6656 358.448 83.2896 357.696 82.5376 357.216C81.7856 356.736 80.8016 356.496 79.5856 356.496H76.5856V362.448ZM90.0194 372V360.768H95.2754C96.2994 360.768 97.1554 360.992 97.8434 361.44C98.5474 361.888 98.8994 362.624 98.8994 363.648C98.8994 364.24 98.7154 364.76 98.3474 365.208C97.9954 365.64 97.5234 365.92 96.9314 366.048V366.072C97.6834 366.152 98.2914 366.44 98.7554 366.936C99.2194 367.432 99.4514 368.08 99.4514 368.88C99.4514 369.824 99.0754 370.584 98.3234 371.16C97.5714 371.72 96.5554 372 95.2754 372H90.0194ZM91.6514 370.608H95.0834C95.8674 370.608 96.5074 370.456 97.0034 370.152C97.5154 369.848 97.7714 369.376 97.7714 368.736C97.7714 367.472 96.9394 366.84 95.2754 366.84H91.6514V370.608ZM91.6514 365.496H95.2274C95.7874 365.496 96.2674 365.36 96.6674 365.088C97.0834 364.816 97.2914 364.392 97.2914 363.816C97.2914 362.68 96.5074 362.112 94.9394 362.112H91.6514V365.496ZM109.053 372V355.008H118.701V356.544H110.781V372H109.053ZM121.144 372V360.768H128.584V362.136H122.776V372H121.144ZM135.447 376.176V370.464H136.815C138.799 368.4 139.791 364.784 139.791 359.616V355.008H150.231V370.464H152.151V376.176H150.519V372H137.079V376.176H135.447ZM138.999 370.464H148.503V356.544H141.471V359.616C141.471 364.624 140.647 368.24 138.999 370.464ZM153.639 375.648V370.584H154.935C156.135 369.048 156.735 366.768 156.735 363.744V360.768H164.895V370.584H166.695V375.648H165.182V372H155.151V375.648H153.639ZM156.783 370.584H163.287V362.136H158.319V364.2C158.319 366.616 157.807 368.744 156.783 370.584ZM175.779 372V355.008H186.315V356.544H177.507V362.4H185.739V363.912H177.507V370.464H186.603V372H175.779ZM194.879 372.288C193.215 372.288 191.831 371.728 190.727 370.608C189.623 369.488 189.071 368.08 189.071 366.384C189.071 364.704 189.615 363.304 190.703 362.184C191.791 361.048 193.135 360.48 194.735 360.48C196.431 360.48 197.751 361.008 198.695 362.064C199.639 363.104 200.111 364.432 200.111 366.048C200.111 366.368 200.103 366.624 200.087 366.816H190.775C190.807 367.952 191.215 368.92 191.999 369.72C192.783 370.504 193.743 370.896 194.879 370.896C195.663 370.896 196.375 370.712 197.015 370.344C197.655 369.96 198.143 369.496 198.479 368.952L199.703 369.912C198.455 371.496 196.847 372.288 194.879 372.288ZM190.799 365.52H198.455C198.407 364.432 198.055 363.552 197.399 362.88C196.759 362.192 195.871 361.848 194.735 361.848C193.679 361.848 192.775 362.216 192.023 362.952C191.287 363.672 190.879 364.528 190.799 365.52ZM209.717 372V355.008H220.253V356.544H211.445V362.4H219.677V363.912H211.445V370.464H220.541V372H209.717ZM211.853 352.536C211.629 352.28 211.517 351.992 211.517 351.672C211.517 351.352 211.629 351.072 211.853 350.832C212.093 350.576 212.389 350.448 212.741 350.448C213.093 350.448 213.381 350.576 213.605 350.832C213.845 351.072 213.965 351.352 213.965 351.672C213.965 351.992 213.845 352.28 213.605 352.536C213.381 352.776 213.093 352.896 212.741 352.896C212.389 352.896 212.093 352.776 211.853 352.536ZM216.461 352.536C216.237 352.28 216.125 351.992 216.125 351.672C216.125 351.352 216.237 351.072 216.461 350.832C216.701 350.576 216.997 350.448 217.349 350.448C217.701 350.448 217.989 350.576 218.213 350.832C218.453 351.072 218.573 351.352 218.573 351.672C218.573 351.992 218.453 352.28 218.213 352.536C217.989 352.776 217.701 352.896 217.349 352.896C216.997 352.896 216.701 352.776 216.461 352.536ZM228.816 372.288C227.152 372.288 225.768 371.728 224.664 370.608C223.56 369.488 223.008 368.08 223.008 366.384C223.008 364.704 223.552 363.304 224.64 362.184C225.728 361.048 227.072 360.48 228.672 360.48C230.368 360.48 231.688 361.008 232.632 362.064C233.576 363.104 234.048 364.432 234.048 366.048C234.048 366.368 234.04 366.624 234.024 366.816H224.712C224.744 367.952 225.152 368.92 225.936 369.72C226.72 370.504 227.68 370.896 228.816 370.896C229.6 370.896 230.312 370.712 230.952 370.344C231.592 369.96 232.08 369.496 232.416 368.952L233.64 369.912C232.392 371.496 230.784 372.288 228.816 372.288ZM224.736 365.52H232.392C232.344 364.432 231.992 363.552 231.336 362.88C230.696 362.192 229.808 361.848 228.672 361.848C227.616 361.848 226.712 362.216 225.96 362.952C225.224 363.672 224.816 364.528 224.736 365.52ZM225.648 357.336C225.424 357.08 225.312 356.792 225.312 356.472C225.312 356.152 225.424 355.872 225.648 355.632C225.888 355.376 226.184 355.248 226.536 355.248C226.888 355.248 227.176 355.376 227.4 355.632C227.64 355.872 227.76 356.152 227.76 356.472C227.76 356.792 227.64 357.08 227.4 357.336C227.176 357.576 226.888 357.696 226.536 357.696C226.184 357.696 225.888 357.576 225.648 357.336ZM230.256 357.336C230.032 357.08 229.92 356.792 229.92 356.472C229.92 356.152 230.032 355.872 230.256 355.632C230.496 355.376 230.792 355.248 231.144 355.248C231.496 355.248 231.784 355.376 232.008 355.632C232.248 355.872 232.368 356.152 232.368 356.472C232.368 356.792 232.248 357.08 232.008 357.336C231.784 357.576 231.496 357.696 231.144 357.696C230.792 357.696 230.496 357.576 230.256 357.336ZM241.422 372L250.158 362.712L241.902 355.008H244.374L252.15 362.64H252.174V355.008H253.902V362.64H253.926L261.702 355.008H264.174L255.918 362.712L264.654 372H262.11L253.926 362.952H253.902V372H252.174V362.952H252.15L243.966 372H241.422ZM264.888 372L270.768 366.144L265.464 360.768H267.816L272.712 366.072H272.784V360.768H274.416V366.072H274.488L279.384 360.768H281.736L276.432 366.144L282.312 372H279.912L274.488 366.336H274.416V372H272.784V366.336H272.712L267.288 372H264.888ZM294.915 372.432C293.795 372.432 292.731 372.216 291.723 371.784C290.715 371.352 289.891 370.728 289.251 369.912L290.739 368.808C291.139 369.432 291.707 369.944 292.443 370.344C293.195 370.744 294.027 370.944 294.939 370.944C296.043 370.944 297.011 370.608 297.843 369.936C298.691 369.264 299.115 368.384 299.115 367.296C299.115 366.112 298.659 365.248 297.747 364.704C296.835 364.144 295.715 363.864 294.387 363.864H293.403V362.376H294.387C295.651 362.376 296.667 362.112 297.435 361.584C298.203 361.056 298.587 360.224 298.587 359.088C298.587 358.24 298.219 357.52 297.483 356.928C296.747 356.336 295.891 356.04 294.915 356.04C293.283 356.04 292.059 356.608 291.243 357.744L289.923 356.664C290.371 356.056 291.019 355.56 291.867 355.176C292.715 354.776 293.707 354.576 294.843 354.576C296.475 354.576 297.779 354.976 298.755 355.776C299.731 356.576 300.219 357.704 300.219 359.16C300.219 360.136 299.931 360.968 299.355 361.656C298.795 362.344 298.059 362.808 297.147 363.048V363.096C298.219 363.304 299.107 363.784 299.811 364.536C300.515 365.288 300.867 366.208 300.867 367.296C300.867 368.864 300.291 370.112 299.139 371.04C297.987 371.968 296.579 372.432 294.915 372.432ZM308.02 372.288C305.828 372.288 304.228 371.552 303.22 370.08L304.564 369.12C304.852 369.632 305.316 370.056 305.956 370.392C306.596 370.728 307.276 370.896 307.996 370.896C308.764 370.896 309.412 370.736 309.94 370.416C310.484 370.08 310.756 369.544 310.756 368.808C310.756 368.136 310.428 367.64 309.772 367.32C309.132 366.984 308.348 366.816 307.42 366.816H306.652V365.52H307.372C308.268 365.52 308.988 365.36 309.532 365.04C310.092 364.72 310.372 364.216 310.372 363.528C310.372 362.408 309.5 361.848 307.756 361.848C307.18 361.848 306.628 361.992 306.1 362.28C305.572 362.568 305.164 362.944 304.876 363.408L303.604 362.496C303.972 361.872 304.532 361.384 305.284 361.032C306.036 360.664 306.876 360.48 307.804 360.48C309.036 360.48 310.044 360.752 310.828 361.296C311.612 361.824 312.004 362.56 312.004 363.504C312.004 364.128 311.78 364.68 311.332 365.16C310.9 365.624 310.34 365.928 309.652 366.072V366.12C310.468 366.248 311.124 366.56 311.62 367.056C312.132 367.552 312.388 368.16 312.388 368.88C312.388 369.936 311.98 370.768 311.164 371.376C310.364 371.984 309.316 372.288 308.02 372.288ZM321.983 372V355.008H323.711V369.312H323.759L333.119 355.008H335.063V372H333.335V357.552H333.287L323.927 372H321.983ZM339.488 372V360.768H341.12V369.744H341.144L347.792 360.768H349.568V372H347.96V362.928H347.912L341.264 372H339.488ZM3.256 403V386.008H4.984V400.312H5.032L14.392 386.008H16.336V403H14.608V388.552H14.56L5.2 403H3.256ZM12.184 383.56C11.56 384.104 10.76 384.376 9.784 384.376C8.808 384.376 8 384.104 7.36 383.56C6.736 383 6.376 382.248 6.28 381.304L7.384 381.088C7.496 381.696 7.768 382.184 8.2 382.552C8.648 382.904 9.176 383.08 9.784 383.08C10.392 383.08 10.912 382.904 11.344 382.552C11.792 382.184 12.072 381.696 12.184 381.088L13.288 381.304C13.192 382.248 12.824 383 12.184 383.56ZM20.7616 403V391.768H22.3936V400.744H22.4176L29.0656 391.768H30.8416V403H29.2336V393.928H29.1856L22.5376 403H20.7616ZM28.1056 388.36C27.4816 388.904 26.6816 389.176 25.7056 389.176C24.7296 389.176 23.9216 388.904 23.2816 388.36C22.6576 387.8 22.2976 387.048 22.2016 386.104L23.3056 385.888C23.4176 386.496 23.6896 386.984 24.1216 387.352C24.5696 387.704 25.0976 387.88 25.7056 387.88C26.3136 387.88 26.8336 387.704 27.2656 387.352C27.7136 386.984 27.9936 386.496 28.1056 385.888L29.2096 386.104C29.1136 387.048 28.7456 387.8 28.1056 388.36ZM41.2482 403V386.008H42.9762V393.64H43.0002L51.0882 386.008H53.5602L44.9922 393.712L54.0402 403H51.4962L43.0002 393.952H42.9762V403H41.2482ZM56.2705 403V391.768H57.9025V397.072H57.9745L63.1585 391.768H65.5105L59.8465 397.144L66.0865 403H63.6865L57.9745 397.336H57.9025V403H56.2705ZM73.9529 403.168C73.3769 403.168 72.8329 403.096 72.3209 402.952L72.6329 401.392C73.0489 401.52 73.3929 401.584 73.6649 401.584C74.6409 401.584 75.4089 401.2 75.9689 400.432C76.5449 399.664 76.9609 398.424 77.2169 396.712C77.4889 394.984 77.6249 392.64 77.6249 389.68V386.008H87.8009V403H86.0729V387.52H79.3049V390.544C79.3049 394.88 78.9049 398.072 78.1049 400.12C77.3049 402.152 75.9209 403.168 73.9529 403.168ZM91.5025 403.12C91.0385 403.12 90.6305 403.072 90.2785 402.976L90.4705 401.56C90.7105 401.64 90.9665 401.68 91.2385 401.68C92.1185 401.68 92.7665 401.216 93.1825 400.288C93.6145 399.344 93.8305 397.768 93.8305 395.56V391.768H101.871V403H100.239V393.136H95.4145V396.136C95.4145 398.392 95.1105 400.12 94.5025 401.32C93.9105 402.52 92.9105 403.12 91.5025 403.12ZM112.287 403V386.008H114.927L120.687 400.072H120.711L126.399 386.008H129.039V403H127.311V388.24H127.263L121.119 403H120.207L114.063 388.24H114.015V403H112.287ZM133.449 403V391.768H135.801L139.953 400.576H139.977L144.105 391.768H146.457V403H144.825V393.712H144.777L140.361 403H139.521L135.105 393.712H135.081V403H133.449ZM156.865 403V386.008H158.593V393.376H167.857V386.008H169.585V403H167.857V394.96H158.593V403H156.865ZM173.996 403V391.768H175.628V396.472H182.084V391.768H183.716V403H182.084V397.84H175.628V403H173.996ZM208.411 400.912C206.731 402.592 204.619 403.432 202.075 403.432C199.531 403.432 197.419 402.592 195.739 400.912C194.059 399.216 193.219 397.08 193.219 394.504C193.219 391.928 194.059 389.8 195.739 388.12C197.419 386.424 199.531 385.576 202.075 385.576C204.619 385.576 206.731 386.424 208.411 388.12C210.091 389.8 210.931 391.928 210.931 394.504C210.931 397.08 210.091 399.216 208.411 400.912ZM196.963 399.76C198.259 401.184 199.963 401.896 202.075 401.896C204.187 401.896 205.883 401.184 207.163 399.76C208.459 398.32 209.107 396.568 209.107 394.504C209.107 392.44 208.459 390.688 207.163 389.248C205.883 387.808 204.187 387.088 202.075 387.088C199.963 387.088 198.259 387.808 196.963 389.248C195.683 390.688 195.043 392.44 195.043 394.504C195.043 396.568 195.683 398.32 196.963 399.76ZM219.586 403.288C217.858 403.288 216.426 402.728 215.29 401.608C214.17 400.488 213.61 399.08 213.61 397.384C213.61 395.688 214.17 394.28 215.29 393.16C216.426 392.04 217.858 391.48 219.586 391.48C221.33 391.48 222.762 392.04 223.882 393.16C225.018 394.28 225.586 395.688 225.586 397.384C225.586 399.08 225.018 400.488 223.882 401.608C222.762 402.728 221.33 403.288 219.586 403.288ZM219.586 401.896C220.866 401.896 221.898 401.472 222.682 400.624C223.466 399.76 223.858 398.68 223.858 397.384C223.858 396.088 223.466 395.008 222.682 394.144C221.898 393.28 220.866 392.848 219.586 392.848C218.322 392.848 217.298 393.28 216.514 394.144C215.73 395.008 215.338 396.088 215.338 397.384C215.338 398.664 215.73 399.736 216.514 400.6C217.298 401.464 218.322 401.896 219.586 401.896ZM235.194 403V386.008H247.914V403H246.186V387.544H236.922V403H235.194ZM252.324 403V391.768H261.876V403H260.244V393.136H253.956V403H252.324ZM272.295 403V386.008H277.095C278.871 386.008 280.271 386.392 281.295 387.16C282.319 387.928 282.831 389.056 282.831 390.544C282.831 392.032 282.311 393.168 281.271 393.952C280.231 394.72 278.823 395.104 277.047 395.104H274.023V403H272.295ZM274.023 393.64H276.951C278.295 393.64 279.319 393.376 280.023 392.848C280.743 392.32 281.103 391.552 281.103 390.544C281.103 388.512 279.719 387.496 276.951 387.496H274.023V393.64ZM286.121 408.76V391.768H287.753V393.712H287.825C288.273 393.008 288.881 392.464 289.649 392.08C290.417 391.68 291.217 391.48 292.049 391.48C293.777 391.48 295.177 392.048 296.249 393.184C297.321 394.304 297.857 395.704 297.857 397.384C297.857 399.064 297.321 400.472 296.249 401.608C295.177 402.728 293.777 403.288 292.049 403.288C291.233 403.288 290.441 403.096 289.673 402.712C288.905 402.328 288.289 401.792 287.825 401.104H287.753V408.76H286.121ZM291.881 401.896C293.193 401.896 294.225 401.472 294.977 400.624C295.745 399.76 296.129 398.68 296.129 397.384C296.129 396.088 295.745 395.008 294.977 394.144C294.225 393.28 293.193 392.848 291.881 392.848C290.633 392.848 289.601 393.28 288.785 394.144C287.969 395.008 287.561 396.088 287.561 397.384C287.561 398.68 287.969 399.76 288.785 400.624C289.601 401.472 290.633 401.896 291.881 401.896ZM315.395 403.432C312.835 403.432 310.715 402.592 309.035 400.912C307.371 399.216 306.539 397.08 306.539 394.504C306.539 391.928 307.379 389.8 309.059 388.12C310.739 386.424 312.851 385.576 315.395 385.576C316.643 385.576 317.811 385.824 318.899 386.32C320.003 386.8 320.851 387.448 321.443 388.264L320.003 389.32C319.603 388.712 318.987 388.192 318.155 387.76C317.339 387.312 316.427 387.088 315.419 387.088C313.291 387.088 311.579 387.808 310.283 389.248C309.003 390.688 308.363 392.44 308.363 394.504C308.363 396.568 309.011 398.32 310.307 399.76C311.603 401.2 313.307 401.92 315.419 401.92C317.627 401.92 319.291 401.08 320.411 399.4L321.755 400.264C321.147 401.192 320.291 401.952 319.187 402.544C318.099 403.136 316.835 403.432 315.395 403.432ZM334.085 401.344C333.029 402.64 331.605 403.288 329.813 403.288C328.021 403.288 326.573 402.736 325.469 401.632C324.365 400.512 323.813 399.096 323.813 397.384C323.813 395.672 324.365 394.264 325.469 393.16C326.573 392.04 328.021 391.48 329.813 391.48C330.613 391.48 331.389 391.648 332.141 391.984C332.909 392.32 333.525 392.8 333.989 393.424L332.717 394.336C332.445 393.904 332.045 393.552 331.517 393.28C331.005 392.992 330.445 392.848 329.837 392.848C328.557 392.848 327.517 393.28 326.717 394.144C325.933 394.992 325.541 396.072 325.541 397.384C325.541 398.68 325.933 399.76 326.717 400.624C327.501 401.472 328.533 401.896 329.813 401.896C331.109 401.896 332.125 401.408 332.861 400.432L334.085 401.344ZM346.445 403V387.544H340.757V386.008H353.861V387.544H348.173V403H346.445ZM358.692 403V393.136H354.636V391.768H364.38V393.136H360.324V403H358.692ZM4.072 434.192C3.528 434.192 3.024 434.144 2.56 434.048L2.824 432.416C3.176 432.544 3.584 432.608 4.048 432.608C4.592 432.608 5.048 432.456 5.416 432.152C5.8 431.848 6.176 431.368 6.544 430.712L7.672 428.624L1.072 417.008H3.088L8.632 426.872L14.032 417.008H15.928L8.032 431.288C7.488 432.248 6.92 432.976 6.328 433.472C5.736 433.952 4.984 434.192 4.072 434.192ZM18.208 439.76C17.712 439.76 17.224 439.712 16.744 439.616L16.912 438.128C17.296 438.256 17.696 438.32 18.112 438.32C18.64 438.32 19.064 438.152 19.384 437.816C19.72 437.496 20.016 437 20.272 436.328L21.184 433.976L16.384 422.768H18.208L22.024 432.248H22.072L25.552 422.768H27.328L21.736 436.904C21.368 437.848 20.912 438.56 20.368 439.04C19.84 439.52 19.12 439.76 18.208 439.76ZM42.9348 434.456V432.416C40.5028 432.384 38.5588 431.704 37.1028 430.376C35.6468 429.048 34.9188 427.336 34.9188 425.24C34.9188 423.096 35.6548 421.384 37.1268 420.104C38.6148 418.824 40.5508 418.152 42.9348 418.088V416.576H44.6628V418.088C47.0468 418.152 48.9748 418.824 50.4468 420.104C51.9348 421.384 52.6788 423.096 52.6788 425.24C52.6788 427.336 51.9508 429.048 50.4948 430.376C49.0388 431.704 47.0948 432.384 44.6628 432.416V434.456H42.9348ZM42.9348 430.904V419.6C40.9828 419.664 39.4628 420.224 38.3748 421.28C37.2868 422.32 36.7428 423.648 36.7428 425.264C36.7428 426.928 37.2708 428.256 38.3268 429.248C39.3988 430.24 40.9348 430.792 42.9348 430.904ZM44.6628 430.904C46.6628 430.792 48.1908 430.24 49.2468 429.248C50.3188 428.256 50.8548 426.928 50.8548 425.264C50.8548 423.648 50.3108 422.32 49.2228 421.28C48.1348 420.224 46.6148 419.664 44.6628 419.6V430.904ZM61.603 439.76V434.336C59.587 434.336 57.995 433.808 56.827 432.752C55.659 431.696 55.075 430.256 55.075 428.432C55.075 426.624 55.659 425.192 56.827 424.136C57.995 423.064 59.587 422.528 61.603 422.528V415.856H63.235V422.528C65.251 422.528 66.843 423.064 68.011 424.136C69.179 425.192 69.763 426.624 69.763 428.432C69.763 430.256 69.179 431.696 68.011 432.752C66.843 433.808 65.251 434.336 63.235 434.336V439.76H61.603ZM61.603 432.944V423.896C60.067 423.912 58.883 424.32 58.051 425.12C57.219 425.904 56.803 427 56.803 428.408C56.803 429.864 57.211 430.984 58.027 431.768C58.859 432.552 60.051 432.944 61.603 432.944ZM63.235 432.944C64.787 432.944 65.971 432.552 66.787 431.768C67.619 430.984 68.035 429.864 68.035 428.408C68.035 427 67.619 425.904 66.787 425.12C65.955 424.32 64.771 423.912 63.235 423.896V432.944ZM77.4169 434L83.6569 425.072L77.9689 417.008H80.1289L84.7849 423.872L89.4169 417.008H91.4809L85.8409 425.096L92.0809 434H89.9209L84.7369 426.344L79.5769 434H77.4169ZM92.9309 434L97.3469 428.192L93.1949 422.768H95.2829L98.3549 427.04L101.427 422.768H103.395L99.3149 428.12L103.779 434H101.667L98.3309 429.32L94.8989 434H92.9309ZM125.436 438.176V434H112.428V417.008H114.156V432.464H123.42V417.008H125.148V432.464H127.068V438.176H125.436ZM139.984 437.648V434H130.144V422.768H131.776V432.584H138.064V422.768H139.696V432.584H141.496V437.648H139.984ZM12.376 465V457.92C11.144 458.272 9.832 458.448 8.44 458.448C6.568 458.448 5.184 458.072 4.288 457.32C3.392 456.568 2.944 455.416 2.944 453.864V448.008H4.672V453.696C4.672 455.84 5.904 456.912 8.368 456.912C10.176 456.912 11.512 456.736 12.376 456.384V448.008H14.104V465H12.376ZM25.2076 465V460.392C24.2156 460.68 23.1196 460.824 21.9196 460.824C19.3916 460.824 18.1276 459.624 18.1276 457.224V453.768H19.7596V457.032C19.7596 457.976 19.9676 458.616 20.3836 458.952C20.7996 459.288 21.4396 459.456 22.3036 459.456C23.1996 459.456 24.1676 459.32 25.2076 459.048V453.768H26.8396V465H25.2076ZM37.2638 465V448.008H38.9918V463.464H46.7438V448.008H48.4718V463.464H56.2238V448.008H57.9518V465H37.2638ZM62.3631 465V453.768H63.9951V463.584H69.4431V453.768H71.0751V463.584H76.5231V453.768H78.1551V465H62.3631ZM109.545 469.176V465H88.5685V448.008H90.2965V463.464H98.0485V448.008H99.7765V463.464H107.529V448.008H109.257V463.464H111.177V469.176H109.545ZM130.334 468.648V465H114.254V453.768H115.886V463.584H121.334V453.768H122.966V463.584H128.414V453.768H130.046V463.584H131.846V468.648H130.334ZM143.351 465V449.544H138.983V448.008H145.079V455.376H148.055C149.927 455.376 151.415 455.792 152.519 456.624C153.623 457.44 154.175 458.632 154.175 460.2C154.175 461.768 153.631 462.96 152.543 463.776C151.471 464.592 149.991 465 148.103 465H143.351ZM145.079 463.512H147.911C150.919 463.512 152.423 462.416 152.423 460.224C152.423 459.136 152.031 458.304 151.247 457.728C150.479 457.152 149.367 456.864 147.911 456.864H145.079V463.512ZM159.106 465V455.136H155.746V453.768H160.738V457.992H163.45C164.842 457.992 165.922 458.296 166.69 458.904C167.474 459.512 167.866 460.384 167.866 461.52C167.866 462.64 167.482 463.504 166.714 464.112C165.962 464.704 164.882 465 163.474 465H159.106ZM160.738 463.584H163.642C165.338 463.584 166.186 462.896 166.186 461.52C166.186 460.08 165.338 459.36 163.642 459.36H160.738V463.584ZM177.209 465V448.008H178.937V455.376H181.913C183.785 455.376 185.273 455.792 186.377 456.624C187.481 457.44 188.033 458.632 188.033 460.2C188.033 461.768 187.489 462.96 186.401 463.776C185.329 464.592 183.849 465 181.961 465H177.209ZM178.937 463.512H181.769C184.777 463.512 186.281 462.416 186.281 460.224C186.281 459.136 185.889 458.304 185.105 457.728C184.337 457.152 183.225 456.864 181.769 456.864H178.937V463.512ZM190.601 465V448.008H192.329V465H190.601ZM196.754 465V453.768H198.386V457.992H201.098C202.49 457.992 203.57 458.296 204.338 458.904C205.122 459.512 205.514 460.384 205.514 461.52C205.514 462.64 205.13 463.504 204.362 464.112C203.61 464.704 202.53 465 201.122 465H196.754ZM198.386 463.584H201.29C202.986 463.584 203.834 462.896 203.834 461.52C203.834 460.08 202.986 459.36 201.29 459.36H198.386V463.584ZM207.722 465V453.768H209.354V465H207.722ZM219.772 465V448.008H221.5V455.376H224.476C226.348 455.376 227.836 455.792 228.94 456.624C230.044 457.44 230.596 458.632 230.596 460.2C230.596 461.768 230.052 462.96 228.964 463.776C227.892 464.592 226.412 465 224.524 465H219.772ZM221.5 463.512H224.332C227.34 463.512 228.844 462.416 228.844 460.224C228.844 459.136 228.452 458.304 227.668 457.728C226.9 457.152 225.788 456.864 224.332 456.864H221.5V463.512ZM233.832 465V453.768H235.464V457.992H238.176C239.568 457.992 240.648 458.296 241.416 458.904C242.2 459.512 242.592 460.384 242.592 461.52C242.592 462.64 242.208 463.504 241.44 464.112C240.688 464.704 239.608 465 238.2 465H233.832ZM235.464 463.584H238.368C240.064 463.584 240.912 462.896 240.912 461.52C240.912 460.08 240.064 459.36 238.368 459.36H235.464V463.584ZM256.752 465.432C255.312 465.432 254.04 465.136 252.936 464.544C251.848 463.952 251 463.192 250.392 462.264L251.736 461.4C252.856 463.08 254.52 463.92 256.728 463.92C258.76 463.92 260.416 463.248 261.696 461.904C262.992 460.544 263.68 458.88 263.76 456.912H255.192V455.4H263.712C263.472 453.592 262.728 452.088 261.48 450.888C260.232 449.688 258.648 449.088 256.728 449.088C255.72 449.088 254.8 449.312 253.968 449.76C253.152 450.192 252.544 450.712 252.144 451.32L250.704 450.264C251.296 449.448 252.136 448.8 253.224 448.32C254.328 447.824 255.504 447.576 256.752 447.576C259.296 447.576 261.408 448.424 263.088 450.12C264.768 451.8 265.608 453.928 265.608 456.504C265.608 459.08 264.768 461.216 263.088 462.912C261.424 464.592 259.312 465.432 256.752 465.432ZM271.673 465.288C269.801 465.288 268.353 464.656 267.329 463.392L268.505 462.432C269.305 463.44 270.361 463.944 271.673 463.944C272.905 463.944 273.905 463.56 274.673 462.792C275.457 462.024 275.889 461.04 275.969 459.84H270.569V458.472H275.921C275.745 457.368 275.281 456.48 274.529 455.808C273.777 455.136 272.833 454.8 271.697 454.8C270.449 454.8 269.393 455.304 268.529 456.312L267.425 455.304C268.385 454.088 269.817 453.48 271.721 453.48C273.529 453.48 274.969 454.024 276.041 455.112C277.129 456.2 277.673 457.624 277.673 459.384C277.673 461.144 277.121 462.568 276.017 463.656C274.929 464.744 273.481 465.288 271.673 465.288ZM300.904 465.432C298.552 465.432 296.616 464.624 295.096 463.008C293.592 461.392 292.792 459.36 292.696 456.912H289V465H287.272V448.008H289V455.4H292.744C292.984 453.128 293.848 451.256 295.336 449.784C296.824 448.312 298.68 447.576 300.904 447.576C303.32 447.576 305.288 448.432 306.808 450.144C308.344 451.84 309.112 453.96 309.112 456.504C309.112 459.048 308.344 461.176 306.808 462.888C305.288 464.584 303.32 465.432 300.904 465.432ZM300.904 463.896C302.856 463.896 304.408 463.176 305.56 461.736C306.712 460.28 307.288 458.536 307.288 456.504C307.288 454.472 306.712 452.728 305.56 451.272C304.408 449.816 302.856 449.088 300.904 449.088C298.936 449.088 297.376 449.816 296.224 451.272C295.088 452.728 294.52 454.472 294.52 456.504C294.52 458.536 295.088 460.28 296.224 461.736C297.376 463.176 298.936 463.896 300.904 463.896ZM322.541 465.288C320.941 465.288 319.605 464.784 318.533 463.776C317.477 462.752 316.893 461.44 316.781 459.84H314.237V465H312.605V453.768H314.237V458.472H316.829C317.037 457 317.661 455.8 318.701 454.872C319.757 453.944 321.037 453.48 322.541 453.48C324.221 453.48 325.597 454.04 326.669 455.16C327.757 456.28 328.301 457.688 328.301 459.384C328.301 461.08 327.757 462.488 326.669 463.608C325.597 464.728 324.221 465.288 322.541 465.288ZM319.613 462.624C320.349 463.472 321.325 463.896 322.541 463.896C323.757 463.896 324.733 463.472 325.469 462.624C326.205 461.76 326.573 460.68 326.573 459.384C326.573 458.088 326.205 457.008 325.469 456.144C324.733 455.28 323.757 454.848 322.541 454.848C321.325 454.848 320.349 455.28 319.613 456.144C318.877 457.008 318.509 458.088 318.509 459.384C318.509 460.68 318.877 461.76 319.613 462.624ZM336.577 465L341.185 457.488C339.857 457.248 338.817 456.736 338.065 455.952C337.329 455.152 336.961 454.104 336.961 452.808C336.961 451.24 337.497 450.048 338.569 449.232C339.657 448.416 341.145 448.008 343.033 448.008H347.785V465H346.057V457.632H343.057L338.689 465H336.577ZM343.225 456.144H346.057V449.496H343.225C340.217 449.496 338.713 450.592 338.713 452.784C338.713 453.872 339.097 454.704 339.865 455.28C340.649 455.856 341.769 456.144 343.225 456.144ZM351.471 465L354.471 460.44C353.607 460.248 352.927 459.88 352.431 459.336C351.951 458.776 351.711 458.056 351.711 457.176C351.711 456.088 352.095 455.248 352.863 454.656C353.631 454.064 354.671 453.768 355.983 453.768H360.807V465H359.175V460.584H356.223L353.463 465H351.471ZM356.079 459.192H359.175V455.136H356.079C354.271 455.136 353.367 455.816 353.367 457.176C353.367 458.52 354.271 459.192 356.079 459.192Z" fill="white"/>
</svg>
