<svg width="424" height="426" viewBox="0 0 424 426" fill="none" xmlns="http://www.w3.org/2000/svg">
<g clip-path="url(#clip0_185_2231)">
<mask id="mask0_185_2231" style="mask-type:alpha" maskUnits="userSpaceOnUse" x="3" y="78" width="421" height="348">
<path d="M261.855 393.857C261.855 402.399 265.052 409.79 271.446 416.033C277.839 422.275 285.411 425.396 294.16 425.396C302.909 425.396 310.481 422.275 316.875 416.033C323.268 409.79 326.465 402.399 326.465 393.857C326.465 385.315 323.268 377.923 316.875 371.681C310.481 365.439 302.909 362.318 294.16 362.318C285.411 362.318 277.839 365.439 271.446 371.681C265.052 377.923 261.855 385.315 261.855 393.857ZM35.7207 393.857C35.7207 402.399 38.9175 409.79 45.3112 416.033C51.7049 422.275 59.2764 425.396 68.0256 425.396C76.7749 425.396 84.3463 422.275 90.7401 416.033C97.1337 409.79 100.331 402.399 100.331 393.857C100.331 385.315 97.1337 377.923 90.7401 371.681C84.3463 365.439 76.7749 362.318 68.0256 362.318C59.2764 362.318 51.7049 365.439 45.3112 371.681C38.9175 377.923 35.7207 385.315 35.7207 393.857ZM3.41577 125.777V251.932C3.41577 255.875 4.80386 259.365 7.58008 262.404C10.3563 265.443 13.7635 267.209 17.8016 267.702L281.289 297.762C279.101 307.618 278.008 313.367 278.008 315.01C278.008 317.638 280.027 322.895 284.065 330.779H51.8732C47.4985 330.779 43.7128 332.34 40.516 335.461C37.3191 338.582 35.7207 342.278 35.7207 346.549C35.7207 350.819 37.3191 354.515 40.516 357.636C43.7128 360.758 47.4985 362.318 51.8732 362.318H310.313C314.687 362.318 318.473 360.758 321.67 357.636C324.867 354.515 326.465 350.819 326.465 346.549C326.465 344.742 325.792 342.155 324.446 338.787C323.1 335.42 321.754 332.463 320.408 329.917C319.062 327.371 317.253 324.085 314.982 320.061C312.71 316.036 311.406 313.614 311.07 312.792L355.741 110.008H407.227C411.602 110.008 415.388 108.447 418.585 105.326C421.781 102.205 423.38 98.509 423.38 94.2382C423.38 89.9673 421.781 86.2713 418.585 83.1503C415.388 80.0293 411.602 78.4688 407.227 78.4688H342.618C339.925 78.4688 337.528 79.0026 335.425 80.0703C333.321 81.1381 331.681 82.4111 330.503 83.8895C329.325 85.3679 328.232 87.3801 327.222 89.9262C326.213 92.4723 325.54 94.6077 325.203 96.3325C324.867 98.0573 324.404 100.48 323.815 103.601C323.226 106.722 322.848 108.858 322.679 110.008H19.5682C15.1936 110.008 11.4079 111.568 8.21103 114.689C5.01419 117.81 3.41577 121.506 3.41577 125.777Z" fill="black"/>
</mask>
<g mask="url(#mask0_185_2231)">
<path d="M315.477 373.112C309.448 367.226 302.375 364.318 294.16 364.318C285.945 364.318 278.872 367.226 272.843 373.112C266.815 378.997 263.855 385.881 263.855 393.857C263.855 401.833 266.815 408.716 272.843 414.601C278.872 420.487 285.945 423.396 294.16 423.396C302.375 423.396 309.448 420.487 315.477 414.601C321.505 408.716 324.465 401.833 324.465 393.857C324.465 385.881 321.505 378.997 315.477 373.112ZM89.3429 373.112C83.314 367.226 76.2405 364.318 68.0256 364.318C59.8108 364.318 52.7374 367.226 46.7084 373.112C40.6804 378.997 37.7207 385.881 37.7207 393.857C37.7207 401.833 40.6804 408.716 46.7084 414.601C52.7374 420.487 59.8108 423.396 68.0256 423.396C76.2405 423.396 83.314 420.487 89.3429 414.601C95.3709 408.716 98.3306 401.833 98.3306 393.857C98.3306 385.881 95.3709 378.997 89.3429 373.112ZM281.515 295.775L283.722 296.027L283.241 298.195C282.149 303.115 281.334 306.994 280.793 309.84C280.235 312.769 280.008 314.416 280.008 315.01C280.008 315.929 280.39 317.606 281.389 320.206C282.363 322.742 283.842 325.957 285.845 329.868L287.336 332.779H284.065H51.8732C48.033 332.779 44.7452 334.127 41.9131 336.892C39.0819 339.656 37.7207 342.844 37.7207 346.549C37.7207 350.254 39.0819 353.441 41.9131 356.205C44.7452 358.97 48.033 360.318 51.8732 360.318H68.0256H294.16H310.313C314.153 360.318 317.441 358.97 320.273 356.205C323.104 353.441 324.465 350.254 324.465 346.549C324.465 345.141 323.916 342.85 322.589 339.529C321.263 336.212 319.946 333.322 318.64 330.852C317.306 328.328 315.507 325.061 313.24 321.044C311.002 317.079 309.616 314.518 309.219 313.55L308.982 312.972L309.117 312.362L353.788 109.577L354.134 108.008H355.741H407.227C411.068 108.008 414.355 106.66 417.187 103.895C420.019 101.131 421.38 97.9431 421.38 94.2382C421.38 90.5332 420.019 87.3454 417.187 84.5814C414.355 81.8164 411.068 80.4688 407.227 80.4688H342.618C340.195 80.4688 338.115 80.9473 336.33 81.8537C334.421 82.8229 333.028 83.9299 332.067 85.1357L330.503 83.8895L332.067 85.1357C331.054 86.4077 330.048 88.226 329.081 90.6634C328.095 93.1507 327.47 95.1591 327.166 96.7155C326.831 98.4342 326.369 100.852 325.78 103.972C325.191 107.097 324.82 109.194 324.658 110.297L324.408 112.008H322.679H19.5683C15.728 112.008 12.4403 113.355 9.60822 116.12C6.77698 118.884 5.41577 122.072 5.41577 125.777V251.932C5.41577 255.352 6.60089 258.367 9.0567 261.055C11.5133 263.744 14.4823 265.28 18.0371 265.715C18.0393 265.716 18.0416 265.716 18.0439 265.716L281.515 295.775Z" stroke="#5E5E5E" stroke-width="4"/>
</g>
</g>
<g clip-path="url(#clip1_185_2231)">
<path d="M252.926 72.9498L253.807 72.553L254.043 71.6167L255.834 64.5358C261.493 42.1565 284.372 28.6135 306.958 34.3252L342.634 43.3466C345.519 44.0762 347.244 46.9751 346.529 49.8025L341.158 71.045L340.667 72.9839L342.606 73.4743C365.193 79.1859 378.883 101.976 373.224 124.356C367.565 146.735 344.687 160.278 322.1 154.566L320.161 154.076L319.671 156.015L305.346 212.662L304.856 214.601L306.795 215.091C329.381 220.803 343.072 243.593 337.413 265.972C331.753 288.352 308.875 301.895 286.288 296.183L284.349 295.693L283.859 297.632L278.487 318.874C277.772 321.702 274.876 323.432 271.991 322.702L222.046 310.072C209.668 306.942 201.488 295.909 201.395 283.791L201.387 282.77L200.556 282.178L151.51 247.221C151.508 247.22 151.506 247.219 151.505 247.218C142.418 240.651 138.262 229.278 140.987 218.5L164.926 123.834C164.926 123.834 164.926 123.833 164.926 123.833C165.927 119.879 167.811 116.201 170.439 113.072C173.067 109.943 176.373 107.443 180.114 105.756C180.114 105.756 180.114 105.756 180.114 105.756L252.926 72.9498ZM220.918 202.612L221.408 200.673L219.469 200.183L176.659 189.357L174.72 188.867L174.23 190.806L165.649 224.736L165.316 226.053L166.417 226.848L204.93 254.667L207.318 256.392L208.04 253.537L220.918 202.612ZM223.86 182.818L225.799 183.309L226.289 181.37L244.871 107.888L245.887 103.873L242.111 105.574L190.706 128.737L189.825 129.134L189.588 130.07L179.601 169.563L179.111 171.502L181.05 171.993L223.86 182.818ZM290.679 278.818C303.54 282.071 316.649 274.339 319.885 261.54C323.122 248.741 315.264 235.708 302.403 232.455C289.543 229.203 276.434 236.935 273.197 249.734C269.961 262.533 277.818 275.566 290.679 278.818ZM326.491 137.202C339.352 140.454 352.46 132.723 355.697 119.923C358.934 107.124 351.076 94.091 338.215 90.8388C325.354 87.5866 312.246 95.318 309.009 108.117C305.772 120.916 313.63 133.95 326.491 137.202Z" stroke="#5E5E5E" stroke-width="4"/>
</g>
<path d="M121.97 232.94L123.88 233.536L124.492 231.632L131.001 211.377C133.044 205.022 140.017 201.427 146.515 203.455C153.014 205.483 156.616 212.377 154.574 218.732L143.724 252.49C141.682 258.845 134.709 262.44 128.21 260.412L126.301 259.816L125.689 261.72L121.961 273.319L112.084 270.238L115.812 258.638L116.424 256.734L114.515 256.139L32.3422 230.5L30.433 229.904L29.8211 231.808L26.0933 243.407L16.2163 240.325L19.9441 228.726L20.556 226.822L18.6468 226.226C12.1481 224.199 8.54609 217.304 10.5884 210.95L21.4378 177.191C22.4242 174.122 24.6081 171.56 27.5157 170.072C30.4243 168.583 33.819 168.292 36.9519 169.27C40.0848 170.247 42.6906 172.411 44.1994 175.277C45.7077 178.143 45.9967 181.477 45.0102 184.546L38.5006 204.801L37.8887 206.705L39.7979 207.301L121.97 232.94ZM48.5853 163.052L52.8304 149.843C54.8727 143.488 61.8457 139.893 68.3444 141.921L136.822 163.287C143.32 165.315 146.922 172.209 144.88 178.564L140.613 191.84C131.543 192.687 123.343 198.691 120.4 207.846L116.607 219.648L51.9486 199.474L55.7632 187.604C58.684 178.516 55.5081 168.897 48.5853 163.052Z" stroke="#5E5E5E" stroke-width="4"/>
<defs>
<clipPath id="clip0_185_2231">
<rect width="419.964" height="346.927" fill="white" transform="translate(3.41602 78.4688)"/>
</clipPath>
<clipPath id="clip1_185_2231">
<rect width="292.149" height="234.763" fill="white" transform="translate(107.756 283.233) rotate(-75.8087)"/>
</clipPath>
</defs>
</svg>
