<svg width="343" height="335" viewBox="0 0 343 335" fill="none" xmlns="http://www.w3.org/2000/svg">
<path d="M169.442 23.0957C168.528 24.0103 168.07 30.7561 168.07 44.8192C168.07 62.5411 168.299 65.2851 169.9 65.9711C170.929 66.3141 172.186 65.9711 172.758 65.0564C173.33 64.1417 173.787 54.652 173.787 43.9045C173.787 29.0411 173.444 24.0103 172.301 22.9813C171.157 22.0667 170.357 22.181 169.442 23.0957Z" fill="#151515"/>
<path d="M94.8975 44.2475C94.8975 46.8772 114.448 80.3772 116.278 80.9488C117.078 81.1775 118.107 80.4915 118.45 79.5768C119.479 76.8328 99.4708 42.3038 96.9555 42.3038C95.6978 42.3038 94.8975 43.1041 94.8975 44.2475Z" fill="#151515"/>
<path d="M232.784 59.5679C223.294 76.0321 221.579 80.6055 225.123 80.6055C226.953 80.6055 246.732 47.4485 246.847 44.2471C246.961 43.1038 246.161 42.3034 244.903 42.3034C243.417 42.3034 239.872 47.4485 232.784 59.5679Z" fill="#151515"/>
<path d="M143.375 88.4949C139.602 90.2099 134.914 95.3549 134.914 97.8703C134.914 99.9283 133.885 99.9283 131.37 97.6416C130.112 96.4983 127.368 95.8123 123.595 95.8123C113.419 95.9266 104.273 102.672 101.757 112.048C100.843 115.592 99.6995 116.964 96.8411 118.222C92.0391 120.165 87.3515 125.768 85.7508 131.256C84.1501 137.201 84.2645 139.602 86.7798 144.519L89.0665 148.749L86.3225 152.636C80.3771 161.555 81.7491 176.532 89.5238 184.879C91.1245 186.708 91.4675 187.852 90.5528 188.881C86.3225 194.026 86.6655 206.488 91.2388 212.548C94.2115 216.664 100.385 220.665 103.587 220.665C106.788 220.665 106.674 220.437 105.073 226.84C101.643 240.331 113.877 252.336 127.825 249.135C133.542 247.763 133.428 247.763 134.228 250.85C135.143 254.737 142.117 260.454 147.148 261.369C153.55 262.626 161.211 260.111 165.555 255.538L169.214 251.536L168.985 174.36L168.642 97.2986L164.869 93.4112C159.038 87.3515 150.463 85.4078 143.375 88.4949ZM156.98 90.7815C159.038 91.5819 162.125 93.9829 163.84 95.9266C166.927 99.5853 166.927 99.6996 166.927 118.45V137.316L161.554 136.515C158.467 136.172 155.38 135.258 154.579 134.572C153.779 134 152.75 133.771 152.293 134.229C151.149 135.486 155.494 138.345 158.467 138.345C159.953 138.345 162.354 138.802 163.955 139.488L166.927 140.631V155.838V171.044L160.067 174.36C151.835 178.247 146.805 182.935 145.776 187.623C145.204 190.253 144.404 190.939 141.888 190.939C137.544 190.939 126.911 194.254 126.911 195.512C126.911 196.998 127.711 196.884 133.199 194.94C138.687 192.997 147.834 192.768 151.264 194.483C152.636 195.169 155.151 197.113 156.98 198.713C159.153 200.886 160.067 201.229 160.067 199.971C160.067 197.57 155.608 193.568 151.149 191.968C147.033 190.596 146.805 189.91 149.091 185.336C150.235 183.278 153.779 180.648 158.81 177.904L166.927 173.674V202.258C166.927 226.611 166.699 230.841 165.327 230.27C164.412 229.927 161.211 230.727 158.238 231.985C153.207 234.271 152.75 234.271 150.692 232.556C148.863 230.841 148.634 230.841 148.634 232.328C148.634 233.357 149.434 234.729 150.349 235.529C151.835 236.787 153.207 236.558 158.352 234.5C161.782 233.014 165.098 232.213 165.784 232.671C166.356 233.014 166.927 237.358 166.927 242.389C166.927 251.193 166.813 251.307 162.926 254.737C155.837 261.026 145.89 261.026 139.83 254.623C135.028 249.592 134.114 246.276 137.086 244.676C138.344 243.99 140.745 241.131 142.46 238.273C146.004 232.328 145.776 225.582 142.003 221.466C136.858 215.749 136.858 214.263 141.317 209.232C143.603 206.717 145.204 204.316 144.747 203.858C143.832 202.829 136.057 210.375 136.057 212.319C136.057 214.949 125.653 211.747 121.651 207.974C120.165 206.602 118.907 206.145 118.45 206.717C117.307 208.66 124.167 213.577 129.083 214.377C132.856 214.949 134.571 216.206 138.458 221.008C142.46 226.154 143.032 227.526 142.574 231.184C141.431 239.988 132.742 247.42 123.595 247.42C116.506 247.42 111.476 244.218 108.389 238.044C106.216 233.585 106.102 232.442 107.36 227.64C109.418 219.636 109.418 219.065 106.902 218.607C100.957 217.693 99.2421 217.007 95.6978 213.805C85.1791 204.659 89.0665 185.908 101.529 185.908C103.815 185.908 106.674 186.365 107.817 186.822C109.075 187.394 109.761 187.28 109.761 186.479C109.761 183.735 104.158 182.478 98.5561 183.964C93.1825 185.336 93.1825 185.336 90.2098 181.792C85.0648 175.618 83.4641 167.157 85.9795 158.811C87.8088 152.636 90.5528 150.35 93.8685 152.065C98.7848 154.809 103.244 155.495 107.703 154.352C112.619 152.979 119.593 147.606 116.506 147.491C115.477 147.491 113.991 148.292 113.191 149.092C111.247 151.607 104.501 153.437 100.728 152.636C95.5835 151.493 88.2661 144.633 87.3515 140.06C86.4368 135.258 88.4948 129.084 92.2678 124.51C96.3838 119.708 99.6995 118.565 103.701 120.623C105.416 121.538 107.588 122.338 108.389 122.338C109.189 122.338 110.332 123.71 111.018 125.311C112.39 128.969 113.762 128.169 112.733 124.282C112.276 122.452 110.561 120.966 107.474 119.708C102.329 117.764 101.872 116.164 104.73 110.218C107.245 105.073 113.419 100.043 119.365 98.3276C125.653 96.6126 132.056 98.8993 133.885 103.701C134.571 105.416 136.172 108.961 137.315 111.59C140.288 118.222 140.059 120.508 135.829 123.939C133.771 125.654 131.37 127.483 130.569 128.169C129.769 128.855 129.426 130.456 129.769 131.828C130.684 134.915 137.772 141.775 140.059 141.775C142.689 141.775 142.003 140.288 138.115 137.773C136.172 136.515 133.885 134.343 132.97 132.971C131.598 130.913 131.598 130.341 133.313 128.969C138.916 124.51 141.774 121.08 141.774 119.136C141.774 117.078 142.46 116.85 146.919 116.964C149.663 117.078 152.521 116.621 153.322 115.821C154.351 114.792 153.436 114.563 149.434 114.677C143.489 114.906 140.173 112.619 137.544 106.56C135.028 100.5 137.086 95.2406 143.489 91.2389C147.605 88.8379 151.95 88.6092 156.98 90.7815Z" fill="#151515"/>
<path d="M120.622 126.453C115.82 134.114 111.59 137.315 107.474 136.401C105.302 136.058 104.044 136.286 104.044 137.087C104.044 138.344 106.902 138.802 111.476 138.344C112.733 138.23 114.906 137.087 116.392 135.715C119.022 133.314 125.767 123.366 125.767 121.994C125.767 119.822 123.595 121.766 120.622 126.453Z" fill="#151515"/>
<path d="M124.51 140.06C123.138 141.318 125.882 150.236 128.283 152.865C131.37 156.181 134.342 156.181 142.003 152.637C150.235 148.864 154.694 148.864 157.666 152.865C159.839 155.838 159.953 155.838 160.067 153.666C160.182 147.263 151.835 145.777 142.003 150.35C138.573 151.951 134.914 153.208 133.885 153.208C131.027 153.208 128.283 149.778 126.568 144.176C125.882 141.432 124.853 139.603 124.51 140.06Z" fill="#151515"/>
<path d="M100.613 161.212C100.613 161.783 102.443 162.355 104.615 162.355C108.388 162.355 108.96 162.812 110.903 167.157C112.161 169.901 113.19 172.988 113.19 174.017C113.19 175.16 114.448 176.875 116.048 177.904C118.449 179.505 119.936 179.619 126.11 178.476C130.111 177.79 135.599 177.218 138.229 177.218C141.43 177.218 142.802 176.761 142.231 175.961C141.773 175.16 139.029 174.817 134.913 175.16L128.396 175.618L128.968 170.244C129.311 166.7 128.968 164.642 128.053 164.07C126.91 163.384 126.681 163.956 127.253 166.471C128.053 170.816 126.453 174.703 123.023 176.189C119.135 178.019 116.163 175.961 114.448 170.13C112.047 161.898 110.332 160.068 105.187 160.068C102.671 160.068 100.613 160.526 100.613 161.212Z" fill="#151515"/>
<path d="M184.992 87.9225C180.647 89.2945 177.217 91.9241 174.816 95.6972C172.758 98.7842 172.644 102.9 172.644 175.731V252.45L176.074 255.994C181.676 261.482 190.937 263.312 198.14 260.224C202.256 258.509 208.087 252.335 208.087 249.706C208.087 248.334 209.002 248.219 212.432 248.905C229.239 252.221 239.872 241.359 236.213 224.438C235.413 221.122 235.641 220.893 239.414 220.207C244.445 219.293 250.162 214.491 252.22 209.574C254.278 204.658 254.278 195.054 252.105 190.938C250.39 187.736 250.505 187.279 253.706 182.82C260.223 174.016 260.68 159.724 254.849 151.721C253.02 149.206 252.791 148.177 253.82 146.919C256.107 144.175 257.022 137.544 255.878 132.056C254.621 125.996 247.646 117.764 243.873 117.764C241.472 117.764 240.1 115.706 240.1 112.161C240.1 108.731 233.583 100.842 228.553 98.3269C223.065 95.4685 213.689 95.0112 210.031 97.5265C207.63 99.1272 207.401 99.0129 205.8 95.6972C204.886 93.7535 202.828 91.3525 201.227 90.0948C197.911 87.6938 189.451 86.5504 184.992 87.9225ZM199.969 92.3815C206.143 96.9549 206.486 106.216 200.655 112.047C198.369 114.334 196.768 114.905 192.652 114.677C189.794 114.562 187.507 114.905 187.507 115.477C187.507 116.735 193.224 117.649 196.997 116.963C199.626 116.392 200.084 116.735 200.084 118.907C200.084 120.622 202.027 123.366 205.343 126.339L210.488 131.141L207.515 134.685C205.915 136.629 203.514 138.573 202.37 138.916C201.113 139.373 200.084 140.173 200.084 140.745C200.084 142.803 203.056 141.774 207.287 138.23C213.118 133.428 213.003 129.655 206.944 124.738C201.341 120.279 201.227 118.335 205.8 108.16C208.659 101.871 210.031 100.156 213.346 98.7842C221.121 95.5829 232.669 101.185 236.785 110.218C239.757 116.735 239.643 117.421 233.926 119.822C230.954 121.194 228.781 123.023 228.324 124.509C227.524 127.597 229.467 128.854 230.382 125.767C230.725 124.509 233.469 122.451 236.213 121.194C240.901 119.136 241.701 119.136 244.674 120.622C251.762 124.281 256.107 134.114 253.82 141.202C252.22 146.004 247.189 150.463 241.472 152.178C236.899 153.55 232.554 152.293 226.723 147.948C224.551 146.347 224.094 146.347 224.094 147.719C224.094 150.349 233.126 154.694 238.385 154.694C241.015 154.694 244.788 153.779 246.846 152.521L250.619 150.349L252.791 152.979C257.708 159.153 258.165 169.786 253.706 178.59C250.962 183.963 248.104 185.564 244.102 184.078C242.501 183.506 239.986 182.934 238.5 182.934C235.413 182.934 231.182 185.793 232.44 187.05C232.897 187.508 233.926 187.279 234.612 186.593C237.814 183.392 247.532 186.822 250.505 192.195C251.191 193.567 251.877 197.112 251.877 200.085C251.991 209.231 245.817 216.777 237.013 218.264C232.326 219.064 232.326 219.178 234.269 227.067C237.356 239.301 226.152 250.392 214.261 247.076C209.002 245.59 202.828 240.902 200.655 236.672C198.597 232.67 198.483 226.496 200.427 223.98C206.258 216.549 207.172 215.863 212.775 214.376C218.834 212.776 224.551 208.66 223.408 206.716C222.95 206.144 221.578 206.716 220.092 208.088C216.548 211.404 206.601 214.376 205.915 212.433C205.114 210.146 197.797 203.172 196.997 203.972C196.539 204.315 197.911 206.373 199.855 208.431C204.428 213.119 204.428 214.834 200.084 220.893C197.911 223.866 196.654 226.953 196.654 229.469C196.654 234.271 200.198 241.474 204.2 244.561L207.172 246.962L205 250.62C200.427 258.509 191.966 261.368 183.62 257.938C176.188 254.851 174.93 252.564 174.93 242.503C174.93 237.472 175.502 233.013 176.074 232.67C176.76 232.213 180.075 233.013 183.505 234.499C188.65 236.557 190.022 236.786 191.509 235.528C192.423 234.728 193.224 233.356 193.224 232.327C193.224 230.841 192.995 230.841 191.166 232.556C189.108 234.271 188.65 234.271 183.62 231.984C180.647 230.726 177.446 229.926 176.645 230.269C175.273 230.726 174.93 226.267 174.702 202.829C174.473 187.393 174.587 174.588 174.816 174.359C175.045 174.131 178.132 175.388 181.676 177.103C188.536 180.648 192.538 184.306 193.681 188.308C194.367 190.366 193.795 190.938 190.594 191.967C186.249 193.453 179.847 199.513 181.562 200.542C182.133 200.885 183.62 200.085 184.763 198.827C189.908 193.11 198.826 191.624 208.087 194.94C213.804 196.998 214.947 196.998 214.947 195.511C214.947 194.254 204.314 190.938 199.855 190.938C197.111 190.938 196.425 190.366 195.853 187.508C195.053 183.163 188.879 177.675 180.99 174.245L174.93 171.501V156.066C174.93 139.144 175.273 138.344 182.591 138.344C186.249 138.344 190.823 135.6 189.565 134.228C189.108 133.771 188.079 133.999 187.278 134.571C186.478 135.257 183.277 136.172 180.075 136.515L174.359 137.315L174.93 118.107C175.273 106.102 176.074 97.9839 176.874 96.4975C180.761 89.8661 193.452 87.5794 199.969 92.3815Z" fill="#151515"/>
<path d="M216.091 122.109C216.091 122.795 218.149 126.454 220.778 130.227C225.923 137.659 230.154 140.174 234.956 138.345C238.729 136.858 238.614 135.601 234.727 136.401C230.154 137.201 226.838 135.143 222.836 129.083C219.063 123.138 216.091 120.051 216.091 122.109Z" fill="#151515"/>
<path d="M215.862 140.173C215.29 140.631 214.947 142.346 214.947 144.061C214.947 147.834 210.945 153.207 208.087 153.207C206.944 153.207 203.285 151.95 199.855 150.349C193.91 147.605 187.05 146.69 184.534 148.405C182.362 149.777 180.533 154.122 181.79 154.922C182.362 155.265 182.934 155.151 182.934 154.465C182.934 152.178 186.592 149.777 190.137 149.777C192.195 149.777 196.425 151.149 199.512 152.636C202.713 154.236 206.601 155.494 208.316 155.494C213.232 155.494 218.034 148.062 217.005 141.774C216.776 140.402 216.319 139.716 215.862 140.173Z" fill="#151515"/>
<path d="M229.811 163.726C228.553 165.784 227.181 169.214 226.838 171.272C226.038 175.388 222.836 177.675 219.406 176.646C216.091 175.617 213.461 170.929 214.261 167.614C214.604 166.013 214.49 164.527 213.918 164.184C212.318 163.155 211.174 169.9 212.546 172.53C213.232 173.788 213.804 174.931 213.804 175.16C213.804 175.503 210.831 175.388 207.058 175.16C202.942 174.817 200.084 175.16 199.627 175.96C199.055 176.76 200.427 177.218 203.857 177.218C206.601 177.218 211.632 177.789 215.062 178.475C224.094 180.305 226.952 178.818 229.125 171.387C231.411 163.726 232.669 162.354 237.357 162.354C239.529 162.354 241.244 161.782 241.244 161.211C241.244 160.525 239.186 160.067 236.671 160.067C232.669 160.067 231.754 160.639 229.811 163.726Z" fill="#151515"/>
<path d="M40.817 97.6416C40.0167 99.8139 41.846 101.072 60.5967 111.819C75.46 120.394 78.89 121.537 78.89 117.993C78.89 116.507 73.8594 113.077 62.083 106.331C43.7897 95.8122 41.846 95.0119 40.817 97.6416Z" fill="#151515"/>
<path d="M280.231 105.759C264.11 115.135 261.366 117.307 262.509 119.136C263.767 121.194 267.54 119.594 283.775 110.218C296.238 103.015 300.697 99.8138 300.697 98.2132C300.697 94.5544 297.495 95.6978 280.231 105.759Z" fill="#151515"/>
<path d="M21.7237 170.93C18.8654 174.36 21.7237 174.932 42.8754 174.932C59.5681 174.932 63.9127 174.589 64.3701 173.331C65.7421 169.787 62.5407 169.215 42.7611 169.215C26.9831 169.215 22.8671 169.558 21.7237 170.93Z" fill="#151515"/>
<path d="M277.83 170.93C274.972 174.36 277.83 174.932 298.982 174.932C315.675 174.932 320.019 174.589 320.477 173.331C321.849 169.787 318.647 169.215 298.868 169.215C283.09 169.215 278.974 169.558 277.83 170.93Z" fill="#151515"/>
<path d="M58.4244 233.814C42.3034 243.189 39.5594 245.362 40.7027 247.191C41.9604 249.249 45.5047 247.648 61.8544 238.273C74.431 231.07 78.89 227.869 78.89 226.268C78.89 222.609 75.5744 223.752 58.4244 233.814Z" fill="#151515"/>
<path d="M262.282 225.353C261.138 227.182 263.196 228.783 280.804 238.845C297.382 248.449 300.698 249.592 300.698 246.048C300.698 244.561 295.667 241.131 283.433 234.042C266.055 223.981 263.768 223.066 262.282 225.353Z" fill="#151515"/>
<path d="M104.73 281.262C99.3565 290.638 94.8975 299.099 94.8975 300.013C94.8975 302.414 96.6125 303.1 98.5561 301.5C100.728 299.67 118.907 267.771 118.907 265.713C118.907 264.798 117.993 264.112 116.735 264.112C115.249 264.112 111.933 268.8 104.73 281.262Z" fill="#151515"/>
<path d="M222.95 266.056C223.065 269.371 242.844 302.414 244.674 302.414C248.104 302.414 246.274 297.498 236.67 280.919C229.925 269.143 226.38 264.112 225.008 264.112C223.751 264.112 222.95 264.912 222.95 266.056Z" fill="#151515"/>
<path d="M137.429 267.085C136.057 267.999 134.914 270.057 134.914 271.544C134.914 277.375 137.315 277.832 171.158 277.832C200.884 277.832 202.485 277.718 204.657 275.545C205.915 274.288 206.944 272.458 206.944 271.544C206.944 270.629 205.915 268.8 204.657 267.542C202.485 265.37 200.884 265.255 171.158 265.255C144.861 265.255 139.602 265.484 137.429 267.085Z" fill="#151515"/>
<path d="M142.46 285.379C140.287 287.437 140.059 291.667 142.002 293.611C143.946 295.554 197.911 295.554 199.855 293.611C201.913 291.553 201.57 287.551 199.169 285.493C197.34 283.778 193.567 283.549 170.586 283.549C148.176 283.549 143.946 283.778 142.46 285.379Z" fill="#151515"/>
<path d="M153.779 303.443C152.293 305.616 152.179 306.645 153.322 309.16L154.694 312.133H170.358C187.05 312.133 188.651 311.675 188.651 306.416C188.651 301.271 187.05 300.699 170.701 300.699C155.952 300.699 155.494 300.814 153.779 303.443Z" fill="#151515"/>
<mask id="path-23-outside-1_192_1305" maskUnits="userSpaceOnUse" x="66.8232" y="67.5293" width="209" height="203" fill="black">
<rect fill="white" x="66.8232" y="67.5293" width="209" height="203"/>
<path d="M119.157 84.5044C127.262 79.5705 145.939 73.1094 156.158 71.6997C172.602 69.3502 186.933 70.7599 203.73 76.2812C239.438 88.1461 265.28 118.807 271.388 156.516C273.032 167.441 272.21 187.882 269.509 197.632C261.639 226.883 242.845 250.261 216.886 263.3L208.428 267.529H171.075C134.31 267.529 133.605 267.529 127.38 264.71C102.008 253.55 80.7472 228.41 72.5249 199.864C70.2931 192.111 69.8232 187.882 69.8232 172.493C69.8232 156.986 70.1756 152.874 72.5249 145.004C79.8075 119.864 96.4871 98.1314 119.157 84.5044Z"/>
</mask>
<path d="M233.918 97.3091L235.382 97.6345L235.378 97.6537L235.373 97.6729L233.918 97.3091ZM234.387 98.1314L233.216 97.1944L233.293 97.0986L233.384 97.0165L234.387 98.1314ZM238.851 102.243L240.147 102.999L240.103 103.074L240.051 103.143L238.851 102.243ZM239.791 102.948L240.203 104.39L240.092 104.422L239.977 104.436L239.791 102.948ZM241.2 104.592H242.7V104.667L242.693 104.742L241.2 104.592ZM241.905 106.12L241.005 104.92L241.067 104.873L241.133 104.833L241.905 106.12ZM243.667 109.174L242.207 109.518L243.667 109.174ZM246.134 113.403L246.66 111.999L246.66 111.999L246.134 113.403ZM248.131 115.518L248.674 116.916L248.586 116.95L248.494 116.973L248.131 115.518ZM255.296 122.214L253.993 121.469L254.001 121.456L254.009 121.442L255.296 122.214ZM255.766 122.684L256.51 123.986L255.766 122.684ZM259.055 128.557L260.47 129.053L260.459 129.084L260.447 129.114L259.055 128.557ZM259.759 129.497L260.554 130.769L260.494 130.807L260.43 130.839L259.759 129.497ZM260.347 133.256L261.832 133.468L261.83 133.476L260.347 133.256ZM260.699 136.076L259.413 135.304L259.427 135.281L259.441 135.258L260.699 136.076ZM260.582 141.127L259.122 140.78L259.129 140.753L259.136 140.727L260.582 141.127ZM258.35 144.886L259.106 143.591L259.114 143.595L259.122 143.6L258.35 144.886ZM259.524 150.877L258.464 151.938L258.412 151.887L258.366 151.831L259.524 150.877ZM259.994 153.814L258.722 153.019L258.734 153.001L258.746 152.982L259.994 153.814ZM260.699 154.284L261.471 155.57L261.449 155.583L261.427 155.595L260.699 154.284ZM261.639 155.811L263.094 156.175L263.08 156.231L263.062 156.286L261.639 155.811ZM261.874 157.808L262.679 159.074L262.662 159.084L262.645 159.095L261.874 157.808ZM263.401 170.378L261.916 170.166L261.918 170.152L261.92 170.137L263.401 170.378ZM261.756 174.137L262.528 172.851L262.528 172.851L261.756 174.137ZM261.404 175.429L260.025 176.02L260 175.963L259.981 175.904L261.404 175.429ZM256.118 184.475L254.889 183.615L254.913 183.581L254.938 183.548L256.118 184.475ZM256 183.888L254.98 182.788L255.009 182.761L255.04 182.735L256 183.888ZM254.943 189.526L255.804 190.755L255.747 190.795L255.688 190.829L254.943 189.526ZM256.353 193.873L254.974 193.282L255.028 193.156L255.105 193.041L256.353 193.873ZM256.94 194.343L256.108 193.095L256.159 193.061L256.212 193.032L256.94 194.343ZM257.293 207.265L256.521 208.551L256.434 208.499L256.355 208.436L257.293 207.265ZM256.94 209.145L258.363 208.67L258.39 208.749L258.407 208.83L256.94 209.145ZM256.235 210.789L256.98 209.487L257.046 209.525L257.107 209.569L256.235 210.789ZM255.413 211.612L254.026 212.183L254.006 212.135L253.99 212.086L255.413 211.612ZM245.781 221.244L246.256 219.821L246.305 219.838L246.352 219.857L245.781 221.244ZM244.959 222.067L243.738 222.939L243.694 222.877L243.657 222.811L244.959 222.067ZM243.315 222.772L243 224.238L242.919 224.221L242.84 224.195L243.315 222.772ZM241.435 223.124L242.607 222.187L242.67 222.266L242.721 222.352L241.435 223.124ZM240.496 231.935L238.999 232.041L238.997 232.009L238.996 231.976L240.496 231.935ZM239.791 238.983L240.462 237.641L240.545 237.683L240.623 237.735L239.791 238.983ZM239.203 240.393L240.64 239.962L240.648 239.988L240.655 240.014L239.203 240.393ZM231.216 249.321L231.96 248.018L231.996 248.039L232.031 248.061L231.216 249.321ZM230.511 249.673L229.234 250.459L229.199 250.403L229.17 250.344L230.511 249.673ZM226.4 251.553L226.991 250.174L227.118 250.228L227.232 250.305L226.4 251.553ZM225.93 252.14L227.178 251.308L227.212 251.359L227.241 251.412L225.93 252.14ZM213.127 252.023L214.469 252.693V252.693L213.127 252.023ZM211.13 254.137L212.322 255.048L212.314 255.059L212.306 255.069L211.13 254.137ZM201.733 262.243L200.977 263.539L200.917 263.504L200.861 263.464L201.733 262.243ZM201.381 262.948L200.094 263.719L200.082 263.698L200.069 263.676L201.381 262.948ZM200.441 263.77L200.872 262.333L200.946 262.356L201.018 262.386L200.441 263.77ZM201.146 265.297L200.641 266.71L200.624 266.704L200.607 266.697L201.146 265.297ZM140.653 265.297L141.23 266.682L141.179 266.703L141.127 266.72L140.653 265.297ZM141.24 263.77L140.663 262.386L140.735 262.356L140.809 262.333L141.24 263.77ZM140.3 262.948L139.014 262.176L139.033 262.146L139.052 262.116L140.3 262.948ZM139.831 262.36L140.731 263.56L140.652 263.619L140.566 263.668L139.831 262.36ZM133.253 256.134L131.845 255.616L131.848 255.608L133.253 256.134ZM132.43 255.429L131.635 254.157L131.661 254.142L131.686 254.127L132.43 255.429ZM131.961 254.02L130.561 253.481L130.564 253.472L130.568 253.463L131.961 254.02ZM131.961 252.728L130.9 251.667V251.667L131.961 252.728ZM129.376 252.023L130.23 250.789L130.3 250.838L130.364 250.894L129.376 252.023ZM128.437 252.14L129.723 251.368L129.736 251.39L129.748 251.412L128.437 252.14ZM115.751 252.14L114.44 251.412L114.444 251.404L114.448 251.396L115.751 252.14ZM115.281 251.67L114.478 250.403L114.507 250.385L114.537 250.368L115.281 251.67ZM100.833 237.926L102.27 237.495L102.272 237.503L102.275 237.511L100.833 237.926ZM102.478 226.061L101.887 227.44L101.846 227.422L101.807 227.403L102.478 226.061ZM101.89 225.004L102.827 223.832L102.858 223.857L102.887 223.883L101.89 225.004ZM100.598 222.537L99.5376 221.476L99.5376 221.476L100.598 222.537ZM99.4237 222.419L98.8783 221.022L98.9347 221L98.9926 220.982L99.4237 222.419ZM83.2139 205.62L81.7523 205.958L81.7505 205.95L81.7488 205.942L83.2139 205.62ZM84.6235 194.343L83.8516 195.629L83.8318 195.617L83.8123 195.605L84.6235 194.343ZM84.9758 193.051L86.3175 192.38L86.3652 192.475L86.3989 192.576L84.9758 193.051ZM85.6806 189.526L86.8416 190.476L86.8259 190.495L86.8095 190.514L85.6806 189.526ZM85.7981 186.237L84.6831 187.241L84.6382 187.191L84.598 187.137L85.7981 186.237ZM85.4457 183.77L84.385 182.71H84.385L85.4457 183.77ZM84.506 183.3L84.8698 184.755L84.8507 184.76L84.8314 184.765L84.506 183.3ZM82.8615 181.656H81.3615V181.581L81.369 181.506L82.8615 181.656ZM81.3345 179.071L79.9248 178.559L79.9426 178.51L79.9638 178.462L81.3345 179.071ZM81.0996 177.661L80.2884 176.4L80.3079 176.387L80.3278 176.375L81.0996 177.661ZM77.9281 162.155L76.4485 161.908L76.4517 161.889L76.4553 161.871L77.9281 162.155ZM81.0996 154.284L81.8714 152.998L81.8714 152.998L81.0996 154.284ZM81.3345 152.992L79.9638 153.601L79.9482 153.566L79.9345 153.53L81.3345 152.992ZM82.1568 151.935L81.4282 153.246L81.4064 153.234L81.3849 153.221L82.1568 151.935ZM82.8615 151.465L84.1096 150.633L84.1219 150.651L84.1336 150.67L82.8615 151.465ZM83.3314 148.41L84.5027 149.347L84.4821 149.373L84.4603 149.398L83.3314 148.41ZM83.3314 146.061L82.5363 147.333L82.5176 147.321L82.4993 147.309L83.3314 146.061ZM82.6266 143.476L84.0311 144.003L84.0311 144.003L82.6266 143.476ZM82.1568 142.537L81.3962 141.244L81.4402 141.218L81.4859 141.195L82.1568 142.537ZM81.452 129.849L82.8867 130.287L82.8863 130.288L81.452 129.849ZM91.2013 116.575L91.6969 115.159L91.7547 115.179L91.8106 115.204L91.2013 116.575ZM92.0236 115.87L93.2956 115.075L93.3334 115.136L93.3652 115.199L92.0236 115.87ZM93.1982 115.283L93.6726 113.86L93.7413 113.883L93.8074 113.912L93.1982 115.283ZM94.6077 115.048L93.3214 115.819H93.3214L94.6077 115.048ZM95.5474 113.403L94.9565 112.024L94.9883 112.011L95.0207 111.999L95.5474 113.403ZM97.8967 114.108L96.5179 114.699L96.5179 114.699L97.8967 114.108ZM97.8967 112.463L96.4299 112.778L96.4278 112.768L96.4258 112.757L97.8967 112.463ZM99.0713 105.885L100.406 106.568L100.393 106.595L100.379 106.62L99.0713 105.885ZM112.227 94.2548L111.7 95.6592L111.692 95.656L111.683 95.6528L112.227 94.2548ZM113.284 93.7849L114.562 92.9988L114.566 93.006L114.57 93.0132L113.284 93.7849ZM125.383 91.3179L125.46 89.8199L125.471 89.8205L125.483 89.8212L125.383 91.3179ZM127.262 92.8451L125.96 92.1009L125.974 92.0752L125.99 92.0501L127.262 92.8451ZM127.732 93.315L128.564 94.563L128.521 94.5917L128.476 94.6173L127.732 93.315ZM131.491 93.7849L132.209 92.4681L132.218 92.4727L132.226 92.4776L131.491 93.7849ZM133.018 93.08L131.639 93.6708L131.628 93.6448L131.618 93.6184L133.018 93.08ZM133.84 92.0228L133.112 93.334L133.09 93.3218L133.068 93.309L133.84 92.0228ZM134.545 91.6703L133.324 92.5421L133.28 92.4804L133.242 92.4145L134.545 91.6703ZM183.84 83.3026C184.054 83.3667 184.218 83.3953 184.326 83.405C184.45 83.416 184.449 83.3984 184.363 83.4209C184.331 83.4294 183.864 83.5514 183.629 84.1064C183.365 84.732 183.676 85.2068 183.736 85.2869L186.136 83.487C186.372 83.802 186.727 84.4824 186.393 85.2732C186.089 85.9934 185.438 86.2402 185.127 86.3221C184.455 86.4991 183.668 86.3831 182.978 86.1761L183.84 83.3026ZM206.837 87.842C208.645 89.8316 209.571 90.6797 210.251 91.0149C210.522 91.1485 210.725 91.1818 210.945 91.1694C211.206 91.1547 211.558 91.0714 212.123 90.856L213.191 93.6594C212.523 93.9139 211.832 94.1243 211.113 94.1647C210.353 94.2074 209.638 94.0571 208.925 93.7061C207.638 93.0721 206.332 91.747 204.617 89.8599L206.837 87.842ZM232.273 94.1645C233.068 94.1645 233.979 94.3581 234.657 95.0029C235.411 95.7188 235.588 96.7067 235.382 97.6345L232.453 96.9837C232.472 96.9015 232.454 96.908 232.471 96.9729C232.479 97.0051 232.493 97.0435 232.516 97.0831C232.54 97.1225 232.566 97.1543 232.591 97.1777C232.64 97.2243 232.662 97.2203 232.609 97.2036C232.554 97.1866 232.446 97.1645 232.273 97.1645V94.1645ZM235.373 97.6729C235.334 97.8295 235.326 97.9213 235.326 97.9496C235.324 98.026 235.349 97.8384 235.205 97.5747C235.121 97.4199 234.941 97.1767 234.611 97.0206C234.261 96.8559 233.919 96.8705 233.675 96.9394C233.29 97.0481 233.146 97.2826 233.216 97.1944L235.559 99.0684C235.394 99.2739 235.044 99.6699 234.491 99.8263C234.163 99.9191 233.745 99.9292 233.33 99.7337C232.934 99.5469 232.7 99.2467 232.571 99.0112C232.34 98.586 232.321 98.1414 232.326 97.8837C232.333 97.578 232.384 97.2586 232.462 96.9453L235.373 97.6729ZM233.384 97.0165C234.388 96.1125 235.67 96.4919 236.277 96.7465C237.023 97.0596 237.765 97.59 238.382 98.1571C239.002 98.7261 239.597 99.4234 239.986 100.145C240.312 100.75 240.78 101.913 240.147 102.999L237.555 101.487C237.333 101.868 237.595 102.032 237.346 101.569C237.159 101.223 236.806 100.782 236.354 100.367C235.9 99.9504 235.445 99.6511 235.115 99.5126C234.647 99.3158 234.974 99.6217 235.391 99.2463L233.384 97.0165ZM240.051 103.143C240.073 103.113 240.211 102.923 240.217 102.596C240.224 102.201 240.035 101.859 239.786 101.655C239.68 101.568 239.584 101.523 239.525 101.5C239.466 101.477 239.427 101.471 239.42 101.47C239.409 101.468 239.465 101.477 239.605 101.459L239.977 104.436C239.647 104.478 239.306 104.486 238.976 104.437C238.662 104.39 238.25 104.274 237.886 103.977C237.476 103.641 237.206 103.129 237.217 102.54C237.227 102.018 237.453 101.608 237.651 101.343L240.051 103.143ZM239.379 101.506C240.447 101.2 241.396 101.633 241.97 102.342C242.49 102.985 242.7 103.818 242.7 104.592H239.7C239.7 104.465 239.682 104.364 239.661 104.295C239.639 104.224 239.622 104.209 239.638 104.229C239.657 104.252 239.724 104.324 239.856 104.371C239.998 104.421 240.128 104.412 240.203 104.39L239.379 101.506ZM242.693 104.742C242.672 104.95 242.675 105.11 242.686 105.219C242.699 105.338 242.717 105.347 242.688 105.287C242.672 105.253 242.52 104.939 242.086 104.783C241.569 104.597 241.155 104.807 241.005 104.92L242.805 107.32C242.42 107.608 241.786 107.862 241.074 107.607C240.445 107.382 240.125 106.883 239.977 106.571C239.676 105.936 239.637 105.149 239.708 104.443L242.693 104.742ZM241.133 104.833C241.47 104.631 241.874 104.529 242.3 104.577C242.703 104.623 243.021 104.792 243.246 104.956C243.666 105.262 243.952 105.695 244.143 106.04C244.547 106.771 244.879 107.774 245.127 108.83L242.207 109.518C241.986 108.577 241.73 107.876 241.517 107.491C241.4 107.279 241.37 107.3 241.478 107.379C241.547 107.429 241.71 107.53 241.96 107.558C242.233 107.589 242.487 107.52 242.677 107.406L241.133 104.833ZM245.127 108.83C245.331 109.699 245.662 110.53 246.023 111.156C246.204 111.468 246.375 111.7 246.517 111.854C246.672 112.021 246.727 112.024 246.66 111.999L245.607 114.808C245.07 114.606 244.641 114.242 244.319 113.895C243.984 113.534 243.685 113.106 243.425 112.655C242.905 111.754 242.472 110.646 242.207 109.518L245.127 108.83ZM246.66 111.999C247.359 112.261 248.02 112.72 248.402 113.414C248.813 114.162 248.819 115.055 248.36 115.819L245.787 114.276C245.747 114.342 245.709 114.447 245.707 114.575C245.706 114.701 245.741 114.8 245.774 114.86C245.833 114.967 245.848 114.898 245.607 114.808L246.66 111.999ZM248.36 115.819C248.323 115.88 248.491 115.649 248.45 115.25C248.426 115.012 248.33 114.758 248.146 114.542C247.973 114.34 247.78 114.239 247.656 114.191C247.443 114.109 247.316 114.137 247.407 114.13C247.464 114.126 247.581 114.109 247.767 114.062L248.494 116.973C248.21 117.044 247.916 117.1 247.632 117.122C247.381 117.141 246.982 117.146 246.579 116.991C246.08 116.799 245.544 116.327 245.465 115.554C245.406 114.975 245.647 114.509 245.787 114.276L248.36 115.819ZM247.587 114.12C248.233 113.868 248.891 113.916 249.416 114.033C249.955 114.154 250.492 114.379 250.992 114.643C251.994 115.173 253.03 115.959 253.929 116.803C254.825 117.643 255.66 118.611 256.211 119.546C256.485 120.01 256.728 120.531 256.844 121.07C256.959 121.602 256.982 122.318 256.582 122.985L254.009 121.442C253.873 121.669 253.937 121.819 253.912 121.703C253.888 121.592 253.811 121.381 253.628 121.071C253.265 120.456 252.639 119.706 251.876 118.99C251.116 118.277 250.295 117.668 249.589 117.295C249.236 117.108 248.957 117.004 248.761 116.961C248.552 116.914 248.557 116.961 248.674 116.916L247.587 114.12ZM256.598 122.958C256.489 123.148 256.465 123.214 256.469 123.2C256.47 123.199 256.512 123.087 256.52 122.91C256.527 122.741 256.507 122.273 256.107 121.873C255.706 121.472 255.239 121.452 255.07 121.459C254.893 121.467 254.78 121.509 254.779 121.51C254.766 121.515 254.831 121.49 255.021 121.381L256.51 123.986C256.289 124.112 256.031 124.249 255.78 124.338C255.659 124.381 255.448 124.446 255.194 124.457C254.947 124.467 254.423 124.431 253.985 123.994C253.548 123.557 253.512 123.032 253.522 122.786C253.533 122.531 253.599 122.32 253.641 122.2C253.73 121.948 253.867 121.69 253.993 121.469L256.598 122.958ZM255.021 121.381C256.151 120.735 257.27 121.158 257.964 121.656C258.656 122.154 259.224 122.9 259.646 123.657C260.077 124.432 260.418 125.331 260.592 126.233C260.762 127.116 260.794 128.127 260.47 129.053L257.639 128.062C257.726 127.813 257.758 127.385 257.646 126.8C257.537 126.233 257.312 125.634 257.024 125.117C256.727 124.581 256.421 124.242 256.214 124.093C256.008 123.945 256.202 124.162 256.51 123.986L255.021 121.381ZM260.447 129.114C260.399 129.235 260.366 129.329 260.344 129.4C260.333 129.435 260.325 129.462 260.321 129.481C260.316 129.5 260.314 129.509 260.315 129.507C260.315 129.507 260.317 129.491 260.319 129.463C260.32 129.435 260.321 129.386 260.313 129.321C260.299 129.197 260.246 128.952 260.05 128.707C259.586 128.127 258.959 128.231 258.928 128.236C258.856 128.249 258.891 128.254 259.088 128.155L260.43 130.839C260.158 130.975 259.811 131.127 259.445 131.191C259.121 131.248 258.288 131.308 257.707 130.581C257.222 129.975 257.313 129.273 257.354 129.024C257.409 128.684 257.53 128.33 257.662 128L260.447 129.114ZM258.964 128.225C259.25 128.046 260.08 127.58 260.984 128.032C261.847 128.464 262.016 129.364 262.066 129.706C262.191 130.561 262.06 131.869 261.832 133.468L258.862 133.044C259.103 131.354 259.148 130.489 259.097 130.14C259.059 129.88 259.052 130.42 259.643 130.716C260.276 131.032 260.738 130.654 260.554 130.769L258.964 128.225ZM261.83 133.476C261.715 134.255 261.639 134.868 261.599 135.33C261.578 135.561 261.568 135.743 261.565 135.882C261.564 135.951 261.565 136.004 261.566 136.044C261.567 136.063 261.568 136.078 261.569 136.089C261.569 136.099 261.57 136.104 261.57 136.104C261.57 136.104 261.569 136.096 261.566 136.082C261.563 136.069 261.558 136.044 261.549 136.013C261.533 135.961 261.488 135.825 261.377 135.668C261.259 135.502 261.033 135.269 260.667 135.152C260.294 135.033 259.965 135.093 259.754 135.172C259.56 135.245 259.438 135.342 259.391 135.382C259.337 135.428 259.31 135.461 259.31 135.462C259.307 135.465 259.315 135.455 259.335 135.426C259.355 135.398 259.38 135.358 259.413 135.304L261.985 136.847C261.878 137.026 261.754 137.214 261.615 137.382C261.516 137.501 261.245 137.817 260.807 137.981C260.545 138.079 260.168 138.142 259.754 138.01C259.345 137.879 259.081 137.617 258.93 137.404C258.673 137.041 258.615 136.648 258.595 136.488C258.543 136.087 258.565 135.585 258.61 135.07C258.658 134.523 258.743 133.844 258.863 133.036L261.83 133.476ZM259.441 135.258C259.649 134.938 259.856 134.648 260.058 134.413C260.208 134.239 260.535 133.873 261.01 133.694C261.298 133.585 261.77 133.499 262.274 133.727C262.761 133.948 263 134.336 263.108 134.58C263.296 135.007 263.293 135.462 263.285 135.701C263.248 136.78 262.778 138.813 262.027 141.527L259.136 140.727C259.912 137.919 260.264 136.252 260.286 135.599C260.293 135.404 260.256 135.549 260.363 135.792C260.43 135.943 260.617 136.27 261.037 136.461C261.476 136.659 261.871 136.575 262.069 136.501C262.364 136.389 262.462 136.219 262.332 136.37C262.254 136.46 262.13 136.626 261.957 136.893L259.441 135.258ZM262.041 141.474C261.722 142.813 261.262 143.998 260.747 144.844C260.499 145.251 260.175 145.685 259.764 145.994C259.365 146.294 258.494 146.722 257.578 146.172L259.122 143.6C258.499 143.227 257.981 143.582 257.964 143.594C257.934 143.617 258.021 143.552 258.184 143.284C258.492 142.779 258.854 141.908 259.122 140.78L262.041 141.474ZM257.594 146.182C257.616 146.195 258.075 146.449 258.638 146.147C258.882 146.016 259.019 145.838 259.086 145.724C259.15 145.616 259.167 145.538 259.169 145.531C259.171 145.522 259.155 145.605 259.166 145.812C259.177 146.004 259.208 146.25 259.264 146.537C259.502 147.752 260.077 149.188 260.682 149.924L258.366 151.831C257.328 150.569 256.61 148.599 256.32 147.112C256.18 146.397 256.087 145.548 256.246 144.858C256.318 144.542 256.531 143.873 257.219 143.504C257.993 143.088 258.731 143.372 259.106 143.591L257.594 146.182ZM260.585 149.817C261.268 150.5 261.621 151.381 261.73 152.189C261.836 152.968 261.741 153.898 261.242 154.646L258.746 152.982C258.723 153.016 258.742 153.004 258.757 152.918C258.771 152.837 258.775 152.723 258.757 152.591C258.72 152.312 258.603 152.077 258.464 151.938L260.585 149.817ZM261.266 154.609C261.133 154.822 261.118 154.88 261.133 154.835C261.138 154.82 261.196 154.651 261.175 154.402C261.148 154.093 260.987 153.638 260.525 153.35C260.149 153.115 259.801 153.14 259.713 153.148C259.599 153.159 259.539 153.184 259.562 153.176C259.603 153.161 259.729 153.107 259.97 152.973L261.427 155.595C261.14 155.755 260.84 155.906 260.559 156.005C260.42 156.054 260.224 156.113 260 156.135C259.802 156.153 259.369 156.165 258.935 155.894C258.415 155.569 258.22 155.053 258.186 154.66C258.157 154.325 258.234 154.047 258.283 153.898C258.386 153.585 258.562 153.276 258.722 153.019L261.266 154.609ZM259.927 152.998C260.245 152.807 260.663 152.582 261.107 152.491C261.344 152.443 261.692 152.41 262.076 152.528C262.5 152.658 262.839 152.933 263.058 153.284C263.414 153.855 263.377 154.5 263.349 154.815C263.313 155.218 263.217 155.681 263.094 156.175L260.183 155.448C260.295 155.001 260.346 154.716 260.361 154.547C260.369 154.463 260.363 154.452 260.367 154.487C260.37 154.515 260.39 154.676 260.513 154.873C260.659 155.106 260.898 155.305 261.197 155.396C261.455 155.475 261.651 155.442 261.707 155.431C261.769 155.418 261.78 155.407 261.722 155.433C261.669 155.458 261.588 155.5 261.471 155.57L259.927 152.998ZM263.062 156.286C262.965 156.576 262.906 156.82 262.875 157.009C262.842 157.211 262.85 157.298 262.849 157.292C262.848 157.287 262.84 157.214 262.792 157.104C262.745 156.994 262.63 156.788 262.385 156.616C261.765 156.18 261.182 156.474 261.102 156.522L262.645 159.095C262.272 159.319 261.454 159.627 260.661 159.071C260.03 158.628 259.905 157.938 259.87 157.649C259.787 156.955 259.955 156.118 260.216 155.337L263.062 156.286ZM261.068 156.543C261.433 156.311 261.913 156.18 262.433 156.293C262.906 156.396 263.234 156.664 263.432 156.873C263.805 157.267 264.034 157.789 264.184 158.208C264.508 159.108 264.752 160.36 264.919 161.707C265.253 164.415 265.322 167.913 264.881 170.619L261.92 170.137C262.302 167.792 262.253 164.594 261.941 162.075C261.785 160.807 261.573 159.813 261.361 159.223C261.244 158.896 261.184 158.862 261.255 158.937C261.302 158.987 261.477 159.155 261.793 159.224C262.155 159.303 262.476 159.203 262.679 159.074L261.068 156.543ZM264.886 170.59C264.7 171.892 264.41 173.066 264.042 173.913C263.869 174.312 263.615 174.789 263.232 175.145C263.031 175.331 262.718 175.556 262.29 175.646C261.822 175.745 261.362 175.65 260.984 175.423L262.528 172.851C262.297 172.712 261.988 172.644 261.671 172.71C261.396 172.768 261.238 172.903 261.191 172.946C261.116 173.015 261.171 172.993 261.291 172.717C261.51 172.213 261.749 171.331 261.916 170.166L264.886 170.59ZM260.984 175.423C260.992 175.428 261.058 175.467 261.173 175.498C261.29 175.529 261.504 175.563 261.768 175.497C262.421 175.334 262.638 174.798 262.683 174.619C262.722 174.46 262.694 174.398 262.711 174.512C262.725 174.601 262.758 174.748 262.827 174.955L259.981 175.904C259.873 175.582 259.789 175.259 259.744 174.952C259.702 174.67 259.674 174.284 259.772 173.891C259.876 173.476 260.211 172.794 261.04 172.587C261.717 172.417 262.275 172.699 262.528 172.851L260.984 175.423ZM262.782 174.839C263.063 175.493 262.965 176.218 262.879 176.664C262.777 177.197 262.592 177.791 262.366 178.393C261.913 179.604 261.236 181.016 260.5 182.35C259.766 183.684 258.944 184.992 258.187 185.986C257.811 186.479 257.42 186.936 257.035 187.287C256.843 187.461 256.619 187.641 256.369 187.784C256.136 187.917 255.76 188.09 255.296 188.09V185.09C255.151 185.09 255.041 185.117 254.98 185.138C254.918 185.158 254.883 185.178 254.878 185.181C254.873 185.184 254.918 185.157 255.016 185.068C255.21 184.892 255.476 184.593 255.8 184.168C256.441 183.327 257.184 182.153 257.873 180.902C258.562 179.652 259.169 178.377 259.557 177.341C259.752 176.82 259.875 176.401 259.933 176.099C260.008 175.709 259.921 175.778 260.025 176.02L262.782 174.839ZM255.296 188.09C254.996 188.09 254.541 188.012 254.148 187.652C253.756 187.292 253.641 186.847 253.616 186.553C253.573 186.053 253.749 185.605 253.841 185.388C254.067 184.854 254.466 184.219 254.889 183.615L257.347 185.335C256.948 185.906 256.701 186.328 256.604 186.557C256.583 186.607 256.582 186.617 256.587 186.596C256.59 186.587 256.62 186.472 256.605 186.296C256.589 186.109 256.508 185.746 256.176 185.442C255.845 185.137 255.478 185.09 255.296 185.09V188.09ZM254.938 183.548C255.261 183.137 255.484 182.846 255.622 182.653C255.655 182.607 255.679 182.571 255.697 182.544C255.716 182.516 255.722 182.505 255.72 182.508C255.719 182.51 255.714 182.52 255.705 182.536C255.698 182.552 255.683 182.582 255.666 182.624C255.651 182.663 255.623 182.739 255.602 182.84C255.584 182.929 255.552 183.124 255.593 183.371C255.638 183.644 255.785 184.016 256.146 184.297C256.487 184.561 256.844 184.607 257.044 184.607C257.386 184.609 257.625 184.486 257.633 184.482C257.725 184.439 257.756 184.409 257.673 184.469C257.543 184.563 257.315 184.745 256.961 185.04L255.04 182.735C255.391 182.443 255.692 182.199 255.917 182.036C256.013 181.968 256.178 181.851 256.362 181.765C256.416 181.74 256.691 181.606 257.058 181.607C257.271 181.608 257.637 181.656 257.985 181.926C258.354 182.212 258.504 182.593 258.552 182.877C258.626 183.324 258.477 183.675 258.458 183.723C258.411 183.843 258.356 183.943 258.32 184.005C258.245 184.135 258.152 184.271 258.064 184.395C257.882 184.65 257.621 184.99 257.297 185.402L254.938 183.548ZM257.021 184.987C256.82 185.174 256.545 185.57 256.277 186.163C256.02 186.732 255.82 187.367 255.71 187.923C255.586 188.549 255.624 188.838 255.624 188.837C255.621 188.829 255.507 188.429 255.016 188.228C254.778 188.131 254.559 188.131 254.41 188.157C254.273 188.18 254.199 188.224 254.199 188.224L255.688 190.829C255.308 191.046 254.629 191.31 253.882 191.005C253.14 190.702 252.852 190.049 252.743 189.676C252.53 188.945 252.627 188.051 252.767 187.341C252.921 186.561 253.191 185.706 253.544 184.927C253.885 184.172 254.359 183.365 254.98 182.788L257.021 184.987ZM254.083 188.298C254.523 187.989 255.075 187.836 255.657 187.945C256.191 188.046 256.587 188.337 256.848 188.596C257.354 189.098 257.675 189.796 257.87 190.407C258.076 191.051 258.199 191.785 258.194 192.494C258.19 193.17 258.067 194.007 257.601 194.705L255.105 193.041C255.099 193.049 255.125 193.013 255.15 192.904C255.175 192.798 255.193 192.654 255.194 192.473C255.197 192.106 255.129 191.687 255.012 191.318C254.954 191.137 254.89 190.988 254.831 190.876C254.768 190.759 254.728 190.719 254.734 190.725C254.735 190.725 254.854 190.847 255.102 190.893C255.399 190.949 255.657 190.858 255.804 190.755L254.083 188.298ZM257.732 194.464C257.661 194.628 257.672 194.644 257.683 194.565C257.688 194.524 257.707 194.374 257.66 194.17C257.607 193.942 257.462 193.615 257.122 193.372C256.797 193.14 256.47 193.112 256.294 193.119C256.125 193.125 256.012 193.165 255.987 193.174C255.937 193.192 255.969 193.188 256.108 193.095L257.772 195.591C257.559 195.733 257.297 195.89 257.016 195.992C256.875 196.044 256.663 196.107 256.409 196.116C256.149 196.126 255.755 196.082 255.378 195.813C254.584 195.245 254.684 194.35 254.711 194.154C254.755 193.836 254.868 193.529 254.974 193.282L257.732 194.464ZM256.212 193.032C256.485 192.88 256.87 192.726 257.332 192.735C257.834 192.744 258.273 192.942 258.609 193.244C259.172 193.75 259.39 194.499 259.507 195.037C259.767 196.232 259.85 198.122 259.85 200.686H256.85C256.85 198.082 256.757 196.507 256.576 195.675C256.472 195.2 256.404 195.296 256.604 195.475C256.758 195.613 256.996 195.729 257.276 195.735C257.516 195.739 257.66 195.659 257.669 195.654L256.212 193.032ZM259.85 200.686C259.85 202.729 259.73 204.547 259.522 205.843C259.422 206.467 259.285 207.081 259.079 207.551C258.987 207.759 258.8 208.138 258.435 208.426C258.228 208.588 257.924 208.753 257.532 208.787C257.131 208.823 256.782 208.708 256.521 208.551L258.064 205.979C257.877 205.866 257.6 205.77 257.27 205.799C256.95 205.827 256.716 205.961 256.579 206.069C256.352 206.248 256.297 206.424 256.332 206.344C256.379 206.237 256.47 205.934 256.56 205.368C256.734 204.285 256.85 202.638 256.85 200.686H259.85ZM256.355 208.436C256.372 208.449 256.867 208.835 257.542 208.529C257.839 208.395 258.005 208.187 258.085 208.054C258.162 207.926 258.184 207.828 258.188 207.806C258.194 207.781 258.164 208.071 258.363 208.67L255.517 209.619C255.247 208.808 255.1 207.924 255.251 207.194C255.316 206.883 255.534 206.145 256.305 205.796C257.175 205.402 257.92 205.846 258.23 206.094L256.355 208.436ZM258.407 208.83C258.504 209.284 258.572 209.714 258.592 210.099C258.611 210.443 258.603 210.928 258.411 211.386C258.305 211.637 258.119 211.939 257.794 212.174C257.454 212.421 257.072 212.516 256.721 212.511C256.114 212.503 255.631 212.201 255.364 212.01L257.107 209.569C257.153 209.602 257.155 209.597 257.118 209.58C257.085 209.566 256.958 209.514 256.763 209.511C256.544 209.508 256.275 209.57 256.031 209.747C255.802 209.913 255.693 210.111 255.646 210.222C255.571 210.4 255.608 210.467 255.596 210.257C255.588 210.088 255.552 209.827 255.473 209.459L258.407 208.83ZM255.491 212.092C255.35 212.011 255.339 212.027 255.427 212.044C255.502 212.058 255.961 212.126 256.387 211.743C256.789 211.381 256.777 210.956 256.777 210.937C256.776 210.887 256.77 210.939 256.836 211.137L253.99 212.086C253.88 211.756 253.786 211.381 253.778 211.005C253.77 210.659 253.831 210.007 254.38 209.513C254.953 208.997 255.632 209.028 255.994 209.098C256.369 209.17 256.709 209.332 256.98 209.487L255.491 212.092ZM256.8 211.04C257.128 211.837 256.91 212.652 256.723 213.155C256.51 213.729 256.17 214.329 255.783 214.908C255.004 216.075 253.891 217.37 252.715 218.546C251.54 219.721 250.245 220.835 249.077 221.614C248.499 222.001 247.899 222.341 247.325 222.554C246.822 222.741 246.007 222.96 245.21 222.631L246.352 219.857C246.055 219.735 245.941 219.869 246.279 219.743C246.547 219.643 246.929 219.442 247.411 219.12C248.366 218.482 249.508 217.51 250.594 216.425C251.679 215.339 252.651 214.196 253.288 213.242C253.61 212.76 253.812 212.378 253.911 212.11C254.037 211.771 253.904 211.885 254.026 212.183L256.8 211.04ZM245.307 222.667C245.108 222.601 245.057 222.607 245.107 222.608C245.126 222.609 245.551 222.621 245.913 222.218C246.296 221.793 246.228 221.333 246.214 221.259C246.197 221.17 246.181 221.182 246.261 221.323L243.657 222.811C243.502 222.541 243.34 222.2 243.268 221.825C243.198 221.464 243.167 220.784 243.683 220.212C244.177 219.663 244.829 219.601 245.174 219.609C245.551 219.617 245.926 219.711 246.256 219.821L245.307 222.667ZM246.18 221.195C246.37 221.462 246.673 221.946 246.681 222.553C246.686 222.903 246.591 223.286 246.344 223.625C246.109 223.95 245.807 224.137 245.556 224.242C245.098 224.435 244.613 224.442 244.269 224.424C243.884 224.403 243.454 224.336 243 224.238L243.629 221.305C243.997 221.384 244.258 221.419 244.427 221.428C244.637 221.439 244.57 221.402 244.392 221.477C244.28 221.524 244.083 221.634 243.917 221.863C243.739 222.107 243.678 222.376 243.681 222.594C243.684 222.789 243.736 222.916 243.75 222.949C243.767 222.987 243.771 222.985 243.738 222.939L246.18 221.195ZM242.84 224.195C242.241 223.995 241.951 224.025 241.976 224.02C241.998 224.015 242.096 223.993 242.224 223.916C242.357 223.836 242.565 223.67 242.699 223.374C243.005 222.698 242.619 222.203 242.607 222.187L240.264 224.061C240.016 223.751 239.572 223.006 239.966 222.136C240.315 221.365 241.053 221.148 241.364 221.083C242.094 220.931 242.979 221.078 243.789 221.349L242.84 224.195ZM242.721 222.352C242.982 222.787 243.289 223.52 243.045 224.314C242.909 224.755 242.62 225.135 242.211 225.383C241.826 225.615 241.419 225.681 241.083 225.681V222.681C241.04 222.681 240.868 222.689 240.659 222.815C240.426 222.956 240.255 223.182 240.178 223.432C240.109 223.655 240.137 223.821 240.15 223.876C240.164 223.935 240.176 223.941 240.149 223.896L242.721 222.352ZM241.083 225.681C241.564 225.681 241.891 225.446 242.045 225.295C242.189 225.155 242.252 225.027 242.265 225C242.294 224.942 242.277 224.958 242.242 225.117C242.178 225.41 242.115 225.899 242.065 226.581C241.967 227.925 241.937 229.81 241.995 231.893L238.996 231.976C238.936 229.83 238.965 227.839 239.073 226.363C239.126 225.635 239.202 224.979 239.311 224.479C239.362 224.242 239.44 223.949 239.57 223.682C239.635 223.551 239.751 223.343 239.95 223.149C240.159 222.944 240.543 222.681 241.083 222.681V225.681ZM241.992 231.828C242.17 234.328 242.177 236.312 242.031 237.649C241.962 238.277 241.843 238.938 241.589 239.445C241.47 239.684 241.203 240.131 240.668 240.379C240 240.688 239.362 240.5 238.959 240.231L240.623 237.735C240.396 237.584 239.923 237.418 239.408 237.656C239.206 237.75 239.078 237.873 239.011 237.951C238.944 238.029 238.913 238.089 238.906 238.103C238.906 238.103 238.985 237.897 239.049 237.322C239.166 236.25 239.173 234.475 238.999 232.041L241.992 231.828ZM239.12 240.325C239.12 240.325 239.13 240.33 239.148 240.336C239.167 240.343 239.198 240.353 239.24 240.362C239.323 240.38 239.47 240.397 239.655 240.358C239.851 240.318 240.045 240.224 240.207 240.078C240.362 239.939 240.445 239.79 240.488 239.686C240.562 239.505 240.535 239.412 240.543 239.512C240.549 239.59 240.573 239.738 240.64 239.962L237.767 240.824C237.658 240.46 237.579 240.094 237.552 239.742C237.527 239.414 237.536 238.975 237.714 238.544C237.917 238.05 238.356 237.563 239.049 237.42C239.636 237.299 240.146 237.484 240.462 237.641L239.12 240.325ZM240.655 240.014C240.833 240.696 240.749 241.391 240.597 241.981C240.439 242.588 240.176 243.209 239.861 243.807C239.232 245.004 238.321 246.257 237.342 247.354C236.368 248.445 235.26 249.455 234.205 250.12C233.682 250.45 233.1 250.74 232.503 250.88C231.909 251.018 231.12 251.045 230.401 250.58L232.031 248.061C231.812 247.92 231.668 247.994 231.82 247.958C231.969 247.924 232.232 247.817 232.606 247.582C233.346 247.116 234.243 246.32 235.104 245.356C235.96 244.397 236.716 243.344 237.206 242.411C237.451 241.945 237.611 241.545 237.692 241.229C237.779 240.896 237.75 240.765 237.752 240.771L240.655 240.014ZM230.472 250.623C230.301 250.526 230.231 250.5 230.235 250.502C230.238 250.502 230.308 250.527 230.424 250.536C230.531 250.544 230.793 250.548 231.094 250.398C231.444 250.223 231.679 249.921 231.786 249.602C231.875 249.333 231.853 249.118 231.842 249.043C231.822 248.901 231.784 248.865 231.853 249.002L229.17 250.344C229.062 250.129 228.922 249.814 228.872 249.467C228.828 249.16 228.802 248.19 229.752 247.715C230.112 247.535 230.452 247.529 230.654 247.544C230.865 247.561 231.049 247.611 231.184 247.655C231.452 247.745 231.72 247.881 231.96 248.018L230.472 250.623ZM231.789 248.887C232.346 249.793 232.262 250.778 231.799 251.548C231.389 252.232 230.725 252.699 230.096 252.989C228.88 253.549 227.027 253.773 225.568 252.801L227.232 250.305C227.368 250.395 227.593 250.471 227.913 250.469C228.232 250.468 228.567 250.39 228.842 250.264C229.138 250.127 229.23 250 229.227 250.005C229.217 250.021 229.179 250.094 229.177 250.213C229.175 250.339 229.214 250.427 229.234 250.459L231.789 248.887ZM225.809 252.931C225.645 252.861 225.629 252.872 225.708 252.883C225.749 252.888 225.899 252.907 226.104 252.86C226.331 252.807 226.659 252.662 226.901 252.322C227.133 251.997 227.161 251.67 227.155 251.494C227.148 251.325 227.108 251.212 227.099 251.187C227.081 251.137 227.085 251.169 227.178 251.308L224.682 252.972C224.54 252.759 224.383 252.497 224.281 252.216C224.229 252.075 224.166 251.863 224.157 251.609C224.147 251.349 224.191 250.954 224.46 250.578C225.028 249.783 225.923 249.884 226.119 249.911C226.437 249.955 226.744 250.068 226.991 250.174L225.809 252.931ZM227.241 251.412C227.393 251.685 227.547 252.071 227.538 252.532C227.529 253.034 227.331 253.473 227.029 253.809C226.524 254.372 225.774 254.59 225.236 254.707C224.042 254.967 222.152 255.05 219.587 255.05V252.05C222.191 252.05 223.766 251.957 224.598 251.776C225.073 251.672 224.977 251.605 224.798 251.804C224.66 251.958 224.544 252.197 224.539 252.476C224.534 252.716 224.614 252.859 224.619 252.869L227.241 251.412ZM219.587 255.05C216.915 255.05 214.98 254.968 213.772 254.688C213.219 254.56 212.446 254.315 211.95 253.685C211.291 252.848 211.502 251.919 211.785 251.352L214.469 252.693C214.458 252.714 214.654 252.27 214.307 251.829C214.123 251.595 213.989 251.659 214.449 251.766C215.267 251.955 216.856 252.05 219.587 252.05V255.05ZM211.785 251.352C211.825 251.272 211.769 251.362 211.734 251.534C211.73 251.555 211.626 251.979 211.86 252.451C212.011 252.755 212.28 253.031 212.655 253.175C212.99 253.304 213.283 253.28 213.442 253.252C213.729 253.2 213.916 253.075 213.937 253.062C213.967 253.042 213.989 253.026 214 253.018C214.012 253.008 214.019 253.002 214.021 253.001C214.023 252.999 214.015 253.006 213.995 253.025C213.975 253.044 213.949 253.071 213.915 253.105C213.624 253.409 213.078 254.059 212.322 255.048L209.938 253.226C210.709 252.218 211.338 251.458 211.751 251.028C211.855 250.92 211.969 250.807 212.084 250.71C212.141 250.662 212.221 250.598 212.318 250.536C212.381 250.495 212.602 250.354 212.915 250.298C213.086 250.268 213.39 250.244 213.734 250.376C214.117 250.524 214.394 250.806 214.549 251.119C214.791 251.609 214.688 252.062 214.675 252.125C214.624 252.379 214.516 252.598 214.469 252.693L211.785 251.352ZM212.306 255.069C209.827 258.197 207.759 260.52 206.093 261.966C205.267 262.683 204.458 263.258 203.681 263.583C202.907 263.906 201.907 264.081 200.977 263.539L202.489 260.947C202.264 260.816 202.174 260.961 202.523 260.815C202.87 260.67 203.397 260.334 204.127 259.7C205.573 258.445 207.5 256.303 209.954 253.206L212.306 255.069ZM200.861 263.464C200.677 263.332 200.647 263.333 200.722 263.361C200.747 263.371 200.955 263.452 201.255 263.422C201.424 263.405 201.646 263.35 201.87 263.206C202.101 263.058 202.266 262.857 202.37 262.649C202.554 262.282 202.512 261.965 202.504 261.907C202.492 261.813 202.472 261.769 202.482 261.796C202.501 261.848 202.559 261.981 202.692 262.219L200.069 263.676C199.908 263.386 199.761 263.093 199.663 262.822C199.614 262.688 199.558 262.507 199.53 262.303C199.508 262.135 199.473 261.734 199.687 261.308C199.963 260.755 200.482 260.484 200.956 260.437C201.329 260.399 201.632 260.498 201.775 260.552C202.085 260.668 202.378 260.86 202.605 261.022L200.861 263.464ZM202.667 262.176C202.857 262.494 203.052 262.855 203.162 263.211C203.228 263.423 203.512 264.41 202.707 265.135C202.341 265.464 201.927 265.551 201.666 265.573C201.402 265.594 201.162 265.561 200.985 265.525C200.629 265.453 200.242 265.312 199.864 265.155L201.018 262.386C201.345 262.522 201.515 262.572 201.578 262.584C201.61 262.591 201.545 262.573 201.421 262.583C201.3 262.593 200.993 262.641 200.7 262.905C200.38 263.193 200.284 263.549 200.268 263.777C200.261 263.883 200.27 263.964 200.277 264.011C200.285 264.059 200.294 264.089 200.296 264.098C200.297 264.098 200.256 263.989 200.094 263.719L202.667 262.176ZM200.01 265.207C199.441 265.036 199.066 264.958 198.877 264.942C198.757 264.932 198.873 264.962 199.082 264.89C199.205 264.848 199.434 264.743 199.636 264.501C199.856 264.235 199.944 263.923 199.944 263.653H196.944C196.944 263.294 197.058 262.909 197.328 262.584C197.579 262.281 197.882 262.131 198.1 262.055C198.499 261.917 198.895 261.933 199.127 261.952C199.643 261.995 200.267 262.152 200.872 262.333L200.01 265.207ZM199.944 263.653C199.944 263.369 199.86 263.16 199.815 263.065C199.765 262.959 199.715 262.889 199.691 262.858C199.645 262.798 199.619 262.779 199.649 262.806C199.702 262.853 199.824 262.948 200.028 263.077C200.426 263.331 201.012 263.639 201.684 263.897L200.607 266.697C199.752 266.369 198.987 265.971 198.417 265.608C198.136 265.429 197.869 265.238 197.654 265.046C197.55 264.954 197.42 264.828 197.304 264.675C197.241 264.593 196.944 264.21 196.944 263.653H199.944ZM201.65 263.885C201.752 263.921 201.929 263.99 202.109 264.114C202.232 264.198 202.728 264.554 202.798 265.259C202.876 266.049 202.363 266.513 202.19 266.646C201.988 266.803 201.785 266.883 201.685 266.92C201.3 267.061 200.738 267.141 200.194 267.201C198.995 267.334 197.057 267.45 194.462 267.545C189.252 267.737 181.243 267.855 170.841 267.855V264.855C181.229 264.855 189.195 264.737 194.351 264.547C196.939 264.452 198.782 264.34 199.862 264.219C200.458 264.153 200.661 264.1 200.652 264.103C200.646 264.105 200.513 264.151 200.357 264.272C200.229 264.37 199.738 264.799 199.812 265.553C199.878 266.222 200.346 266.542 200.416 266.59C200.487 266.639 200.546 266.668 200.577 266.683C200.61 266.699 200.633 266.707 200.641 266.71L201.65 263.885ZM170.841 267.855C160.438 267.855 152.429 267.737 147.234 267.545C144.647 267.45 142.718 267.334 141.535 267.201C141.006 267.141 140.436 267.061 140.046 266.909C139.947 266.87 139.718 266.775 139.498 266.58C139.261 266.369 138.806 265.8 139.028 265.002C139.195 264.406 139.647 264.131 139.749 264.069C139.915 263.968 140.076 263.908 140.178 263.874L141.127 266.72C141.13 266.719 141.146 266.714 141.172 266.703C141.195 266.693 141.243 266.671 141.302 266.635C141.344 266.61 141.761 266.37 141.918 265.81C142.131 265.048 141.69 264.514 141.492 264.339C141.312 264.178 141.147 264.118 141.136 264.114C141.101 264.1 141.276 264.153 141.871 264.22C142.933 264.34 144.764 264.452 147.345 264.547C152.486 264.737 160.452 264.855 170.841 264.855V267.855ZM140.076 263.913C140.696 263.654 141.259 263.345 141.65 263.089C141.85 262.958 141.972 262.862 142.026 262.813C142.057 262.785 142.032 262.803 141.987 262.862C141.964 262.892 141.914 262.962 141.865 263.066C141.821 263.161 141.737 263.369 141.737 263.653H144.737C144.737 264.209 144.441 264.591 144.38 264.671C144.266 264.823 144.138 264.948 144.037 265.039C143.827 265.229 143.567 265.419 143.297 265.597C142.748 265.957 142.019 266.353 141.23 266.682L140.076 263.913ZM141.737 263.653C141.737 263.923 141.825 264.235 142.046 264.501C142.247 264.743 142.476 264.848 142.599 264.89C142.808 264.962 142.925 264.932 142.804 264.942C142.615 264.958 142.24 265.036 141.671 265.207L140.809 262.333C141.415 262.152 142.038 261.995 142.554 261.952C142.786 261.933 143.182 261.917 143.581 262.055C143.799 262.131 144.102 262.281 144.353 262.584C144.624 262.909 144.737 263.294 144.737 263.653H141.737ZM141.817 265.155C141.439 265.312 141.052 265.453 140.696 265.525C140.519 265.561 140.279 265.594 140.015 265.573C139.754 265.551 139.34 265.464 138.974 265.135C138.169 264.41 138.453 263.423 138.519 263.211C138.629 262.855 138.824 262.494 139.014 262.176L141.587 263.719C141.425 263.989 141.385 264.098 141.385 264.098C141.387 264.089 141.396 264.059 141.404 264.011C141.411 263.964 141.42 263.883 141.413 263.777C141.397 263.549 141.301 263.193 140.981 262.905C140.688 262.641 140.381 262.593 140.26 262.583C140.136 262.573 140.071 262.591 140.103 262.584C140.166 262.572 140.337 262.522 140.663 262.386L141.817 265.155ZM139.052 262.116C139.123 262.009 139.175 261.924 139.211 261.86C139.248 261.793 139.26 261.763 139.259 261.765C139.259 261.767 139.251 261.785 139.243 261.818C139.234 261.849 139.22 261.911 139.214 261.995C139.204 262.126 139.194 262.562 139.543 262.969C139.927 263.418 140.423 263.466 140.644 263.456C140.851 263.447 140.98 263.389 140.984 263.388C141.007 263.378 140.93 263.411 140.731 263.56L138.931 261.16C139.201 260.958 139.506 260.756 139.815 260.625C139.963 260.562 140.211 260.472 140.513 260.459C140.828 260.445 141.393 260.518 141.821 261.017C142.215 261.476 142.223 261.991 142.205 262.228C142.185 262.487 142.112 262.708 142.054 262.857C141.934 263.163 141.749 263.479 141.549 263.78L139.052 262.116ZM140.566 263.668C139.964 264.007 139.32 264.043 138.788 263.976C138.254 263.909 137.732 263.728 137.259 263.506C136.31 263.063 135.342 262.357 134.506 261.578C133.669 260.798 132.887 259.871 132.36 258.93C131.881 258.074 131.401 256.823 131.845 255.616L134.66 256.653C134.694 256.562 134.595 256.779 134.978 257.465C135.315 258.066 135.876 258.754 136.551 259.384C137.227 260.014 137.94 260.513 138.53 260.789C138.825 260.927 139.036 260.984 139.161 261C139.288 261.016 139.228 260.979 139.095 261.053L140.566 263.668ZM131.848 255.608C131.909 255.446 131.891 255.433 131.889 255.524C131.887 255.599 131.895 256.065 132.345 256.424C132.777 256.77 133.209 256.688 133.257 256.679C133.332 256.663 133.313 256.653 133.175 256.732L131.686 254.127C131.959 253.971 132.292 253.814 132.654 253.74C132.988 253.671 133.64 253.619 134.219 254.082C134.816 254.559 134.897 255.23 134.888 255.599C134.878 255.984 134.773 256.353 134.657 256.661L131.848 255.608ZM133.226 256.701C132.962 256.866 132.534 257.109 132.041 257.163C131.762 257.193 131.347 257.176 130.937 256.927C130.51 256.669 130.291 256.284 130.191 255.965C130.026 255.438 130.128 254.911 130.192 254.634C130.271 254.284 130.402 253.892 130.561 253.481L133.361 254.558C133.225 254.911 133.151 255.151 133.117 255.3C133.1 255.374 133.1 255.395 133.101 255.378C133.101 255.372 133.11 255.248 133.055 255.07C132.992 254.869 132.833 254.568 132.491 254.361C132.166 254.164 131.86 254.165 131.715 254.181C131.575 254.196 131.499 254.233 131.514 254.227C131.519 254.224 131.558 254.206 131.635 254.157L133.226 256.701ZM130.568 253.463C130.671 253.205 130.739 253.003 130.779 252.857C130.826 252.686 130.813 252.672 130.813 252.757C130.813 252.787 130.811 252.991 130.927 253.244C131.073 253.564 131.433 253.979 132.039 254.054C132.505 254.113 132.825 253.924 132.891 253.884C132.99 253.824 133.035 253.774 133.021 253.788L130.9 251.667C131.003 251.563 131.151 251.429 131.339 251.316C131.493 251.223 131.887 251.012 132.411 251.078C133.076 251.161 133.48 251.612 133.655 251.997C133.8 252.314 133.813 252.61 133.813 252.757C133.813 253.077 133.741 253.4 133.671 253.655C133.594 253.935 133.485 254.247 133.353 254.577L130.568 253.463ZM133.021 253.788C132.189 254.621 131.054 254.477 130.439 254.304C129.718 254.101 128.996 253.683 128.389 253.152L130.364 250.894C130.696 251.184 131.031 251.354 131.251 251.416C131.36 251.446 131.383 251.434 131.333 251.44C131.275 251.446 131.084 251.483 130.9 251.667L133.021 253.788ZM128.523 253.256C128.138 252.99 127.879 252.816 127.708 252.712C127.62 252.659 127.594 252.648 127.608 252.654C127.616 252.658 127.664 252.679 127.741 252.7C127.803 252.717 127.988 252.763 128.235 252.735C128.52 252.704 128.933 252.563 129.233 252.163C129.502 251.805 129.524 251.441 129.522 251.281C129.519 251.113 129.485 250.992 129.473 250.954C129.466 250.929 129.459 250.91 129.455 250.899C129.451 250.889 129.449 250.883 129.449 250.883C129.448 250.882 129.45 250.885 129.453 250.892C129.456 250.899 129.461 250.909 129.468 250.922C129.481 250.948 129.499 250.983 129.524 251.027C129.573 251.115 129.638 251.228 129.723 251.368L127.15 252.912C126.982 252.631 126.805 252.327 126.695 252.072C126.656 251.984 126.528 251.692 126.522 251.335C126.518 251.136 126.548 250.742 126.833 250.363C127.149 249.942 127.587 249.789 127.904 249.754C128.185 249.722 128.411 249.774 128.524 249.804C128.651 249.838 128.759 249.882 128.836 249.917C128.989 249.985 129.138 250.071 129.265 250.147C129.523 250.304 129.851 250.527 130.23 250.789L128.523 253.256ZM129.748 251.412C129.889 251.665 130.038 252.022 130.054 252.452C130.07 252.924 129.92 253.374 129.626 253.742C129.133 254.36 128.363 254.588 127.84 254.705C126.667 254.968 124.768 255.05 122.094 255.05V252.05C124.823 252.05 126.389 251.956 127.184 251.778C127.644 251.675 127.484 251.616 127.281 251.871C127.132 252.057 127.047 252.307 127.055 252.557C127.059 252.664 127.079 252.746 127.095 252.795C127.111 252.843 127.125 252.868 127.126 252.869L129.748 251.412ZM122.094 255.05C119.529 255.05 117.639 254.967 116.445 254.707C115.907 254.59 115.158 254.372 114.652 253.809C114.35 253.473 114.152 253.034 114.143 252.532C114.134 252.071 114.288 251.685 114.44 251.412L117.062 252.869C117.067 252.859 117.147 252.716 117.143 252.476C117.137 252.197 117.021 251.958 116.883 251.804C116.704 251.605 116.608 251.672 117.083 251.776C117.915 251.957 119.49 252.05 122.094 252.05V255.05ZM114.448 251.396C114.557 251.206 114.582 251.14 114.577 251.153C114.577 251.155 114.534 251.267 114.527 251.444C114.52 251.613 114.539 252.081 114.94 252.481C115.34 252.882 115.808 252.901 115.977 252.894C116.154 252.887 116.267 252.844 116.268 252.844C116.281 252.839 116.216 252.864 116.025 252.973L114.537 250.368C114.758 250.242 115.015 250.105 115.267 250.016C115.388 249.973 115.598 249.907 115.853 249.897C116.099 249.887 116.624 249.923 117.061 250.36C117.498 250.797 117.534 251.322 117.524 251.568C117.514 251.823 117.448 252.034 117.405 252.154C117.316 252.406 117.179 252.663 117.053 252.884L114.448 251.396ZM116.084 252.937C114.575 253.893 112.769 253.582 111.258 252.933C109.695 252.261 108.062 251.076 106.54 249.63C103.5 246.745 100.597 242.529 99.3917 238.341L102.275 237.511C103.301 241.076 105.86 244.849 108.605 247.455C109.975 248.755 111.316 249.692 112.443 250.177C113.623 250.684 114.225 250.563 114.478 250.403L116.084 252.937ZM99.3965 238.357C98.6111 235.738 98.5646 232.306 98.9368 229.669C99.1219 228.358 99.4294 227.099 99.8894 226.184C100.112 225.741 100.449 225.216 100.972 224.864C101.6 224.441 102.399 224.344 103.149 224.719L101.807 227.403C102.086 227.542 102.437 227.494 102.647 227.352C102.751 227.282 102.7 227.273 102.57 227.531C102.325 228.018 102.075 228.903 101.907 230.088C101.575 232.444 101.646 235.414 102.27 237.495L99.3965 238.357ZM103.069 224.682C103.141 224.713 103.161 224.718 103.142 224.712C103.132 224.709 103.092 224.698 103.03 224.69C102.977 224.682 102.846 224.667 102.675 224.691C102.508 224.714 102.183 224.792 101.886 225.073C101.558 225.384 101.443 225.774 101.433 226.078C101.424 226.343 101.491 226.539 101.522 226.621C101.559 226.715 101.596 226.778 101.611 226.803C101.65 226.866 101.641 226.835 101.477 226.67C101.34 226.531 101.146 226.349 100.894 226.125L102.887 223.883C103.164 224.129 103.41 224.358 103.61 224.56C103.784 224.736 104.01 224.977 104.166 225.231C104.209 225.3 104.448 225.672 104.431 226.18C104.42 226.511 104.296 226.922 103.951 227.249C103.638 227.547 103.288 227.634 103.088 227.662C102.729 227.712 102.425 227.627 102.322 227.598C102.169 227.555 102.02 227.497 101.887 227.44L103.069 224.682ZM100.953 226.175C100.268 225.627 99.6661 224.979 99.3041 224.3C99.006 223.741 98.5482 222.466 99.5376 221.476L101.659 223.597C101.889 223.368 101.942 223.088 101.936 222.927C101.931 222.805 101.896 222.785 101.951 222.888C102.059 223.09 102.338 223.441 102.827 223.832L100.953 226.175ZM99.5376 221.476C99.56 221.454 99.5311 221.478 99.4868 221.544C99.4626 221.58 99.3032 221.812 99.2809 222.18C99.2681 222.39 99.3012 222.647 99.4309 222.905C99.5601 223.161 99.7445 223.338 99.9133 223.45C100.209 223.646 100.478 223.663 100.521 223.666C100.638 223.674 100.655 223.654 100.476 223.691C100.332 223.721 100.127 223.774 99.8547 223.856L98.9926 220.982C99.3077 220.888 99.6021 220.809 99.8618 220.755C100.086 220.708 100.412 220.65 100.735 220.673C100.88 220.684 101.227 220.721 101.572 220.95C102.035 221.257 102.31 221.787 102.275 222.361C102.249 222.789 102.059 223.096 101.975 223.22C101.871 223.375 101.754 223.502 101.659 223.597L99.5376 221.476ZM99.969 223.817C98.2029 224.506 96.2495 224.078 94.4988 223.224C92.7159 222.354 90.9008 220.931 89.2283 219.204C85.8909 215.759 82.8823 210.855 81.7523 205.958L84.6755 205.283C85.6599 209.549 88.3481 213.984 91.3831 217.117C92.8967 218.68 94.4366 219.856 95.8142 220.528C97.224 221.216 98.2365 221.272 98.8783 221.022L99.969 223.817ZM81.7488 205.942C81.1779 203.341 81.1212 200.086 81.416 197.602C81.5611 196.381 81.8069 195.201 82.1992 194.352C82.3836 193.953 82.6964 193.41 83.2387 193.063C83.5394 192.871 83.9193 192.734 84.3537 192.743C84.7818 192.751 85.1484 192.897 85.4346 193.081L83.8123 195.605C83.893 195.656 84.0604 195.738 84.2964 195.742C84.5386 195.747 84.7332 195.668 84.856 195.59C85.0428 195.47 85.0298 195.378 84.9224 195.611C84.7311 196.025 84.529 196.828 84.3951 197.956C84.132 200.171 84.1927 203.083 84.679 205.299L81.7488 205.942ZM85.3953 193.057C85.3873 193.052 85.3221 193.013 85.2068 192.982C85.0901 192.951 84.8756 192.917 84.612 192.983C83.9588 193.146 83.7417 193.682 83.6968 193.862C83.6573 194.02 83.6852 194.082 83.6682 193.968C83.6551 193.879 83.6217 193.732 83.5528 193.525L86.3989 192.576C86.5062 192.898 86.5903 193.221 86.6358 193.528C86.6776 193.81 86.7055 194.196 86.6073 194.589C86.5036 195.004 86.1691 195.686 85.3397 195.893C84.6627 196.063 84.1043 195.781 83.8516 195.629L85.3953 193.057ZM83.6342 193.721C83.1942 192.841 83.2043 191.818 83.3741 190.988C83.5491 190.132 83.9415 189.236 84.5517 188.539L86.8095 190.514C86.5975 190.756 86.4025 191.153 86.3133 191.589C86.2188 192.051 86.2876 192.32 86.3175 192.38L83.6342 193.721ZM84.5196 188.577C85.0103 187.977 85.0339 187.765 85.0347 187.752C85.0347 187.752 85.0346 187.753 85.0347 187.754C85.0348 187.755 85.0349 187.755 85.0345 187.753C85.0337 187.75 85.0296 187.731 85.0124 187.693C84.9749 187.612 84.8859 187.466 84.6831 187.241L86.9131 185.234C87.557 185.949 88.0923 186.829 88.0298 187.923C87.9718 188.939 87.408 189.784 86.8416 190.476L84.5196 188.577ZM84.598 187.137C84.1156 186.494 83.7922 185.758 83.6946 185.026C83.6017 184.329 83.6957 183.399 84.385 182.71L86.5064 184.831C86.615 184.722 86.6509 184.617 86.6604 184.578C86.6689 184.544 86.6586 184.557 86.6682 184.629C86.6881 184.778 86.7758 185.041 86.9981 185.337L84.598 187.137ZM84.385 182.71C84.3821 182.712 84.3395 182.755 84.2894 182.839C84.2412 182.92 84.1562 183.091 84.1349 183.336C84.1115 183.605 84.172 183.904 84.3437 184.169C84.5037 184.416 84.7044 184.548 84.8335 184.612C85.0612 184.726 85.2124 184.707 85.1479 184.708C85.1176 184.709 85.0258 184.716 84.8698 184.755L84.1422 181.845C84.456 181.767 84.7754 181.716 85.0827 181.709C85.356 181.703 85.7714 181.727 86.1753 181.929C86.3925 182.038 86.6593 182.225 86.8615 182.537C87.0754 182.868 87.1543 183.242 87.1236 183.595C87.0697 184.215 86.7018 184.635 86.5064 184.831L84.385 182.71ZM84.8314 184.765C83.9036 184.971 82.9157 184.793 82.1998 184.04C81.5551 183.361 81.3615 182.451 81.3615 181.656H84.3615C84.3615 181.829 84.3837 181.937 84.4007 181.991C84.4174 182.044 84.4214 182.022 84.3749 181.974C84.3514 181.949 84.3196 181.922 84.2802 181.899C84.2406 181.876 84.2022 181.861 84.17 181.853C84.105 181.837 84.0984 181.854 84.1806 181.836L84.8314 184.765ZM81.369 181.506C81.3879 181.317 81.3771 181.204 81.369 181.159C81.3587 181.102 81.3626 181.198 81.4771 181.339C81.618 181.512 81.8757 181.683 82.2056 181.7C82.3476 181.707 82.4592 181.683 82.5301 181.659C82.5993 181.636 82.6347 181.613 82.6365 181.611L80.9723 179.115C81.317 178.886 81.7953 178.674 82.3612 178.704C82.9737 178.736 83.4737 179.039 83.8055 179.447C84.378 180.152 84.4248 181.097 84.3541 181.805L81.369 181.506ZM82.6365 181.611C82.3855 181.779 81.9423 182.032 81.3917 182.041C81.0796 182.046 80.7135 181.971 80.3753 181.74C80.041 181.511 79.8444 181.206 79.7362 180.935C79.5427 180.451 79.5814 179.964 79.6275 179.66C79.6803 179.311 79.7869 178.938 79.9248 178.559L82.7442 179.584C82.6472 179.851 82.607 180.021 82.5937 180.109C82.5737 180.241 82.6271 180.085 82.5217 179.821C82.4575 179.661 82.3234 179.438 82.0689 179.264C81.8105 179.087 81.5417 179.038 81.3434 179.042C81.0204 179.047 80.8708 179.183 80.9723 179.115L82.6365 181.611ZM79.9638 178.462C80.0486 178.271 80.0933 178.126 80.1134 178.034C80.138 177.922 80.1123 177.955 80.1339 178.084C80.151 178.187 80.2794 178.742 80.9136 178.985C81.1982 179.094 81.451 179.078 81.6084 179.045C81.7584 179.013 81.8489 178.961 81.8714 178.948L80.3278 176.375C80.6102 176.206 81.2497 175.901 81.9867 176.184C82.7935 176.493 83.0319 177.224 83.0931 177.591C83.2115 178.302 82.9726 179.079 82.7053 179.68L79.9638 178.462ZM81.9108 178.923C81.4724 179.205 80.936 179.307 80.4014 179.166C79.9311 179.042 79.5942 178.765 79.3816 178.546C78.9652 178.118 78.6547 177.524 78.417 176.972C77.9189 175.815 77.4723 174.191 77.119 172.454C76.4183 169.01 75.9914 164.651 76.4485 161.908L79.4077 162.401C79.0426 164.592 79.3792 168.516 80.0587 171.856C80.3954 173.511 80.7931 174.904 81.1724 175.785C81.2647 176 81.3482 176.165 81.4193 176.286C81.494 176.414 81.5354 176.458 81.5333 176.456C81.5301 176.453 81.5027 176.425 81.4485 176.389C81.3938 176.353 81.2994 176.3 81.1664 176.265C80.8466 176.181 80.5212 176.25 80.2884 176.4L81.9108 178.923ZM76.4553 161.871C77.0959 158.551 77.618 156.263 78.164 154.89C78.4202 154.246 78.7879 153.51 79.4116 153.059C79.7709 152.8 80.2147 152.635 80.7124 152.646C81.1839 152.656 81.5778 152.822 81.8714 152.998L80.3278 155.57C80.3302 155.572 80.3583 155.588 80.4106 155.606C80.4646 155.624 80.5449 155.643 80.6457 155.645C80.875 155.65 81.061 155.569 81.1688 155.491C81.2896 155.403 81.1801 155.424 80.9518 155.998C80.5287 157.063 80.0524 159.063 79.401 162.439L76.4553 161.871ZM81.8714 152.998C81.8636 152.993 81.7988 152.954 81.6841 152.924C81.5697 152.893 81.3505 152.857 81.079 152.926C80.7833 153.002 80.5334 153.176 80.3632 153.399C80.2091 153.601 80.1575 153.792 80.1392 153.89C80.1063 154.066 80.1426 154.137 80.1173 154.028C80.0982 153.945 80.0533 153.802 79.9638 153.601L82.7053 152.383C82.8507 152.71 82.9673 153.037 83.04 153.351C83.1064 153.638 83.1648 154.033 83.0878 154.443C83.0061 154.879 82.6871 155.612 81.8213 155.833C81.1387 156.007 80.5744 155.718 80.3278 155.57L81.8714 152.998ZM79.9345 153.53C79.7785 153.125 79.6434 152.722 79.5756 152.359C79.5417 152.178 79.5119 151.942 79.5311 151.687C79.5499 151.439 79.6254 151.041 79.9239 150.676C80.6257 149.819 81.6357 150.078 81.8799 150.151C82.2462 150.26 82.614 150.46 82.9286 150.648L81.3849 153.221C81.1122 153.057 81.0101 153.022 81.0204 153.025C81.026 153.027 81.1644 153.071 81.3776 153.049C81.633 153.023 81.9816 152.899 82.2459 152.576C82.4783 152.292 82.5153 152.01 82.5226 151.913C82.5304 151.81 82.5162 151.763 82.5245 151.808C82.5411 151.896 82.5969 152.095 82.7346 152.453L79.9345 153.53ZM82.8853 150.623C83.1265 150.757 83.2523 150.812 83.2939 150.826C83.3169 150.835 83.2567 150.81 83.1423 150.799C83.0545 150.79 82.7064 150.766 82.3307 151C81.8692 151.289 81.7076 151.743 81.6809 152.052C81.6594 152.302 81.7179 152.471 81.7229 152.486C81.7376 152.531 81.7227 152.473 81.5895 152.26L84.1336 150.67C84.294 150.927 84.4699 151.236 84.5728 151.549C84.6218 151.698 84.6987 151.976 84.6698 152.311C84.6358 152.704 84.4412 153.219 83.9209 153.544C83.4865 153.816 83.054 153.804 82.8561 153.785C82.6316 153.764 82.4355 153.705 82.297 153.656C82.0156 153.557 81.7156 153.405 81.4282 153.246L82.8853 150.623ZM81.6134 152.297C81.113 151.546 81.0215 150.614 81.1247 149.83C81.2323 149.012 81.575 148.14 82.2025 147.423L84.4603 149.398C84.2655 149.621 84.1383 149.923 84.0991 150.221C84.0555 150.553 84.1402 150.679 84.1096 150.633L81.6134 152.297ZM82.16 147.473C82.364 147.218 82.4719 147.05 82.5247 146.947C82.5783 146.842 82.5361 146.88 82.5361 147.015C82.5361 147.088 82.5485 147.169 82.5766 147.249C82.6041 147.327 82.6386 147.382 82.6616 147.413C82.6829 147.441 82.6916 147.445 82.6706 147.427C82.6495 147.409 82.6079 147.378 82.5363 147.333L84.1264 144.789C84.7318 145.167 85.5361 145.854 85.5361 147.015C85.5361 147.954 84.9713 148.762 84.5027 149.347L82.16 147.473ZM82.4993 147.309C81.7776 146.828 81.3416 146.073 81.1386 145.351C80.9319 144.616 80.9194 143.757 81.2221 142.95L84.0311 144.003C83.9814 144.136 83.9689 144.334 84.0265 144.539C84.0878 144.757 84.1804 144.824 84.1635 144.813L82.4993 147.309ZM81.2221 142.95C81.2943 142.757 81.3178 142.658 81.3228 142.629C81.3375 142.543 81.2661 142.798 81.4225 143.143C81.5196 143.356 81.6962 143.582 81.9665 143.735C82.2222 143.881 82.461 143.905 82.6033 143.902C82.8402 143.898 82.9452 143.82 82.8276 143.878L81.4859 141.195C81.7207 141.078 82.1047 140.911 82.5507 140.903C82.7977 140.899 83.1237 140.942 83.4496 141.127C83.7901 141.321 84.0199 141.607 84.1537 141.901C84.3836 142.407 84.3195 142.905 84.2792 143.138C84.2291 143.429 84.1351 143.726 84.0311 144.003L81.2221 142.95ZM82.9173 143.83C82.2725 144.209 81.4533 144.298 80.7084 143.851C80.1087 143.49 79.7743 142.903 79.5806 142.457C79.1758 141.525 78.9735 140.228 78.8972 138.877C78.7415 136.121 79.0793 132.476 80.0177 129.41L82.8863 130.288C82.0627 132.979 81.7545 136.266 81.8924 138.708C81.9629 139.956 82.1424 140.825 82.3323 141.262C82.4359 141.5 82.4521 141.398 82.2533 141.279C81.9095 141.073 81.5418 141.158 81.3962 141.244L82.9173 143.83ZM80.0173 129.412C81.1266 125.775 83.0562 122.1 85.0302 119.416C86.0137 118.079 87.0553 116.923 88.0664 116.141C88.5714 115.75 89.1218 115.411 89.6989 115.209C90.2784 115.006 90.9837 114.909 91.6969 115.159L90.7058 117.991C90.8316 118.035 90.8579 117.982 90.6904 118.041C90.5205 118.1 90.256 118.24 89.902 118.514C89.1953 119.061 88.3428 119.975 87.4469 121.193C85.6621 123.62 83.8917 126.993 82.8867 130.287L80.0173 129.412ZM91.8106 115.204C92.0348 115.304 92.1194 115.321 92.1073 115.319C92.0987 115.317 92.0044 115.3 91.8587 115.318C91.7054 115.338 91.4396 115.407 91.1885 115.63C90.9263 115.863 90.8121 116.147 90.7731 116.36C90.7383 116.55 90.7613 116.685 90.7677 116.719C90.7787 116.778 90.779 116.735 90.6819 116.541L93.3652 115.199C93.5031 115.475 93.6502 115.814 93.7163 116.166C93.77 116.453 93.8617 117.268 93.1817 117.872C92.5656 118.42 91.8247 118.316 91.5764 118.271C91.2377 118.211 90.8965 118.081 90.5921 117.946L91.8106 115.204ZM90.7515 116.665C90.5908 116.408 90.3756 116.031 90.291 115.614C90.2459 115.391 90.2095 115.023 90.3615 114.619C90.5329 114.164 90.8707 113.853 91.2334 113.686C91.5509 113.539 91.8526 113.515 92.0435 113.514C92.2476 113.513 92.4414 113.538 92.6058 113.568C92.9326 113.628 93.298 113.735 93.6726 113.86L92.7238 116.706C92.3936 116.596 92.1864 116.541 92.069 116.52C92.0113 116.509 92.0152 116.514 92.0609 116.514C92.0935 116.514 92.2686 116.512 92.4907 116.41C92.758 116.286 93.0315 116.042 93.1694 115.676C93.2879 115.36 93.2488 115.105 93.2312 115.018C93.2017 114.872 93.1626 114.862 93.2956 115.075L90.7515 116.665ZM93.8074 113.912C93.9982 113.997 94.1434 114.041 94.2353 114.062C94.3473 114.086 94.3144 114.061 94.1849 114.082C94.0818 114.099 93.5269 114.228 93.284 114.862C93.1751 115.146 93.1909 115.399 93.2242 115.556C93.256 115.706 93.308 115.797 93.3214 115.819L95.894 114.276C96.0634 114.558 96.3678 115.198 96.0856 115.935C95.7767 116.741 95.0455 116.98 94.6782 117.041C93.9676 117.16 93.1903 116.921 92.5889 116.653L93.8074 113.912ZM93.3214 115.819C92.8055 114.959 92.949 114.035 93.3508 113.366C93.727 112.739 94.3313 112.292 94.9565 112.024L96.1384 114.782C96.0497 114.82 95.9868 114.861 95.948 114.892C95.9076 114.925 95.9074 114.936 95.9234 114.909C95.94 114.881 95.9822 114.798 95.9886 114.664C95.9954 114.519 95.9567 114.381 95.894 114.276L93.3214 115.819ZM95.0207 111.999C96.3396 111.504 98.4716 111.641 99.2754 113.517L96.5179 114.699C96.5295 114.726 96.5503 114.752 96.5696 114.767C96.5851 114.78 96.5817 114.772 96.5433 114.761C96.4566 114.737 96.2822 114.73 96.0741 114.808L95.0207 111.999ZM99.2754 113.517C99.3068 113.59 99.3107 113.588 99.2852 113.547C99.2734 113.528 99.2296 113.459 99.1511 113.376C99.0966 113.318 98.8852 113.097 98.5149 112.989C98.008 112.841 97.4662 112.979 97.0918 113.334C96.8178 113.593 96.7295 113.878 96.7069 113.954C96.6529 114.135 96.6609 114.259 96.6609 114.211C96.6609 114.076 96.6055 113.597 96.4299 112.778L99.3634 112.149C99.5402 112.975 99.6609 113.728 99.6609 114.211C99.6609 114.317 99.658 114.556 99.5819 114.811C99.5484 114.924 99.4463 115.235 99.1558 115.511C98.7649 115.881 98.2038 116.023 97.6748 115.869C97.2825 115.755 97.0464 115.517 96.9644 115.429C96.8583 115.316 96.7842 115.206 96.7393 115.134C96.6478 114.987 96.5746 114.831 96.5179 114.699L99.2754 113.517ZM96.4258 112.757C96.2013 111.635 96.2527 110.262 96.4773 108.963C96.7035 107.654 97.1302 106.276 97.7639 105.149L100.379 106.62C99.9552 107.373 99.6184 108.404 99.4335 109.473C99.2469 110.553 99.2396 111.529 99.3675 112.169L96.4258 112.757ZM97.7362 105.201C99.0945 102.549 102.016 99.2892 104.786 96.8328C106.185 95.5924 107.611 94.4984 108.862 93.7573C109.483 93.389 110.111 93.0778 110.704 92.8905C111.244 92.72 112.02 92.5649 112.771 92.8568L111.683 95.6528C111.905 95.739 111.951 95.6427 111.608 95.7512C111.317 95.8429 110.909 96.031 110.391 96.3381C109.362 96.948 108.094 97.9098 106.776 99.0776C104.114 101.438 101.515 104.404 100.406 106.568L97.7362 105.201ZM112.754 92.8503C112.907 92.9077 112.986 92.9199 112.999 92.9212C113.038 92.9255 112.864 92.8937 112.612 93.0103C112.469 93.076 112.293 93.1942 112.147 93.392C111.997 93.5942 111.925 93.8172 111.906 94.0174C111.889 94.2062 111.921 94.3503 111.945 94.4289C111.969 94.5084 111.995 94.5518 111.998 94.5566L114.57 93.0132C114.733 93.2847 114.945 93.7395 114.893 94.2939C114.83 94.9757 114.403 95.4875 113.869 95.7342C113.425 95.9389 112.98 95.9365 112.678 95.904C112.349 95.8686 112.017 95.7781 111.7 95.6592L112.754 92.8503ZM112.007 94.571C111.625 93.951 111.577 93.2043 111.923 92.5363C112.206 91.9898 112.68 91.6375 113.056 91.4149C113.833 90.9549 114.933 90.6216 116.125 90.3772C118.564 89.8767 121.954 89.6385 125.46 89.8199L125.305 92.8159C121.999 92.6449 118.869 92.8766 116.728 93.3159C115.629 93.5414 114.923 93.7955 114.584 93.9963C114.402 94.104 114.491 94.1005 114.587 93.9156C114.745 93.6093 114.708 93.2369 114.562 92.9988L112.007 94.571ZM125.483 89.8212C125.975 89.854 126.443 89.9142 126.862 90.0177C127.264 90.117 127.726 90.281 128.121 90.5862C128.558 90.9245 128.919 91.4481 128.961 92.1339C128.999 92.748 128.766 93.2694 128.534 93.64L125.99 92.0501C126.052 91.9509 125.951 92.0611 125.967 92.3191C125.976 92.4591 126.018 92.6024 126.091 92.7299C126.162 92.852 126.241 92.9249 126.286 92.96C126.358 93.0157 126.35 92.9814 126.143 92.9302C125.952 92.8831 125.672 92.8405 125.283 92.8146L125.483 89.8212ZM128.565 93.5892C128.456 93.7795 128.431 93.845 128.436 93.8318C128.436 93.8306 128.479 93.718 128.486 93.5411C128.493 93.3723 128.474 92.9045 128.073 92.504C127.673 92.1035 127.205 92.0839 127.036 92.0909C126.859 92.0982 126.746 92.1409 126.745 92.1414C126.732 92.1461 126.797 92.1214 126.988 92.0126L128.476 94.6173C128.255 94.7435 127.998 94.8804 127.746 94.9695C127.626 95.0122 127.415 95.0778 127.16 95.0883C126.914 95.0985 126.389 95.0624 125.952 94.6252C125.515 94.188 125.479 93.6634 125.489 93.417C125.499 93.1625 125.565 92.9517 125.608 92.8312C125.697 92.5794 125.834 92.3218 125.96 92.1009L128.565 93.5892ZM126.9 92.067C127.346 91.7694 127.847 91.6492 128.262 91.6011C128.694 91.5509 129.146 91.5659 129.581 91.6215C130.446 91.7318 131.39 92.0211 132.209 92.4681L130.772 95.1017C130.3 94.8438 129.717 94.6632 129.201 94.5973C128.946 94.5648 128.745 94.5651 128.608 94.581C128.454 94.599 128.47 94.6256 128.564 94.563L126.9 92.067ZM132.226 92.4776C132.684 92.7353 132.984 92.8831 133.168 92.9551C133.26 92.9913 133.269 92.9864 133.22 92.9786C133.192 92.9742 132.94 92.9323 132.622 93.0715C132.448 93.1478 132.278 93.2689 132.14 93.4364C132.005 93.5997 131.933 93.767 131.896 93.8989C131.86 94.0263 131.855 94.1271 131.854 94.1814C131.854 94.2371 131.86 94.2703 131.86 94.2734C131.86 94.2749 131.852 94.227 131.812 94.1106C131.774 93.9997 131.718 93.8553 131.639 93.6708L134.397 92.4892C134.577 92.9111 134.753 93.3714 134.821 93.792C134.855 93.9984 134.888 94.3382 134.784 94.7102C134.659 95.1545 134.347 95.5914 133.825 95.8199C133.389 96.0104 132.979 95.9778 132.751 95.9417C132.502 95.9022 132.269 95.8248 132.075 95.749C131.687 95.5971 131.237 95.3631 130.755 95.0922L132.226 92.4776ZM131.618 93.6184C131.462 93.2128 131.327 92.8098 131.259 92.4471C131.225 92.2658 131.195 92.0305 131.214 91.7756C131.233 91.5273 131.309 91.1295 131.607 90.7646C132.309 89.9068 133.319 90.1657 133.563 90.2387C133.929 90.3483 134.297 90.5478 134.612 90.7366L133.068 93.309C132.796 93.1453 132.693 93.1099 132.704 93.113C132.709 93.1146 132.848 93.1589 133.061 93.1371C133.316 93.1111 133.665 92.9872 133.929 92.6642C134.162 92.3801 134.199 92.0979 134.206 92.0015C134.214 91.8984 134.199 91.8513 134.208 91.8958C134.224 91.9846 134.28 92.1836 134.418 92.5416L131.618 93.6184ZM134.569 90.7116C134.807 90.8441 134.94 90.9027 134.991 90.9215C135.019 90.9316 134.974 90.9118 134.881 90.8994C134.822 90.8916 134.506 90.8497 134.138 91.0336C133.93 91.1375 133.73 91.303 133.582 91.5338C133.438 91.7575 133.383 91.9799 133.366 92.1488C133.336 92.4486 133.417 92.6559 133.427 92.6815C133.455 92.7561 133.455 92.7259 133.324 92.5421L135.765 90.7985C135.928 91.0259 136.12 91.3188 136.236 91.6283C136.289 91.7714 136.389 92.0741 136.351 92.4473C136.304 92.9211 136.033 93.4401 135.48 93.7168C135.054 93.93 134.653 93.8955 134.484 93.873C134.28 93.8459 134.1 93.7894 133.966 93.7408C133.695 93.6421 133.401 93.4951 133.112 93.334L134.569 90.7116ZM133.242 92.4145C132.88 91.7799 132.896 91.1005 132.992 90.5945C133.092 90.0731 133.308 89.5582 133.567 89.0855C134.087 88.1347 134.903 87.1305 135.87 86.2273L137.918 88.4203C137.123 89.1617 136.53 89.9196 136.198 90.5254C136.031 90.8309 135.961 91.0429 135.939 91.1566C135.915 91.2856 135.975 91.1496 135.847 90.9262L133.242 92.4145ZM156.158 71.6997L156.582 74.6696L156.575 74.6706L156.568 74.6716L156.158 71.6997ZM119.157 84.5044L120.717 87.0669L120.71 87.0713L120.703 87.0756L119.157 84.5044ZM72.5249 145.004L75.4064 145.838L75.403 145.85L75.3995 145.862L72.5249 145.004ZM72.5249 199.864L69.6421 200.694L69.6419 200.694L72.5249 199.864ZM127.38 264.71L128.588 261.964L128.602 261.97L128.617 261.977L127.38 264.71ZM208.428 267.529L209.77 270.213L209.137 270.529H208.428V267.529ZM216.886 263.3L218.232 265.981L218.227 265.983L216.886 263.3ZM269.509 197.632L266.612 196.853L266.615 196.842L266.618 196.831L269.509 197.632ZM271.388 156.516L274.349 156.036L274.352 156.053L274.355 156.07L271.388 156.516ZM203.73 76.2812L204.667 73.4312L204.676 73.4343L203.73 76.2812ZM156.568 74.6716C151.739 75.3377 144.725 77.235 137.846 79.6155C130.953 82.0007 124.496 84.7669 120.717 87.0669L117.597 81.9419C121.924 79.308 128.857 76.3767 135.884 73.9454C142.923 71.5096 150.358 69.4714 155.748 68.7278L156.568 74.6716ZM120.703 87.0756C98.6797 100.314 82.4781 121.427 75.4064 145.838L69.6433 144.169C77.1369 118.301 94.2946 95.9491 117.612 81.9332L120.703 87.0756ZM75.3995 145.862C73.1803 153.297 72.8232 157.047 72.8232 172.493H66.8232C66.8232 156.925 67.171 152.452 69.6502 144.146L75.3995 145.862ZM72.8232 172.493C72.8232 187.786 73.2921 191.684 75.4078 199.034L69.6419 200.694C67.2941 192.537 66.8232 187.977 66.8232 172.493H72.8232ZM75.4077 199.034C83.4039 226.795 104.096 251.191 128.588 261.964L126.172 267.456C99.9201 255.909 78.0905 230.026 69.6421 200.694L75.4077 199.034ZM128.617 261.977C130.167 262.679 131.175 263.111 132.422 263.437C133.677 263.766 135.286 264.013 137.965 264.183C143.393 264.528 152.628 264.529 171.075 264.529V270.529C152.758 270.529 143.257 270.531 137.585 270.171C134.714 269.989 132.681 269.707 130.904 269.242C129.119 268.775 127.705 268.15 126.142 267.443L128.617 261.977ZM171.075 264.529H208.428V270.529H171.075V264.529ZM207.087 264.846L215.544 260.617L218.227 265.983L209.77 270.213L207.087 264.846ZM215.539 260.619C240.703 247.979 258.955 225.313 266.612 196.853L272.406 198.412C264.323 228.454 244.987 252.542 218.232 265.981L215.539 260.619ZM266.618 196.831C267.878 192.284 268.747 185.003 269.081 177.383C269.414 169.785 269.203 162.157 268.421 156.963L274.355 156.07C275.217 161.8 275.417 169.855 275.075 177.646C274.734 185.415 273.841 193.23 272.4 198.433L266.618 196.831ZM268.427 156.996C262.494 120.367 237.411 90.6338 202.784 79.1282L204.676 73.4343C241.466 85.6585 268.066 117.247 274.349 156.036L268.427 156.996ZM202.793 79.1312C186.4 73.7427 172.535 72.3903 156.582 74.6696L155.733 68.7299C172.67 66.3102 187.466 67.7771 204.667 73.4312L202.793 79.1312Z" fill="#151515" mask="url(#path-23-outside-1_192_1305)"/>
</svg>
