<svg width="375" height="375" viewBox="0 0 375 375" fill="none" xmlns="http://www.w3.org/2000/svg">
<path d="M15 0H0V15H15V0Z" fill="black"/>
<path d="M30 0H15V15H30V0Z" fill="black"/>
<path d="M45 0H30V15H45V0Z" fill="black"/>
<path d="M60 0H45V15H60V0Z" fill="black"/>
<path d="M75 0H60V15H75V0Z" fill="black"/>
<path d="M90 0H75V15H90V0Z" fill="black"/>
<path d="M105 0H90V15H105V0Z" fill="black"/>
<path d="M135 0H120V15H135V0Z" fill="black"/>
<path d="M165 0H150V15H165V0Z" fill="black"/>
<path d="M180 0H165V15H180V0Z" fill="black"/>
<path d="M195 0H180V15H195V0Z" fill="black"/>
<path d="M210 0H195V15H210V0Z" fill="black"/>
<path d="M225 0H210V15H225V0Z" fill="black"/>
<path d="M240 0H225V15H240V0Z" fill="black"/>
<path d="M255 0H240V15H255V0Z" fill="black"/>
<path d="M285 0H270V15H285V0Z" fill="black"/>
<path d="M300 0H285V15H300V0Z" fill="black"/>
<path d="M315 0H300V15H315V0Z" fill="black"/>
<path d="M330 0H315V15H330V0Z" fill="black"/>
<path d="M345 0H330V15H345V0Z" fill="black"/>
<path d="M360 0H345V15H360V0Z" fill="black"/>
<path d="M375 0H360V15H375V0Z" fill="black"/>
<path d="M15 15H0V30H15V15Z" fill="black"/>
<path d="M105 15H90L90 30H105V15Z" fill="black"/>
<path d="M150 15H135V30H150V15Z" fill="black"/>
<path d="M165 15H150V30H165V15Z" fill="black"/>
<path d="M210 15H195V30H210V15Z" fill="black"/>
<path d="M285 15H270V30H285V15Z" fill="black"/>
<path d="M375 15H360V30H375V15Z" fill="black"/>
<path d="M15 30H0V45H15V30Z" fill="black"/>
<path d="M45 30H30V45H45V30Z" fill="black"/>
<path d="M60 30H45V45H60V30Z" fill="black"/>
<path d="M75 30H60V45H75V30Z" fill="black"/>
<path d="M105 30H90V45H105V30Z" fill="black"/>
<path d="M135 30H120V45H135V30Z" fill="black"/>
<path d="M210 30H195V45H210V30Z" fill="black"/>
<path d="M225 30H210V45H225V30Z" fill="black"/>
<path d="M255 30H240V45H255V30Z" fill="black"/>
<path d="M285 30H270V45H285V30Z" fill="black"/>
<path d="M315 30H300V45H315V30Z" fill="black"/>
<path d="M330 30H315V45H330V30Z" fill="black"/>
<path d="M345 30H330V45H345V30Z" fill="black"/>
<path d="M375 30H360V45H375V30Z" fill="black"/>
<path d="M15 45H0V60H15V45Z" fill="black"/>
<path d="M45 45H30V60H45V45Z" fill="black"/>
<path d="M60 45H45V60H60V45Z" fill="black"/>
<path d="M75 45H60V60H75V45Z" fill="black"/>
<path d="M105 45H90V60H105V45Z" fill="black"/>
<path d="M135 45H120V60H135V45Z" fill="black"/>
<path d="M180 45H165V60H180V45Z" fill="black"/>
<path d="M210 45H195V60H210V45Z" fill="black"/>
<path d="M240 45H225L225 60H240V45Z" fill="black"/>
<path d="M285 45H270V60H285V45Z" fill="black"/>
<path d="M315 45H300V60H315V45Z" fill="black"/>
<path d="M330 45H315V60H330V45Z" fill="black"/>
<path d="M345 45H330V60H345V45Z" fill="black"/>
<path d="M375 45H360V60H375V45Z" fill="black"/>
<path d="M15 60H0V75H15V60Z" fill="black"/>
<path d="M45 60H30V75H45V60Z" fill="black"/>
<path d="M60 60H45V75H60V60Z" fill="black"/>
<path d="M75 60H60V75H75V60Z" fill="black"/>
<path d="M105 60H90V75H105V60Z" fill="black"/>
<path d="M135 60H120V75H135V60Z" fill="black"/>
<path d="M165 60H150V75H165V60Z" fill="black"/>
<path d="M180 60H165V75H180V60Z" fill="black"/>
<path d="M195 60H180V75H195V60Z" fill="black"/>
<path d="M210 60H195V75H210V60Z" fill="black"/>
<path d="M225 60H210V75H225L225 60Z" fill="black"/>
<path d="M255 60H240V75H255V60Z" fill="black"/>
<path d="M285 60H270V75H285V60Z" fill="black"/>
<path d="M315 60H300V75H315V60Z" fill="black"/>
<path d="M330 60H315V75H330V60Z" fill="black"/>
<path d="M345 60H330V75H345V60Z" fill="black"/>
<path d="M375 60H360V75H375V60Z" fill="black"/>
<path d="M15 75H0V90H15V75Z" fill="black"/>
<path d="M105 75H90V90H105V75Z" fill="black"/>
<path d="M135 75H120V90H135V75Z" fill="black"/>
<path d="M180 75H165V90H180V75Z" fill="black"/>
<path d="M240 75H225L225 90H240V75Z" fill="black"/>
<path d="M285 75H270V90H285V75Z" fill="black"/>
<path d="M375 75H360V90H375V75Z" fill="black"/>
<path d="M15 90H0V105H15V90Z" fill="black"/>
<path d="M30 90L15 90V105H30V90Z" fill="black"/>
<path d="M45 90H30V105H45V90Z" fill="black"/>
<path d="M60 90H45V105H60V90Z" fill="black"/>
<path d="M75 90H60V105H75V90Z" fill="black"/>
<path d="M90 90L75 90V105H90L90 90Z" fill="black"/>
<path d="M105 90H90L90 105H105V90Z" fill="black"/>
<path d="M135 90H120V105H135V90Z" fill="black"/>
<path d="M165 90L150 90V105H165V90Z" fill="black"/>
<path d="M195 90L180 90V105H195V90Z" fill="black"/>
<path d="M225 90L210 90V105H225L225 90Z" fill="black"/>
<path d="M255 90L240 90V105H255V90Z" fill="black"/>
<path d="M285 90H270V105H285V90Z" fill="black"/>
<path d="M300 90L285 90V105H300V90Z" fill="black"/>
<path d="M315 90H300V105H315V90Z" fill="black"/>
<path d="M330 90H315V105H330V90Z" fill="black"/>
<path d="M345 90H330V105H345V90Z" fill="black"/>
<path d="M360 90L345 90V105H360V90Z" fill="black"/>
<path d="M375 90H360V105H375V90Z" fill="black"/>
<path d="M150 105H135V120H150V105Z" fill="black"/>
<path d="M165 105H150V120H165V105Z" fill="black"/>
<path d="M195 105H180V120H195V105Z" fill="black"/>
<path d="M45 120H30V135H45V120Z" fill="black"/>
<path d="M60 120H45V135H60V120Z" fill="black"/>
<path d="M75 120H60V135H75V120Z" fill="black"/>
<path d="M90 120H75V135H90V120Z" fill="black"/>
<path d="M105 120H90V135H105V120Z" fill="black"/>
<path d="M120 120H105V135H120V120Z" fill="black"/>
<path d="M150 120H135V135H150V120Z" fill="black"/>
<path d="M165 120H150V135H165V120Z" fill="black"/>
<path d="M180 120H165V135H180V120Z" fill="black"/>
<path d="M210 120H195V135H210V120Z" fill="black"/>
<path d="M240 120H225V135H240V120Z" fill="black"/>
<path d="M255 120H240V135H255V120Z" fill="black"/>
<path d="M270 120H255V135H270V120Z" fill="black"/>
<path d="M300 120H285V135H300V120Z" fill="black"/>
<path d="M315 120H300V135H315V120Z" fill="black"/>
<path d="M330 120H315V135H330V120Z" fill="black"/>
<path d="M345 120H330V135H345V120Z" fill="black"/>
<path d="M375 120H360V135H375V120Z" fill="black"/>
<path d="M15 135H0V150H15V135Z" fill="black"/>
<path d="M30 135H15V150H30V135Z" fill="black"/>
<path d="M45 135H30V150H45V135Z" fill="black"/>
<path d="M60 135H45V150H60V135Z" fill="black"/>
<path d="M75 135H60V150H75V135Z" fill="black"/>
<path d="M120 135H105V150H120V135Z" fill="black"/>
<path d="M195 135H180V150H195V135Z" fill="black"/>
<path d="M225 135H210V150H225L225 135Z" fill="black"/>
<path d="M240 135H225L225 150H240V135Z" fill="black"/>
<path d="M285 135H270V150H285V135Z" fill="black"/>
<path d="M300 135H285V150H300V135Z" fill="black"/>
<path d="M330 135H315V150H330V135Z" fill="black"/>
<path d="M375 135H360V150H375V135Z" fill="black"/>
<path d="M30 150H15V165H30V150Z" fill="black"/>
<path d="M60 150H45V165H60V150Z" fill="black"/>
<path d="M75 150H60V165H75V150Z" fill="black"/>
<path d="M90 150H75V165H90V150Z" fill="black"/>
<path d="M105 150H90V165H105V150Z" fill="black"/>
<path d="M150 150H135V165H150V150Z" fill="black"/>
<path d="M165 150H150V165H165V150Z" fill="black"/>
<path d="M180 150H165V165H180V150Z" fill="black"/>
<path d="M195 150H180V165H195V150Z" fill="black"/>
<path d="M225 150H210V165H225V150Z" fill="black"/>
<path d="M255 150H240V165H255V150Z" fill="black"/>
<path d="M285 150H270V165H285V150Z" fill="black"/>
<path d="M360 150H345V165H360V150Z" fill="black"/>
<path d="M15 165H0V180H15V165Z" fill="black"/>
<path d="M60 165H45V180H60V165Z" fill="black"/>
<path d="M90 165H75V180H90V165Z" fill="black"/>
<path d="M135 165H120V180H135V165Z" fill="black"/>
<path d="M150 165H135V180H150V165Z" fill="black"/>
<path d="M180 165H165V180H180V165Z" fill="black"/>
<path d="M225 165H210V180H225V165Z" fill="black"/>
<path d="M240 165H225V180H240V165Z" fill="black"/>
<path d="M255 165H240V180H255V165Z" fill="black"/>
<path d="M345 165H330V180H345V165Z" fill="black"/>
<path d="M360 165H345V180H360V165Z" fill="black"/>
<path d="M375 165H360V180H375V165Z" fill="black"/>
<path d="M60 180H45V195H60V180Z" fill="black"/>
<path d="M75 180H60V195H75V180Z" fill="black"/>
<path d="M90 180H75V195H90V180Z" fill="black"/>
<path d="M105 180H90V195H105V180Z" fill="black"/>
<path d="M135 180H120V195H135V180Z" fill="black"/>
<path d="M180 180H165V195H180V180Z" fill="black"/>
<path d="M195 180H180V195H195V180Z" fill="black"/>
<path d="M225 180H210V195H225V180Z" fill="black"/>
<path d="M270 180H255V195H270V180Z" fill="black"/>
<path d="M300 180H285V195H300V180Z" fill="black"/>
<path d="M315 180H300V195H315V180Z" fill="black"/>
<path d="M345 180H330V195H345V180Z" fill="black"/>
<path d="M375 180H360V195H375V180Z" fill="black"/>
<path d="M30 195H15V210H30V195Z" fill="black"/>
<path d="M60 195H45V210H60V195Z" fill="black"/>
<path d="M90 195H75V210H90V195Z" fill="black"/>
<path d="M135 195H120V210H135V195Z" fill="black"/>
<path d="M150 195H135V210H150V195Z" fill="black"/>
<path d="M165 195H150V210H165V195Z" fill="black"/>
<path d="M195 195H180V210H195V195Z" fill="black"/>
<path d="M225 195H210V210H225V195Z" fill="black"/>
<path d="M255 195H240V210H255V195Z" fill="black"/>
<path d="M315 195H300V210H315V195Z" fill="black"/>
<path d="M330 195H315V210H330V195Z" fill="black"/>
<path d="M345 195H330V210H345V195Z" fill="black"/>
<path d="M15 210H0V225H15V210Z" fill="black"/>
<path d="M45 210H30V225H45V210Z" fill="black"/>
<path d="M60 210H45V225H60V210Z" fill="black"/>
<path d="M75 210H60V225H75V210Z" fill="black"/>
<path d="M105 210H90L90 225H105V210Z" fill="black"/>
<path d="M120 210H105V225H120V210Z" fill="black"/>
<path d="M165 210H150V225H165V210Z" fill="black"/>
<path d="M195 210H180V225H195V210Z" fill="black"/>
<path d="M210 210H195V225H210V210Z" fill="black"/>
<path d="M255 210H240V225H255V210Z" fill="black"/>
<path d="M270 210H255V225H270V210Z" fill="black"/>
<path d="M285 210H270V225H285V210Z" fill="black"/>
<path d="M300 210H285V225H300V210Z" fill="black"/>
<path d="M345 210H330V225H345V210Z" fill="black"/>
<path d="M360 210H345V225H360V210Z" fill="black"/>
<path d="M30 225H15V240H30V225Z" fill="black"/>
<path d="M45 225H30V240H45V225Z" fill="black"/>
<path d="M60 225H45V240H60V225Z" fill="black"/>
<path d="M90 225H75V240H90L90 225Z" fill="black"/>
<path d="M165 225H150V240H165V225Z" fill="black"/>
<path d="M180 225H165V240H180V225Z" fill="black"/>
<path d="M225 225L210 225V240H225V225Z" fill="black"/>
<path d="M255 225H240V240H255V225Z" fill="black"/>
<path d="M315 225L300 225V240H315V225Z" fill="black"/>
<path d="M15 240H0V255H15V240Z" fill="black"/>
<path d="M30 240H15V255H30V240Z" fill="black"/>
<path d="M45 240H30V255H45V240Z" fill="black"/>
<path d="M75 240H60V255H75V240Z" fill="black"/>
<path d="M105 240H90L90 255H105V240Z" fill="black"/>
<path d="M120 240H105V255H120V240Z" fill="black"/>
<path d="M150 240H135V255H150V240Z" fill="black"/>
<path d="M165 240H150V255H165V240Z" fill="black"/>
<path d="M210 240H195V255H210V240Z" fill="black"/>
<path d="M225 240H210V255H225V240Z" fill="black"/>
<path d="M255 240H240V255H255V240Z" fill="black"/>
<path d="M270 240H255V255H270V240Z" fill="black"/>
<path d="M285 240H270V255H285V240Z" fill="black"/>
<path d="M300 240H285V255H300V240Z" fill="black"/>
<path d="M315 240H300V255H315V240Z" fill="black"/>
<path d="M360 240H345V255H360V240Z" fill="black"/>
<path d="M195 255H180V270H195V255Z" fill="black"/>
<path d="M240 255H225L225 270H240V255Z" fill="black"/>
<path d="M255 255H240V270H255V255Z" fill="black"/>
<path d="M315 255H300V270H315V255Z" fill="black"/>
<path d="M330 255H315V270H330V255Z" fill="black"/>
<path d="M15 270H0V285H15V270Z" fill="black"/>
<path d="M30 270H15V285H30V270Z" fill="black"/>
<path d="M45 270H30V285H45V270Z" fill="black"/>
<path d="M60 270H45V285H60V270Z" fill="black"/>
<path d="M75 270H60V285H75V270Z" fill="black"/>
<path d="M90 270H75V285H90V270Z" fill="black"/>
<path d="M105 270H90V285H105V270Z" fill="black"/>
<path d="M135 270H120V285H135V270Z" fill="black"/>
<path d="M165 270H150V285H165V270Z" fill="black"/>
<path d="M195 270H180V285H195V270Z" fill="black"/>
<path d="M240 270H225V285H240V270Z" fill="black"/>
<path d="M255 270H240V285H255V270Z" fill="black"/>
<path d="M285 270H270V285H285V270Z" fill="black"/>
<path d="M315 270H300V285H315V270Z" fill="black"/>
<path d="M330 270H315V285H330V270Z" fill="black"/>
<path d="M360 270H345V285H360V270Z" fill="black"/>
<path d="M15 285H0V300H15V285Z" fill="black"/>
<path d="M105 285H90L90 300H105V285Z" fill="black"/>
<path d="M135 285H120V300H135V285Z" fill="black"/>
<path d="M150 285H135V300H150V285Z" fill="black"/>
<path d="M165 285H150V300H165V285Z" fill="black"/>
<path d="M210 285H195V300H210V285Z" fill="black"/>
<path d="M225 285H210V300H225L225 285Z" fill="black"/>
<path d="M240 285H225L225 300H240V285Z" fill="black"/>
<path d="M255 285H240V300H255V285Z" fill="black"/>
<path d="M315 285H300V300H315V285Z" fill="black"/>
<path d="M360 285H345V300H360V285Z" fill="black"/>
<path d="M375 285H360V300H375V285Z" fill="black"/>
<path d="M15 300H0V315H15V300Z" fill="black"/>
<path d="M45 300H30V315H45V300Z" fill="black"/>
<path d="M60 300H45V315H60V300Z" fill="black"/>
<path d="M75 300H60V315H75V300Z" fill="black"/>
<path d="M105 300H90V315H105V300Z" fill="black"/>
<path d="M135 300H120V315H135V300Z" fill="black"/>
<path d="M195 300H180V315H195V300Z" fill="black"/>
<path d="M225 300H210V315H225V300Z" fill="black"/>
<path d="M240 300H225V315H240V300Z" fill="black"/>
<path d="M255 300H240V315H255V300Z" fill="black"/>
<path d="M270 300H255V315H270V300Z" fill="black"/>
<path d="M285 300H270V315H285V300Z" fill="black"/>
<path d="M300 300H285V315H300V300Z" fill="black"/>
<path d="M315 300H300V315H315V300Z" fill="black"/>
<path d="M330 300H315V315H330V300Z" fill="black"/>
<path d="M360 300H345V315H360V300Z" fill="black"/>
<path d="M375 300H360V315H375V300Z" fill="black"/>
<path d="M15 315H0V330H15V315Z" fill="black"/>
<path d="M45 315H30V330H45V315Z" fill="black"/>
<path d="M60 315H45V330H60V315Z" fill="black"/>
<path d="M75 315H60V330H75V315Z" fill="black"/>
<path d="M105 315H90V330H105V315Z" fill="black"/>
<path d="M135 315H120V330H135V315Z" fill="black"/>
<path d="M165 315H150V330H165V315Z" fill="black"/>
<path d="M210 315H195V330H210V315Z" fill="black"/>
<path d="M225 315H210V330H225V315Z" fill="black"/>
<path d="M270 315H255V330H270V315Z" fill="black"/>
<path d="M300 315H285V330H300V315Z" fill="black"/>
<path d="M330 315H315V330H330V315Z" fill="black"/>
<path d="M345 315H330V330H345V315Z" fill="black"/>
<path d="M360 315H345V330H360V315Z" fill="black"/>
<path d="M375 315H360V330H375V315Z" fill="black"/>
<path d="M15 330H0V345H15V330Z" fill="black"/>
<path d="M45 330H30V345H45V330Z" fill="black"/>
<path d="M60 330H45V345H60V330Z" fill="black"/>
<path d="M75 330H60V345H75V330Z" fill="black"/>
<path d="M105 330H90V345H105V330Z" fill="black"/>
<path d="M135 330H120V345H135V330Z" fill="black"/>
<path d="M195 330H180V345H195V330Z" fill="black"/>
<path d="M255 330H240V345H255V330Z" fill="black"/>
<path d="M285 330H270V345H285V330Z" fill="black"/>
<path d="M315 330H300V345H315V330Z" fill="black"/>
<path d="M330 330H315V345H330V330Z" fill="black"/>
<path d="M345 330H330V345H345V330Z" fill="black"/>
<path d="M375 330H360V345H375V330Z" fill="black"/>
<path d="M15 345H0V360H15V345Z" fill="black"/>
<path d="M105 345H90V360H105V345Z" fill="black"/>
<path d="M150 345H135V360H150V345Z" fill="black"/>
<path d="M165 345H150V360H165V345Z" fill="black"/>
<path d="M195 345H180V360H195V345Z" fill="black"/>
<path d="M210 345H195V360H210V345Z" fill="black"/>
<path d="M225 345H210V360H225V345Z" fill="black"/>
<path d="M285 345H270V360H285V345Z" fill="black"/>
<path d="M300 345H285V360H300V345Z" fill="black"/>
<path d="M315 345H300V360H315V345Z" fill="black"/>
<path d="M330 345H315V360H330V345Z" fill="black"/>
<path d="M375 345H360V360H375V345Z" fill="black"/>
<path d="M15 360H0V375H15V360Z" fill="black"/>
<path d="M30 360H15V375H30V360Z" fill="black"/>
<path d="M45 360H30V375H45V360Z" fill="black"/>
<path d="M60 360H45V375H60V360Z" fill="black"/>
<path d="M75 360H60V375H75V360Z" fill="black"/>
<path d="M90 360H75V375H90L90 360Z" fill="black"/>
<path d="M105 360H90L90 375H105V360Z" fill="black"/>
<path d="M165 360H150V375H165V360Z" fill="black"/>
<path d="M180 360H165V375H180V360Z" fill="black"/>
<path d="M195 360H180V375H195V360Z" fill="black"/>
<path d="M225 360H210V375H225V360Z" fill="black"/>
<path d="M240 360H225V375H240V360Z" fill="black"/>
<path d="M285 360H270V375H285V360Z" fill="black"/>
<path d="M315 360H300V375H315V360Z" fill="black"/>
<path d="M330 360H315V375H330V360Z" fill="black"/>
<path d="M345 360H330V375H345V360Z" fill="black"/>
<path d="M360 360H345V375H360V360Z" fill="black"/>
<path d="M375 360H360V375H375V360Z" fill="black"/>
</svg>
