<svg width="413" height="459" viewBox="0 0 413 459" fill="none" xmlns="http://www.w3.org/2000/svg">
<path d="M243.326 38.0603C236.749 35.6131 229.465 35.8763 223.073 38.7892L52.0517 116.737C45.6606 119.65 40.6833 124.975 38.2164 131.544C35.7492 138.114 35.9951 145.389 38.9027 151.768L155.474 407.533C158.382 413.912 163.712 418.87 170.288 421.318C176.865 423.765 184.149 423.502 190.54 420.589L361.562 342.641C367.953 339.728 372.931 334.402 375.398 327.833C377.865 321.264 377.619 313.989 374.711 307.61L258.14 51.845C255.232 45.4656 249.902 40.5077 243.326 38.0603ZM21.8479 125.473C25.9429 114.568 34.2077 105.722 44.8258 100.883L215.848 22.9351C226.466 18.0956 238.564 17.6606 249.48 21.7229C260.396 25.785 269.236 34.0111 274.058 44.59L390.629 300.355C395.451 310.933 395.861 323.002 391.766 333.905C387.671 344.809 379.406 353.655 368.788 358.495L197.766 436.443C187.148 441.282 175.05 441.717 164.134 437.655C153.218 433.593 144.378 425.367 139.556 414.788L22.9846 159.023C18.163 148.445 17.7531 136.376 21.8479 125.473Z" stroke="#5E5E5E" stroke-width="6"/>
<mask id="path-2-inside-1_185_2214" fill="white">
<path d="M68.3131 151.737C67.0211 148.902 66.9047 145.671 67.9896 142.756C69.0745 139.84 71.2719 137.479 74.0983 136.191L223.294 68.1905C226.121 66.9023 229.345 66.793 232.257 67.8867C235.169 68.9803 237.531 71.1874 238.823 74.0222L258.31 116.778C259.602 119.613 259.718 122.843 258.633 125.758C257.548 128.674 255.351 131.035 252.525 132.324L103.329 200.324C100.502 201.612 97.2785 201.721 94.3663 200.628C91.4541 199.534 89.0922 197.327 87.8001 194.492L68.3131 151.737ZM107.287 237.248C105.995 234.413 105.879 231.182 106.964 228.267C108.048 225.351 110.246 222.99 113.072 221.702L134.386 211.987C137.212 210.699 140.436 210.59 143.348 211.683C146.261 212.777 148.622 214.984 149.915 217.819L159.658 239.197C160.95 242.032 161.066 245.262 159.982 248.177C158.897 251.093 156.699 253.454 153.873 254.743L132.559 264.457C129.733 265.745 126.509 265.854 123.597 264.761C120.685 263.667 118.323 261.46 117.031 258.625L107.287 237.248ZM136.518 301.381C135.225 298.546 135.109 295.315 136.194 292.4C137.279 289.484 139.476 287.123 142.303 285.835L163.616 276.12C166.443 274.832 169.667 274.723 172.579 275.817C175.491 276.91 177.853 279.117 179.145 281.952L188.888 303.33C190.181 306.165 190.297 309.395 189.212 312.311C188.127 315.226 185.93 317.588 183.103 318.876L161.79 328.59C158.963 329.878 155.739 329.988 152.827 328.894C149.915 327.8 147.553 325.593 146.261 322.758L136.518 301.381ZM165.748 365.514C164.456 362.679 164.34 359.449 165.424 356.533C166.509 353.618 168.707 351.256 171.533 349.968L192.847 340.254C195.673 338.965 198.897 338.856 201.809 339.95C204.721 341.043 207.083 343.25 208.375 346.085L218.119 367.463C219.411 370.298 219.527 373.528 218.442 376.444C217.357 379.359 215.16 381.721 212.334 383.009L191.02 392.723C188.194 394.011 184.97 394.121 182.058 393.027C179.145 391.933 176.784 389.726 175.491 386.892L165.748 365.514ZM171.228 208.105C169.936 205.27 169.82 202.039 170.905 199.124C171.99 196.208 174.187 193.847 177.013 192.559L198.327 182.844C201.153 181.556 204.377 181.447 207.289 182.54C210.202 183.634 212.564 185.841 213.856 188.676L223.599 210.054C224.891 212.889 225.008 216.119 223.923 219.035C222.838 221.95 220.64 224.312 217.814 225.6L196.5 235.314C193.674 236.602 190.45 236.712 187.538 235.618C184.626 234.524 182.264 232.317 180.972 229.482L171.228 208.105ZM200.459 272.238C199.167 269.403 199.05 266.172 200.135 263.257C201.22 260.342 203.417 257.98 206.244 256.692L227.557 246.977C230.384 245.689 233.608 245.58 236.52 246.674C239.432 247.767 241.794 249.974 243.086 252.809L252.83 274.187C254.122 277.022 254.238 280.252 253.153 283.168C252.068 286.083 249.871 288.445 247.044 289.733L225.731 299.447C222.904 300.735 219.681 300.845 216.768 299.751C213.856 298.657 211.494 296.45 210.202 293.616L200.459 272.238ZM229.689 336.371C228.397 333.536 228.281 330.306 229.366 327.39C230.451 324.475 232.648 322.113 235.474 320.825L256.788 311.111C259.614 309.822 262.838 309.713 265.75 310.807C268.663 311.9 271.024 314.107 272.317 316.942L282.06 338.32C283.352 341.155 283.468 344.385 282.384 347.301C281.299 350.216 279.101 352.578 276.275 353.866L254.961 363.58C252.135 364.869 248.911 364.978 245.999 363.884C243.087 362.791 240.725 360.584 239.433 357.749L229.689 336.371ZM235.169 178.962C233.877 176.127 233.761 172.896 234.846 169.981C235.931 167.065 238.128 164.704 240.954 163.416L262.268 153.701C265.095 152.413 268.318 152.304 271.231 153.398C274.143 154.491 276.505 156.698 277.797 159.533L287.54 180.911C288.832 183.746 288.949 186.976 287.864 189.892C286.779 192.807 284.582 195.169 281.755 196.457L260.441 206.171C257.615 207.459 254.391 207.569 251.479 206.475C248.567 205.381 246.205 203.174 244.913 200.339L235.169 178.962ZM264.4 243.095C263.108 240.26 262.991 237.029 264.076 234.114C265.161 231.199 267.359 228.837 270.185 227.549L291.499 217.835C294.325 216.546 297.549 216.437 300.461 217.531C303.373 218.624 305.735 220.831 307.027 223.666L346.001 309.177C347.293 312.012 347.41 315.242 346.325 318.158C345.24 321.073 343.042 323.435 340.216 324.723L318.902 334.437C316.076 335.726 312.852 335.835 309.94 334.741C307.028 333.648 304.666 331.441 303.374 328.606L264.4 243.095Z"/>
</mask>
<path d="M68.3131 151.737C67.0211 148.902 66.9047 145.671 67.9896 142.756C69.0745 139.84 71.2719 137.479 74.0983 136.191L223.294 68.1905C226.121 66.9023 229.345 66.793 232.257 67.8867C235.169 68.9803 237.531 71.1874 238.823 74.0222L258.31 116.778C259.602 119.613 259.718 122.843 258.633 125.758C257.548 128.674 255.351 131.035 252.525 132.324L103.329 200.324C100.502 201.612 97.2785 201.721 94.3663 200.628C91.4541 199.534 89.0922 197.327 87.8001 194.492L68.3131 151.737ZM107.287 237.248C105.995 234.413 105.879 231.182 106.964 228.267C108.048 225.351 110.246 222.99 113.072 221.702L134.386 211.987C137.212 210.699 140.436 210.59 143.348 211.683C146.261 212.777 148.622 214.984 149.915 217.819L159.658 239.197C160.95 242.032 161.066 245.262 159.982 248.177C158.897 251.093 156.699 253.454 153.873 254.743L132.559 264.457C129.733 265.745 126.509 265.854 123.597 264.761C120.685 263.667 118.323 261.46 117.031 258.625L107.287 237.248ZM136.518 301.381C135.225 298.546 135.109 295.315 136.194 292.4C137.279 289.484 139.476 287.123 142.303 285.835L163.616 276.12C166.443 274.832 169.667 274.723 172.579 275.817C175.491 276.91 177.853 279.117 179.145 281.952L188.888 303.33C190.181 306.165 190.297 309.395 189.212 312.311C188.127 315.226 185.93 317.588 183.103 318.876L161.79 328.59C158.963 329.878 155.739 329.988 152.827 328.894C149.915 327.8 147.553 325.593 146.261 322.758L136.518 301.381ZM165.748 365.514C164.456 362.679 164.34 359.449 165.424 356.533C166.509 353.618 168.707 351.256 171.533 349.968L192.847 340.254C195.673 338.965 198.897 338.856 201.809 339.95C204.721 341.043 207.083 343.25 208.375 346.085L218.119 367.463C219.411 370.298 219.527 373.528 218.442 376.444C217.357 379.359 215.16 381.721 212.334 383.009L191.02 392.723C188.194 394.011 184.97 394.121 182.058 393.027C179.145 391.933 176.784 389.726 175.491 386.892L165.748 365.514ZM171.228 208.105C169.936 205.27 169.82 202.039 170.905 199.124C171.99 196.208 174.187 193.847 177.013 192.559L198.327 182.844C201.153 181.556 204.377 181.447 207.289 182.54C210.202 183.634 212.564 185.841 213.856 188.676L223.599 210.054C224.891 212.889 225.008 216.119 223.923 219.035C222.838 221.95 220.64 224.312 217.814 225.6L196.5 235.314C193.674 236.602 190.45 236.712 187.538 235.618C184.626 234.524 182.264 232.317 180.972 229.482L171.228 208.105ZM200.459 272.238C199.167 269.403 199.05 266.172 200.135 263.257C201.22 260.342 203.417 257.98 206.244 256.692L227.557 246.977C230.384 245.689 233.608 245.58 236.52 246.674C239.432 247.767 241.794 249.974 243.086 252.809L252.83 274.187C254.122 277.022 254.238 280.252 253.153 283.168C252.068 286.083 249.871 288.445 247.044 289.733L225.731 299.447C222.904 300.735 219.681 300.845 216.768 299.751C213.856 298.657 211.494 296.45 210.202 293.616L200.459 272.238ZM229.689 336.371C228.397 333.536 228.281 330.306 229.366 327.39C230.451 324.475 232.648 322.113 235.474 320.825L256.788 311.111C259.614 309.822 262.838 309.713 265.75 310.807C268.663 311.9 271.024 314.107 272.317 316.942L282.06 338.32C283.352 341.155 283.468 344.385 282.384 347.301C281.299 350.216 279.101 352.578 276.275 353.866L254.961 363.58C252.135 364.869 248.911 364.978 245.999 363.884C243.087 362.791 240.725 360.584 239.433 357.749L229.689 336.371ZM235.169 178.962C233.877 176.127 233.761 172.896 234.846 169.981C235.931 167.065 238.128 164.704 240.954 163.416L262.268 153.701C265.095 152.413 268.318 152.304 271.231 153.398C274.143 154.491 276.505 156.698 277.797 159.533L287.54 180.911C288.832 183.746 288.949 186.976 287.864 189.892C286.779 192.807 284.582 195.169 281.755 196.457L260.441 206.171C257.615 207.459 254.391 207.569 251.479 206.475C248.567 205.381 246.205 203.174 244.913 200.339L235.169 178.962ZM264.4 243.095C263.108 240.26 262.991 237.029 264.076 234.114C265.161 231.199 267.359 228.837 270.185 227.549L291.499 217.835C294.325 216.546 297.549 216.437 300.461 217.531C303.373 218.624 305.735 220.831 307.027 223.666L346.001 309.177C347.293 312.012 347.41 315.242 346.325 318.158C345.24 321.073 343.042 323.435 340.216 324.723L318.902 334.437C316.076 335.726 312.852 335.835 309.94 334.741C307.028 333.648 304.666 331.441 303.374 328.606L264.4 243.095Z" stroke="#5E5E5E" stroke-width="12" mask="url(#path-2-inside-1_185_2214)"/>
</svg>
