<svg width="420" height="346" viewBox="0 0 420 346" fill="none" xmlns="http://www.w3.org/2000/svg">
<path d="M306.542 285.391C301.888 285.389 297.426 283.541 294.137 280.254C290.849 276.967 289.002 272.51 289.004 267.864C289.007 263.217 290.858 258.762 294.15 255.479C297.442 252.195 301.906 250.351 306.559 250.354C311.213 250.354 315.675 252.199 318.966 255.485C322.256 258.77 324.105 263.226 324.105 267.872C324.105 272.518 322.256 276.974 318.966 280.26C315.675 283.545 311.213 285.391 306.559 285.391H306.542ZM113.441 285.391C111.137 285.39 108.855 284.935 106.727 284.054C104.599 283.173 102.665 281.881 101.036 280.254C97.7476 276.967 95.9012 272.51 95.9035 267.864C95.9059 263.217 97.7567 258.762 101.049 255.479C104.341 252.195 108.805 250.351 113.458 250.354C118.112 250.354 122.575 252.199 125.865 255.485C129.155 258.77 131.004 263.226 131.004 267.872C131.004 272.518 129.155 276.974 125.865 280.26C122.575 283.545 118.112 285.391 113.458 285.391H113.441ZM312.766 180.332L347.84 119.946C348.784 118.277 349.025 116.302 348.51 114.456C347.995 112.609 346.767 111.043 345.095 110.1C343.424 109.158 341.446 108.918 339.596 109.432C337.747 109.946 336.178 111.172 335.234 112.841L299.793 173.942C271.646 161.097 241.044 154.498 210.096 154.6C177.749 154.6 147.239 161.548 120.207 173.768L84.7658 112.667C84.2985 111.841 83.673 111.116 82.925 110.532C82.177 109.948 81.3211 109.517 80.4062 109.263C79.4913 109.01 78.5353 108.938 77.5928 109.053C76.6503 109.169 75.7398 109.468 74.9132 109.935C74.0866 110.401 73.3601 111.026 72.7752 111.773C72.1903 112.519 71.7585 113.374 71.5044 114.287C71.2504 115.201 71.179 116.155 71.2943 117.096C71.4097 118.037 71.7095 118.947 72.1768 119.772L107.059 180.14C47.1387 212.785 6.03222 273.363 0 345.043H419.633C413.793 273.537 372.861 212.977 312.766 180.332Z" fill="white"/>
</svg>
